<svg xmlns="http://www.w3.org/2000/svg" xmlns:xlink="http://www.w3.org/1999/xlink" width="1080" zoomAndPan="magnify" viewBox="0 0 810 359.999987" height="480" preserveAspectRatio="xMidYMid meet" version="1.0"><defs><g/><clipPath id="440389465a"><rect x="0" width="798" y="0" height="307"/></clipPath></defs><g transform="matrix(1, 0, 0, 1, 8, 35)"><g clip-path="url(#440389465a)"><g fill="#8c1007" fill-opacity="1"><g transform="translate(0.720193, 218.391526)"><g><path d="M 151.0625 -153.625 C 146.25 -140.4375 142.835938 -126.238281 140.828125 -111.03125 C 139.890625 -104.507812 139.226562 -97.484375 138.84375 -89.953125 C 138.457031 -82.429688 138.535156 -74.519531 139.078125 -66.21875 C 139.617188 -57.914062 140.703125 -49.300781 142.328125 -40.375 C 143.960938 -31.457031 146.332031 -22.34375 149.4375 -13.03125 L 141.0625 0.46875 C 138.726562 0 136.164062 -0.390625 133.375 -0.703125 C 130.894531 -1.003906 127.984375 -1.269531 124.640625 -1.5 C 121.304688 -1.738281 117.546875 -1.859375 113.359375 -1.859375 C 109.628906 -1.859375 105.628906 -1.738281 101.359375 -1.5 C 97.097656 -1.269531 92.71875 -0.769531 88.21875 0 C 82.476562 0.925781 76.582031 1.390625 70.53125 1.390625 C 61.84375 1.390625 53.347656 0.265625 45.046875 -1.984375 C 36.742188 -4.234375 29.367188 -7.800781 22.921875 -12.6875 C 16.484375 -17.570312 11.285156 -23.929688 7.328125 -31.765625 C 3.367188 -39.609375 1.46875 -49.035156 1.625 -60.046875 C 1.625 -69.046875 3.367188 -77.035156 6.859375 -84.015625 C 10.359375 -91.003906 14.898438 -96.90625 20.484375 -101.71875 C 26.066406 -106.53125 32.3125 -110.175781 39.21875 -112.65625 C 46.125 -115.144531 53.066406 -116.390625 60.046875 -116.390625 C 70.296875 -116.390625 79.375 -113.828125 87.28125 -108.703125 C 88.0625 -115.367188 88.609375 -121.726562 88.921875 -127.78125 C 89.222656 -132.75 89.257812 -137.71875 89.03125 -142.6875 C 88.800781 -147.65625 88.066406 -151.300781 86.828125 -153.625 L 91.25 -162.234375 L 143.15625 -162.234375 Z M 48.1875 -65.171875 C 47.71875 -53.378906 49.539062 -43.988281 53.65625 -37 C 57.769531 -30.019531 62.382812 -24.75 67.5 -21.1875 C 73.550781 -16.84375 80.535156 -13.96875 88.453125 -12.5625 L 88.21875 -90.546875 C 87.132812 -93.023438 85.269531 -94.960938 82.625 -96.359375 C 79.988281 -97.753906 77.117188 -98.453125 74.015625 -98.453125 C 71.222656 -98.453125 68.3125 -97.832031 65.28125 -96.59375 C 62.257812 -95.351562 59.546875 -93.414062 57.140625 -90.78125 C 54.734375 -88.144531 52.710938 -84.726562 51.078125 -80.53125 C 49.453125 -76.34375 48.488281 -71.222656 48.1875 -65.171875 Z M 48.1875 -65.171875 "/></g></g></g><g fill="#8c1007" fill-opacity="1"><g transform="translate(158.535001, 218.391526)"><g><path d="M 108.234375 -20.71875 C 108.703125 -17.613281 109.4375 -15.015625 110.4375 -12.921875 C 111.445312 -10.828125 112.5 -9.15625 113.59375 -7.90625 C 114.832031 -6.507812 116.148438 -5.425781 117.546875 -4.65625 L 115.21875 0.703125 L 61.6875 0.703125 L 59.359375 -3.953125 C 61.367188 -6.441406 62.375 -8.691406 62.375 -10.703125 C 62.375 -11.796875 62.222656 -12.726562 61.921875 -13.5 C 60.828125 -12.414062 59.078125 -10.828125 56.671875 -8.734375 C 54.273438 -6.640625 51.445312 -4.582031 48.1875 -2.5625 C 44.925781 -0.539062 41.316406 1.203125 37.359375 2.671875 C 33.398438 4.148438 29.328125 4.890625 25.140625 4.890625 C 20.015625 4.890625 15.359375 3.722656 11.171875 1.390625 C 5.898438 -1.554688 2.289062 -5.160156 0.34375 -9.421875 C -1.59375 -13.691406 -2.25 -18.078125 -1.625 -22.578125 C -1.007812 -27.078125 0.578125 -31.457031 3.140625 -35.71875 C 5.703125 -39.988281 8.84375 -43.597656 12.5625 -46.546875 C 16.289062 -49.492188 20.519531 -51.820312 25.25 -53.53125 C 29.988281 -55.238281 34.644531 -56.867188 39.21875 -58.421875 C 43.800781 -59.972656 48.066406 -61.5625 52.015625 -63.1875 C 55.972656 -64.820312 59.039062 -67.035156 61.21875 -69.828125 C 63.382812 -72.460938 64.738281 -75.332031 65.28125 -78.4375 C 65.832031 -81.539062 65.71875 -84.453125 64.9375 -87.171875 C 64.164062 -89.890625 62.882812 -92.175781 61.09375 -94.03125 C 59.3125 -95.894531 57.257812 -96.984375 54.9375 -97.296875 C 52.289062 -97.296875 49.6875 -96.828125 47.125 -95.890625 C 44.570312 -94.960938 42.90625 -93.023438 42.125 -90.078125 C 41.507812 -87.128906 41.472656 -84.800781 42.015625 -83.09375 C 42.554688 -81.382812 43.175781 -79.867188 43.875 -78.546875 C 44.570312 -77.234375 45.078125 -75.835938 45.390625 -74.359375 C 45.703125 -72.890625 45.238281 -70.757812 44 -67.96875 C 42.75 -65.175781 40.921875 -63.117188 38.515625 -61.796875 C 36.117188 -60.484375 33.519531 -59.828125 30.71875 -59.828125 C 28.082031 -59.828125 25.484375 -60.367188 22.921875 -61.453125 C 20.367188 -62.535156 18.082031 -64.082031 16.0625 -66.09375 C 14.039062 -68.113281 12.523438 -70.597656 11.515625 -73.546875 C 10.515625 -76.492188 10.320312 -79.832031 10.9375 -83.5625 C 11.875 -89.457031 13.890625 -94.460938 16.984375 -98.578125 C 20.085938 -102.691406 23.773438 -106.023438 28.046875 -108.578125 C 32.316406 -111.140625 37.050781 -113.003906 42.25 -114.171875 C 47.445312 -115.335938 52.601562 -115.921875 57.71875 -115.921875 C 63.925781 -115.921875 69.941406 -115.144531 75.765625 -113.59375 C 81.585938 -112.039062 86.820312 -109.671875 91.46875 -106.484375 C 96.125 -103.304688 100.003906 -99.269531 103.109375 -94.375 C 106.210938 -89.488281 108.234375 -83.710938 109.171875 -77.046875 C 109.628906 -73.785156 109.742188 -69.671875 109.515625 -64.703125 C 109.285156 -59.742188 108.972656 -54.625 108.578125 -49.34375 C 108.191406 -44.070312 107.882812 -38.910156 107.65625 -33.859375 C 107.425781 -28.816406 107.617188 -24.4375 108.234375 -20.71875 Z M 59.125 -24.4375 C 61.757812 -26.925781 63.503906 -29.914062 64.359375 -33.40625 C 65.210938 -36.894531 65.640625 -40.269531 65.640625 -43.53125 C 65.484375 -47.40625 64.941406 -51.359375 64.015625 -55.390625 C 62.617188 -52.441406 60.867188 -50.347656 58.765625 -49.109375 C 56.671875 -47.867188 54.457031 -46.78125 52.125 -45.84375 C 49.800781 -44.914062 47.550781 -43.753906 45.375 -42.359375 C 43.207031 -40.960938 41.425781 -38.484375 40.03125 -34.921875 C 39.257812 -32.898438 39.101562 -31.070312 39.5625 -29.4375 C 40.03125 -27.8125 40.847656 -26.414062 42.015625 -25.25 C 43.179688 -24.09375 44.613281 -23.203125 46.3125 -22.578125 C 48.019531 -21.953125 49.726562 -21.640625 51.4375 -21.640625 C 54.539062 -21.640625 57.101562 -22.570312 59.125 -24.4375 Z M 59.125 -24.4375 "/></g></g></g><g fill="#8c1007" fill-opacity="1"><g transform="translate(277.710761, 218.391526)"><g><path d="M 7.21875 -35.84375 C 8.300781 -44.6875 9.113281 -53.066406 9.65625 -60.984375 C 10.195312 -68.898438 10.390625 -76 10.234375 -82.28125 C 10.085938 -88.5625 9.625 -93.988281 8.84375 -98.5625 C 8.070312 -103.144531 6.832031 -106.445312 5.125 -108.46875 L 11.40625 -114.75 L 58.421875 -114.75 L 64.46875 -107.078125 C 62.144531 -99.160156 60.285156 -91.320312 58.890625 -83.5625 C 57.648438 -76.882812 56.71875 -69.859375 56.09375 -62.484375 C 55.476562 -55.117188 55.789062 -48.566406 57.03125 -42.828125 C 57.957031 -38.640625 59.816406 -35.300781 62.609375 -32.8125 C 65.398438 -30.332031 68.503906 -29.09375 71.921875 -29.09375 C 74.554688 -29.09375 77.191406 -29.984375 79.828125 -31.765625 C 82.472656 -33.554688 84.726562 -36.46875 86.59375 -40.5 C 86.894531 -48.257812 86.695312 -55.976562 86 -63.65625 C 85.300781 -71.34375 84.332031 -78.289062 83.09375 -84.5 C 81.851562 -91.789062 80.378906 -98.769531 78.671875 -105.4375 L 85.1875 -114.75 L 139.65625 -114.75 L 144.78125 -104.046875 C 137.800781 -89.304688 133.84375 -76.15625 132.90625 -64.59375 C 131.976562 -53.03125 132.367188 -43.289062 134.078125 -35.375 C 136.085938 -25.914062 139.5 -17.691406 144.3125 -10.703125 L 137.328125 1.859375 L 83.5625 -0.46875 L 79.84375 -10.015625 C 81.550781 -13.265625 82.945312 -17.21875 84.03125 -21.875 C 79.375 -14.894531 73.628906 -9.582031 66.796875 -5.9375 C 59.972656 -2.289062 52.375 -0.46875 44 -0.46875 C 38.875 -0.46875 33.941406 -1.242188 29.203125 -2.796875 C 24.472656 -4.347656 20.363281 -6.597656 16.875 -9.546875 C 13.382812 -12.492188 10.742188 -16.175781 8.953125 -20.59375 C 7.171875 -25.019531 6.59375 -30.101562 7.21875 -35.84375 Z M 7.21875 -35.84375 "/></g></g></g><g fill="#8c1007" fill-opacity="1"><g transform="translate(430.870259, 218.391526)"><g><path d="M 169.453125 7.6875 C 171.628906 6.90625 174.113281 6.515625 176.90625 6.515625 C 181.09375 6.515625 184.773438 7.71875 187.953125 10.125 C 191.140625 12.53125 193.625 15.710938 195.40625 19.671875 C 197.1875 23.628906 198.191406 28.242188 198.421875 33.515625 C 198.660156 38.796875 198.003906 44.226562 196.453125 49.8125 C 194.742188 55.863281 192.144531 61.097656 188.65625 65.515625 C 185.164062 69.941406 181.09375 73.585938 176.4375 76.453125 C 171.78125 79.328125 166.773438 81.5 161.421875 82.96875 C 156.066406 84.445312 150.597656 85.1875 145.015625 85.1875 C 136.628906 85.1875 128.671875 83.597656 121.140625 80.421875 C 113.617188 77.242188 107.609375 72.472656 103.109375 66.109375 C 98.609375 59.898438 95.3125 53.265625 93.21875 46.203125 C 91.125 39.140625 89.609375 32.117188 88.671875 25.140625 C 87.742188 18.160156 87.085938 11.445312 86.703125 5 C 86.316406 -1.4375 85.65625 -7.253906 84.71875 -12.453125 C 83.789062 -17.648438 82.238281 -21.957031 80.0625 -25.375 C 77.894531 -28.789062 74.484375 -30.882812 69.828125 -31.65625 C 69.054688 -31.96875 67.929688 -32.160156 66.453125 -32.234375 C 64.984375 -32.316406 64.09375 -32.507812 63.78125 -32.8125 C 63.46875 -29.40625 63.3125 -26.070312 63.3125 -22.8125 C 63.3125 -20.019531 63.503906 -17.148438 63.890625 -14.203125 C 64.273438 -11.253906 65.015625 -8.769531 66.109375 -6.75 L 62.609375 0.703125 L 13.265625 0.703125 L 6.515625 -6.75 C 10.859375 -14.195312 13.882812 -22.882812 15.59375 -32.8125 C 16.988281 -41.195312 17.144531 -51.398438 16.0625 -63.421875 C 14.976562 -75.453125 10.941406 -89.070312 3.953125 -104.28125 L 10.9375 -116.15625 C 13.726562 -115.53125 16.753906 -115.0625 20.015625 -114.75 C 22.960938 -114.289062 26.296875 -113.90625 30.015625 -113.59375 C 33.742188 -113.28125 37.78125 -113.125 42.125 -113.125 C 45.382812 -113.125 48.722656 -113.238281 52.140625 -113.46875 C 55.554688 -113.707031 59.046875 -114.132812 62.609375 -114.75 C 68.046875 -115.6875 73.398438 -116.15625 78.671875 -116.15625 C 85.660156 -116.15625 92.410156 -115.300781 98.921875 -113.59375 C 105.441406 -111.882812 111.222656 -109.285156 116.265625 -105.796875 C 121.304688 -102.304688 125.414062 -98 128.59375 -92.875 C 131.78125 -87.75 133.609375 -81.695312 134.078125 -74.71875 C 134.535156 -69.4375 133.988281 -64.46875 132.4375 -59.8125 C 130.882812 -55.164062 128.789062 -51.015625 126.15625 -47.359375 C 123.519531 -43.710938 120.414062 -40.726562 116.84375 -38.40625 C 113.28125 -36.082031 109.632812 -34.53125 105.90625 -33.75 C 112.269531 -32.039062 116.613281 -27.421875 118.9375 -19.890625 C 121.269531 -12.367188 122.125 -2.398438 121.5 10.015625 C 121.039062 20.410156 121.3125 28.984375 122.3125 35.734375 C 123.320312 42.484375 124.953125 47.910156 127.203125 52.015625 C 129.453125 56.128906 132.128906 59.039062 135.234375 60.75 C 138.335938 62.457031 141.597656 63.546875 145.015625 64.015625 C 145.328125 64.015625 145.710938 64.050781 146.171875 64.125 C 146.640625 64.207031 147.03125 64.25 147.34375 64.25 C 150.289062 64.25 153.160156 63.625 155.953125 62.375 C 158.742188 61.132812 161.03125 59.46875 162.8125 57.375 C 164.601562 55.28125 165.613281 52.835938 165.84375 50.046875 C 166.070312 47.253906 165.101562 44.382812 162.9375 41.4375 C 160.144531 37.707031 158.359375 34.019531 157.578125 30.375 C 156.804688 26.726562 156.847656 23.390625 157.703125 20.359375 C 158.554688 17.335938 160.03125 14.703125 162.125 12.453125 C 164.21875 10.203125 166.660156 8.613281 169.453125 7.6875 Z M 98.234375 -68.90625 C 98.078125 -77.28125 96.171875 -83.832031 92.515625 -88.5625 C 88.867188 -93.300781 84.796875 -96.832031 80.296875 -99.15625 C 75.023438 -101.789062 69.128906 -103.421875 62.609375 -104.046875 L 63.78125 -54.46875 C 64.863281 -52.132812 66.800781 -50.269531 69.59375 -48.875 C 72.382812 -47.476562 75.410156 -46.78125 78.671875 -46.78125 C 81.003906 -46.78125 83.367188 -47.207031 85.765625 -48.0625 C 88.171875 -48.914062 90.304688 -50.195312 92.171875 -51.90625 C 94.035156 -53.613281 95.507812 -55.898438 96.59375 -58.765625 C 97.6875 -61.640625 98.234375 -65.019531 98.234375 -68.90625 Z M 98.234375 -68.90625 "/></g></g></g><g fill="#8c1007" fill-opacity="1"><g transform="translate(567.270663, 218.391526)"><g><path d="M 64.703125 -107.078125 C 60.203125 -96.828125 57.796875 -85.921875 57.484375 -74.359375 C 57.179688 -62.804688 57.804688 -52.0625 59.359375 -42.125 C 61.210938 -30.644531 64.003906 -19.238281 67.734375 -7.90625 L 61.921875 0.703125 L 11.171875 0.703125 L 6.046875 -9.078125 C 10.390625 -22.265625 12.753906 -34.5625 13.140625 -45.96875 C 13.535156 -57.375 13.113281 -67.421875 11.875 -76.109375 C 10.476562 -86.046875 8.148438 -95.28125 4.890625 -103.8125 L 10.9375 -115.6875 L 60.75 -115.6875 Z M 33.75 -123.828125 C 29.875 -123.828125 26.148438 -124.484375 22.578125 -125.796875 C 19.003906 -127.117188 15.9375 -128.90625 13.375 -131.15625 C 10.820312 -133.40625 8.769531 -136.039062 7.21875 -139.0625 C 5.664062 -142.09375 4.890625 -145.316406 4.890625 -148.734375 C 4.890625 -152.148438 5.664062 -155.367188 7.21875 -158.390625 C 8.769531 -161.421875 10.820312 -164.0625 13.375 -166.3125 C 15.9375 -168.5625 19.003906 -170.34375 22.578125 -171.65625 C 26.148438 -172.976562 29.875 -173.640625 33.75 -173.640625 C 37.78125 -173.640625 41.539062 -172.976562 45.03125 -171.65625 C 48.53125 -170.34375 51.597656 -168.5625 54.234375 -166.3125 C 56.867188 -164.0625 58.960938 -161.421875 60.515625 -158.390625 C 62.066406 -155.367188 62.84375 -152.148438 62.84375 -148.734375 C 62.84375 -145.316406 62.066406 -142.09375 60.515625 -139.0625 C 58.960938 -136.039062 56.867188 -133.40625 54.234375 -131.15625 C 51.597656 -128.90625 48.53125 -127.117188 45.03125 -125.796875 C 41.539062 -124.484375 37.78125 -123.828125 33.75 -123.828125 Z M 33.75 -123.828125 "/></g></g></g><g fill="#8c1007" fill-opacity="1"><g transform="translate(641.755508, 218.391526)"><g><path d="M 10.234375 -117.078125 L 63.78125 -117.078125 L 67.734375 -107.765625 C 66.960938 -105.910156 66.265625 -103.972656 65.640625 -101.953125 C 65.015625 -99.929688 64.472656 -97.835938 64.015625 -95.671875 C 68.515625 -102.960938 74.289062 -108.585938 81.34375 -112.546875 C 88.40625 -116.503906 96.207031 -118.484375 104.75 -118.484375 C 109.707031 -118.484375 114.472656 -117.78125 119.046875 -116.375 C 123.628906 -114.976562 127.585938 -112.882812 130.921875 -110.09375 C 134.265625 -107.300781 136.863281 -103.8125 138.71875 -99.625 C 140.582031 -95.4375 141.285156 -90.546875 140.828125 -84.953125 C 140.203125 -76.109375 139.769531 -67.457031 139.53125 -59 C 139.300781 -50.550781 139.378906 -42.796875 139.765625 -35.734375 C 140.160156 -28.671875 140.863281 -22.617188 141.875 -17.578125 C 142.882812 -12.535156 144.238281 -9.003906 145.9375 -6.984375 L 139.890625 -0.703125 L 93.109375 -0.703125 L 86.828125 -7.90625 C 88.835938 -16.601562 90.390625 -25.140625 91.484375 -33.515625 C 92.410156 -40.648438 93.066406 -48.097656 93.453125 -55.859375 C 93.835938 -63.617188 93.253906 -70.289062 91.703125 -75.875 C 90.617188 -79.914062 88.679688 -83.140625 85.890625 -85.546875 C 83.097656 -87.953125 80.070312 -89.15625 76.8125 -89.15625 C 74.175781 -89.15625 71.535156 -88.179688 68.890625 -86.234375 C 66.253906 -84.296875 64.082031 -81.234375 62.375 -77.046875 C 62.375 -69.441406 62.914062 -61.679688 64 -53.765625 C 65.09375 -45.847656 66.257812 -38.632812 67.5 -32.125 C 68.894531 -24.519531 70.601562 -17.148438 72.625 -10.015625 L 66.578125 -0.703125 L 12.34375 -0.703125 L 6.984375 -11.171875 C 10.085938 -18.617188 12.453125 -25.640625 14.078125 -32.234375 C 15.710938 -38.828125 16.757812 -45.035156 17.21875 -50.859375 C 17.6875 -56.679688 17.648438 -62.035156 17.109375 -66.921875 C 16.566406 -71.804688 15.828125 -76.191406 14.890625 -80.078125 C 12.566406 -89.378906 8.921875 -97.445312 3.953125 -104.28125 Z M 10.234375 -117.078125 "/></g></g></g></g></g></svg>