<svg xmlns="http://www.w3.org/2000/svg" xmlns:xlink="http://www.w3.org/1999/xlink" width="1080" zoomAndPan="magnify" viewBox="0 0 810 359.999987" height="480" preserveAspectRatio="xMidYMid meet" version="1.0"><defs><g/><clipPath id="cd7d7a2f50"><rect x="0" width="793" y="0" height="304"/></clipPath><clipPath id="cd0a2f492a"><rect x="0" width="788" y="0" height="304"/></clipPath></defs><g transform="matrix(1, 0, 0, 1, 0, 31)"><g clip-path="url(#cd7d7a2f50)"><g fill="#000000" fill-opacity="1"><g transform="translate(2.866049, 214.086698)"><g><path d="M 153.59375 -156.203125 C 148.707031 -142.796875 145.238281 -128.359375 143.1875 -112.890625 C 142.238281 -106.265625 141.566406 -99.125 141.171875 -91.46875 C 140.773438 -83.820312 140.851562 -75.773438 141.40625 -67.328125 C 141.957031 -58.890625 143.0625 -50.132812 144.71875 -41.0625 C 146.375 -31.988281 148.78125 -22.71875 151.9375 -13.25 L 143.421875 0.46875 C 141.054688 0 138.453125 -0.390625 135.609375 -0.703125 C 133.085938 -1.023438 130.128906 -1.300781 126.734375 -1.53125 C 123.347656 -1.769531 119.523438 -1.890625 115.265625 -1.890625 C 111.472656 -1.890625 107.40625 -1.769531 103.0625 -1.53125 C 98.726562 -1.300781 94.273438 -0.789062 89.703125 0 C 83.859375 0.945312 77.863281 1.421875 71.71875 1.421875 C 62.875 1.421875 54.234375 0.28125 45.796875 -2 C 37.359375 -4.289062 29.863281 -7.921875 23.3125 -12.890625 C 16.757812 -17.867188 11.472656 -24.335938 7.453125 -32.296875 C 3.429688 -40.265625 1.5 -49.851562 1.65625 -61.0625 C 1.65625 -70.207031 3.429688 -78.332031 6.984375 -85.4375 C 10.535156 -92.539062 15.148438 -98.535156 20.828125 -103.421875 C 26.503906 -108.316406 32.851562 -112.023438 39.875 -114.546875 C 46.894531 -117.078125 53.957031 -118.34375 61.0625 -118.34375 C 71.476562 -118.34375 80.707031 -115.738281 88.75 -110.53125 C 89.539062 -117.3125 90.09375 -123.78125 90.40625 -129.9375 C 90.71875 -134.976562 90.753906 -140.023438 90.515625 -145.078125 C 90.285156 -150.128906 89.539062 -153.835938 88.28125 -156.203125 L 92.78125 -164.953125 L 145.546875 -164.953125 Z M 48.984375 -66.265625 C 48.515625 -54.273438 50.367188 -44.726562 54.546875 -37.625 C 58.734375 -30.53125 63.429688 -25.164062 68.640625 -21.53125 C 74.785156 -17.113281 81.882812 -14.195312 89.9375 -12.78125 L 89.703125 -92.0625 C 88.597656 -94.59375 86.703125 -96.566406 84.015625 -97.984375 C 81.335938 -99.398438 78.421875 -100.109375 75.265625 -100.109375 C 72.421875 -100.109375 69.457031 -99.476562 66.375 -98.21875 C 63.300781 -96.957031 60.539062 -94.984375 58.09375 -92.296875 C 55.65625 -89.617188 53.609375 -86.148438 51.953125 -81.890625 C 50.296875 -77.628906 49.304688 -72.421875 48.984375 -66.265625 Z M 48.984375 -66.265625 "/></g></g></g><g fill="#000000" fill-opacity="1"><g transform="translate(159.547381, 214.086698)"><g><path d="M 110.046875 -21.0625 C 110.523438 -17.90625 111.273438 -15.257812 112.296875 -13.125 C 113.328125 -11 114.394531 -9.304688 115.5 -8.046875 C 116.757812 -6.628906 118.097656 -5.523438 119.515625 -4.734375 L 117.15625 0.703125 L 62.71875 0.703125 L 60.34375 -4.015625 C 62.394531 -6.546875 63.421875 -8.835938 63.421875 -10.890625 C 63.421875 -11.992188 63.265625 -12.941406 62.953125 -13.734375 C 61.847656 -12.617188 60.070312 -11 57.625 -8.875 C 55.1875 -6.75 52.304688 -4.660156 48.984375 -2.609375 C 45.671875 -0.554688 42.003906 1.21875 37.984375 2.71875 C 33.960938 4.21875 29.820312 4.96875 25.5625 4.96875 C 20.351562 4.96875 15.617188 3.785156 11.359375 1.421875 C 5.992188 -1.578125 2.320312 -5.242188 0.34375 -9.578125 C -1.625 -13.921875 -2.289062 -18.378906 -1.65625 -22.953125 C -1.019531 -27.535156 0.59375 -31.992188 3.1875 -36.328125 C 5.789062 -40.671875 8.988281 -44.335938 12.78125 -47.328125 C 16.5625 -50.328125 20.859375 -52.691406 25.671875 -54.421875 C 30.484375 -56.160156 35.21875 -57.816406 39.875 -59.390625 C 44.53125 -60.972656 48.867188 -62.59375 52.890625 -64.25 C 56.921875 -65.90625 60.039062 -68.15625 62.25 -71 C 64.457031 -73.6875 65.835938 -76.601562 66.390625 -79.75 C 66.941406 -82.90625 66.820312 -85.863281 66.03125 -88.625 C 65.238281 -91.394531 63.9375 -93.722656 62.125 -95.609375 C 60.3125 -97.503906 58.222656 -98.609375 55.859375 -98.921875 C 53.171875 -98.921875 50.523438 -98.445312 47.921875 -97.5 C 45.316406 -96.5625 43.625 -94.59375 42.84375 -91.59375 C 42.207031 -88.59375 42.164062 -86.222656 42.71875 -84.484375 C 43.269531 -82.753906 43.898438 -81.21875 44.609375 -79.875 C 45.316406 -78.53125 45.828125 -77.109375 46.140625 -75.609375 C 46.460938 -74.117188 45.992188 -71.953125 44.734375 -69.109375 C 43.472656 -66.265625 41.617188 -64.171875 39.171875 -62.828125 C 36.722656 -61.492188 34.078125 -60.828125 31.234375 -60.828125 C 28.554688 -60.828125 25.914062 -61.378906 23.3125 -62.484375 C 20.707031 -63.585938 18.378906 -65.164062 16.328125 -67.21875 C 14.273438 -69.269531 12.734375 -71.789062 11.703125 -74.78125 C 10.679688 -77.78125 10.488281 -81.175781 11.125 -84.96875 C 12.070312 -90.957031 14.125 -96.039062 17.28125 -100.21875 C 20.4375 -104.40625 24.179688 -107.800781 28.515625 -110.40625 C 32.859375 -113.007812 37.671875 -114.898438 42.953125 -116.078125 C 48.242188 -117.265625 53.488281 -117.859375 58.6875 -117.859375 C 65 -117.859375 71.113281 -117.066406 77.03125 -115.484375 C 82.945312 -113.910156 88.269531 -111.503906 93 -108.265625 C 97.738281 -105.035156 101.6875 -100.9375 104.84375 -95.96875 C 108 -91 110.050781 -85.125 111 -78.34375 C 111.46875 -75.03125 111.582031 -70.847656 111.34375 -65.796875 C 111.113281 -60.742188 110.800781 -55.535156 110.40625 -50.171875 C 110.007812 -44.804688 109.691406 -39.5625 109.453125 -34.4375 C 109.222656 -29.3125 109.421875 -24.851562 110.046875 -21.0625 Z M 60.109375 -24.84375 C 62.796875 -27.375 64.570312 -30.410156 65.4375 -33.953125 C 66.300781 -37.503906 66.734375 -40.9375 66.734375 -44.25 C 66.578125 -48.195312 66.023438 -52.222656 65.078125 -56.328125 C 63.660156 -53.328125 61.882812 -51.195312 59.75 -49.9375 C 57.625 -48.675781 55.378906 -47.570312 53.015625 -46.625 C 50.648438 -45.675781 48.363281 -44.488281 46.15625 -43.0625 C 43.945312 -41.644531 42.128906 -39.125 40.703125 -35.5 C 39.921875 -33.445312 39.765625 -31.59375 40.234375 -29.9375 C 40.703125 -28.28125 41.53125 -26.859375 42.71875 -25.671875 C 43.90625 -24.492188 45.363281 -23.585938 47.09375 -22.953125 C 48.832031 -22.328125 50.566406 -22.015625 52.296875 -22.015625 C 55.453125 -22.015625 58.054688 -22.957031 60.109375 -24.84375 Z M 60.109375 -24.84375 "/></g></g></g><g fill="#000000" fill-opacity="1"><g transform="translate(276.940017, 214.086698)"><g><path d="M 7.34375 -36.453125 C 8.445312 -45.441406 9.273438 -53.957031 9.828125 -62 C 10.378906 -70.050781 10.570312 -77.269531 10.40625 -83.65625 C 10.25 -90.050781 9.773438 -95.578125 8.984375 -100.234375 C 8.203125 -104.890625 6.941406 -108.242188 5.203125 -110.296875 L 11.59375 -116.671875 L 59.40625 -116.671875 L 65.5625 -108.875 C 63.195312 -100.820312 61.300781 -92.851562 59.875 -84.96875 C 58.613281 -78.175781 57.664062 -71.03125 57.03125 -63.53125 C 56.40625 -56.039062 56.722656 -49.378906 57.984375 -43.546875 C 58.929688 -39.285156 60.820312 -35.890625 63.65625 -33.359375 C 66.5 -30.835938 69.65625 -29.578125 73.125 -29.578125 C 75.8125 -29.578125 78.492188 -30.484375 81.171875 -32.296875 C 83.859375 -34.117188 86.148438 -37.082031 88.046875 -41.1875 C 88.359375 -49.070312 88.160156 -56.914062 87.453125 -64.71875 C 86.742188 -72.53125 85.753906 -79.59375 84.484375 -85.90625 C 83.222656 -93.320312 81.726562 -100.425781 80 -107.21875 L 86.625 -116.671875 L 142 -116.671875 L 147.203125 -105.796875 C 140.109375 -90.804688 136.085938 -77.429688 135.140625 -65.671875 C 134.191406 -53.921875 134.585938 -44.019531 136.328125 -35.96875 C 138.378906 -26.34375 141.847656 -17.984375 146.734375 -10.890625 L 139.640625 1.890625 L 84.96875 -0.46875 L 81.171875 -10.171875 C 82.910156 -13.484375 84.332031 -17.507812 85.4375 -22.25 C 80.707031 -15.144531 74.867188 -9.738281 67.921875 -6.03125 C 60.984375 -2.320312 53.253906 -0.46875 44.734375 -0.46875 C 39.523438 -0.46875 34.515625 -1.253906 29.703125 -2.828125 C 24.890625 -4.410156 20.707031 -6.703125 17.15625 -9.703125 C 13.601562 -12.703125 10.921875 -16.445312 9.109375 -20.9375 C 7.296875 -25.4375 6.707031 -30.609375 7.34375 -36.453125 Z M 7.34375 -36.453125 "/></g></g></g><g fill="#000000" fill-opacity="1"><g transform="translate(428.887753, 214.086698)"><g><path d="M 172.296875 7.8125 C 174.503906 7.019531 177.03125 6.625 179.875 6.625 C 184.132812 6.625 187.878906 7.847656 191.109375 10.296875 C 194.347656 12.742188 196.875 15.976562 198.6875 20 C 200.5 24.019531 201.523438 28.710938 201.765625 34.078125 C 202.003906 39.441406 201.332031 44.960938 199.75 50.640625 C 198.007812 56.796875 195.363281 62.125 191.8125 66.625 C 188.269531 71.125 184.128906 74.832031 179.390625 77.75 C 174.660156 80.664062 169.570312 82.875 164.125 84.375 C 158.6875 85.875 153.128906 86.625 147.453125 86.625 C 138.929688 86.625 130.84375 85.003906 123.1875 81.765625 C 115.53125 78.535156 109.414062 73.6875 104.84375 67.21875 C 100.269531 60.90625 96.914062 54.15625 94.78125 46.96875 C 92.65625 39.789062 91.117188 32.648438 90.171875 25.546875 C 89.222656 18.453125 88.550781 11.628906 88.15625 5.078125 C 87.757812 -1.460938 87.085938 -7.375 86.140625 -12.65625 C 85.203125 -17.945312 83.628906 -22.328125 81.421875 -25.796875 C 79.210938 -29.265625 75.738281 -31.394531 71 -32.1875 C 70.207031 -32.5 69.0625 -32.691406 67.5625 -32.765625 C 66.070312 -32.847656 65.164062 -33.050781 64.84375 -33.375 C 64.53125 -29.894531 64.375 -26.5 64.375 -23.1875 C 64.375 -20.351562 64.570312 -17.4375 64.96875 -14.4375 C 65.363281 -11.4375 66.113281 -8.910156 67.21875 -6.859375 L 63.671875 0.703125 L 13.484375 0.703125 L 6.625 -6.859375 C 11.039062 -14.429688 14.117188 -23.269531 15.859375 -33.375 C 17.273438 -41.894531 17.429688 -52.265625 16.328125 -64.484375 C 15.222656 -76.710938 11.117188 -90.5625 4.015625 -106.03125 L 11.125 -118.09375 C 13.96875 -117.46875 17.046875 -116.992188 20.359375 -116.671875 C 23.347656 -116.203125 26.734375 -115.804688 30.515625 -115.484375 C 34.304688 -115.171875 38.414062 -115.015625 42.84375 -115.015625 C 46.15625 -115.015625 49.546875 -115.132812 53.015625 -115.375 C 56.484375 -115.613281 60.035156 -116.046875 63.671875 -116.671875 C 69.191406 -117.617188 74.632812 -118.09375 80 -118.09375 C 87.09375 -118.09375 93.953125 -117.222656 100.578125 -115.484375 C 107.210938 -113.753906 113.09375 -111.113281 118.21875 -107.5625 C 123.34375 -104.019531 127.519531 -99.644531 130.75 -94.4375 C 133.988281 -89.226562 135.847656 -83.070312 136.328125 -75.96875 C 136.796875 -70.601562 136.238281 -65.550781 134.65625 -60.8125 C 133.082031 -56.082031 130.953125 -51.863281 128.265625 -48.15625 C 125.585938 -44.445312 122.429688 -41.410156 118.796875 -39.046875 C 115.171875 -36.679688 111.46875 -35.101562 107.6875 -34.3125 C 114.15625 -32.582031 118.570312 -27.890625 120.9375 -20.234375 C 123.300781 -12.578125 124.171875 -2.441406 123.546875 10.171875 C 123.066406 20.742188 123.335938 29.460938 124.359375 36.328125 C 125.390625 43.191406 127.046875 48.710938 129.328125 52.890625 C 131.617188 57.078125 134.34375 60.035156 137.5 61.765625 C 140.65625 63.503906 143.972656 64.609375 147.453125 65.078125 C 147.765625 65.078125 148.15625 65.117188 148.625 65.203125 C 149.101562 65.285156 149.5 65.328125 149.8125 65.328125 C 152.8125 65.328125 155.726562 64.691406 158.5625 63.421875 C 161.40625 62.160156 163.734375 60.460938 165.546875 58.328125 C 167.367188 56.203125 168.394531 53.71875 168.625 50.875 C 168.863281 48.039062 167.878906 45.125 165.671875 42.125 C 162.828125 38.34375 161.007812 34.597656 160.21875 30.890625 C 159.4375 27.179688 159.476562 23.785156 160.34375 20.703125 C 161.207031 17.628906 162.703125 14.945312 164.828125 12.65625 C 166.960938 10.375 169.453125 8.757812 172.296875 7.8125 Z M 99.875 -70.0625 C 99.71875 -78.570312 97.785156 -85.234375 94.078125 -90.046875 C 90.367188 -94.859375 86.226562 -98.453125 81.65625 -100.828125 C 76.289062 -103.503906 70.296875 -105.160156 63.671875 -105.796875 L 64.84375 -55.375 C 65.945312 -53.007812 67.921875 -51.117188 70.765625 -49.703125 C 73.609375 -48.285156 76.6875 -47.578125 80 -47.578125 C 82.363281 -47.578125 84.765625 -48.007812 87.203125 -48.875 C 89.648438 -49.738281 91.820312 -51.035156 93.71875 -52.765625 C 95.613281 -54.503906 97.113281 -56.832031 98.21875 -59.75 C 99.320312 -62.675781 99.875 -66.113281 99.875 -70.0625 Z M 99.875 -70.0625 "/></g></g></g><g fill="#000000" fill-opacity="1"><g transform="translate(563.794583, 214.086698)"><g><path d="M 65.796875 -108.875 C 61.222656 -98.457031 58.773438 -87.367188 58.453125 -75.609375 C 58.140625 -63.859375 58.769531 -52.9375 60.34375 -42.84375 C 62.238281 -31.164062 65.082031 -19.566406 68.875 -8.046875 L 62.953125 0.703125 L 11.359375 0.703125 L 6.15625 -9.234375 C 10.570312 -22.640625 12.976562 -35.140625 13.375 -46.734375 C 13.769531 -58.335938 13.332031 -68.554688 12.0625 -77.390625 C 10.644531 -87.484375 8.28125 -96.875 4.96875 -105.5625 L 11.125 -117.625 L 61.765625 -117.625 Z M 34.3125 -125.90625 C 30.375 -125.90625 26.585938 -126.578125 22.953125 -127.921875 C 19.328125 -129.265625 16.210938 -131.078125 13.609375 -133.359375 C 11.003906 -135.648438 8.910156 -138.332031 7.328125 -141.40625 C 5.753906 -144.488281 4.96875 -147.765625 4.96875 -151.234375 C 4.96875 -154.703125 5.753906 -157.972656 7.328125 -161.046875 C 8.910156 -164.128906 11.003906 -166.8125 13.609375 -169.09375 C 16.210938 -171.382812 19.328125 -173.203125 22.953125 -174.546875 C 26.585938 -175.890625 30.375 -176.5625 34.3125 -176.5625 C 38.414062 -176.5625 42.242188 -175.890625 45.796875 -174.546875 C 49.347656 -173.203125 52.460938 -171.382812 55.140625 -169.09375 C 57.828125 -166.8125 59.957031 -164.128906 61.53125 -161.046875 C 63.113281 -157.972656 63.90625 -154.703125 63.90625 -151.234375 C 63.90625 -147.765625 63.113281 -144.488281 61.53125 -141.40625 C 59.957031 -138.332031 57.828125 -135.648438 55.140625 -133.359375 C 52.460938 -131.078125 49.347656 -129.265625 45.796875 -127.921875 C 42.242188 -126.578125 38.414062 -125.90625 34.3125 -125.90625 Z M 34.3125 -125.90625 "/></g></g></g><g fill="#000000" fill-opacity="1"><g transform="translate(635.744909, 214.086698)"><g><path d="M 10.40625 -119.046875 L 64.84375 -119.046875 L 68.875 -109.578125 C 68.082031 -107.679688 67.367188 -105.707031 66.734375 -103.65625 C 66.109375 -101.601562 65.554688 -99.472656 65.078125 -97.265625 C 69.660156 -104.679688 75.539062 -110.398438 82.71875 -114.421875 C 89.894531 -118.453125 97.820312 -120.46875 106.5 -120.46875 C 111.550781 -120.46875 116.40625 -119.753906 121.0625 -118.328125 C 125.71875 -116.910156 129.738281 -114.78125 133.125 -111.9375 C 136.519531 -109.101562 139.160156 -105.554688 141.046875 -101.296875 C 142.941406 -97.035156 143.65625 -92.066406 143.1875 -86.390625 C 142.550781 -77.390625 142.113281 -68.585938 141.875 -59.984375 C 141.644531 -51.390625 141.726562 -43.503906 142.125 -36.328125 C 142.519531 -29.148438 143.226562 -22.992188 144.25 -17.859375 C 145.28125 -12.734375 146.660156 -9.144531 148.390625 -7.09375 L 142.234375 -0.703125 L 94.671875 -0.703125 L 88.28125 -8.046875 C 90.332031 -16.878906 91.910156 -25.554688 93.015625 -34.078125 C 93.960938 -41.335938 94.628906 -48.910156 95.015625 -56.796875 C 95.410156 -64.691406 94.820312 -71.476562 93.25 -77.15625 C 92.144531 -81.257812 90.171875 -84.53125 87.328125 -86.96875 C 84.492188 -89.414062 81.421875 -90.640625 78.109375 -90.640625 C 75.421875 -90.640625 72.734375 -89.65625 70.046875 -87.6875 C 67.367188 -85.71875 65.160156 -82.601562 63.421875 -78.34375 C 63.421875 -70.601562 63.972656 -62.707031 65.078125 -54.65625 C 66.179688 -46.613281 67.367188 -39.28125 68.640625 -32.65625 C 70.054688 -24.925781 71.789062 -17.429688 73.84375 -10.171875 L 67.6875 -0.703125 L 12.546875 -0.703125 L 7.09375 -11.359375 C 10.25 -18.929688 12.65625 -26.070312 14.3125 -32.78125 C 15.96875 -39.488281 17.03125 -45.800781 17.5 -51.71875 C 17.976562 -57.632812 17.941406 -63.078125 17.390625 -68.046875 C 16.835938 -73.015625 16.085938 -77.472656 15.140625 -81.421875 C 12.773438 -90.878906 9.066406 -99.082031 4.015625 -106.03125 Z M 10.40625 -119.046875 "/></g></g></g></g></g><g transform="matrix(1, 0, 0, 1, 16, 31)"><g clip-path="url(#cd0a2f492a)"><g fill="#8c1007" fill-opacity="1"><g transform="translate(0.874442, 214.086698)"><g><path d="M 153.59375 -156.203125 C 148.707031 -142.796875 145.238281 -128.359375 143.1875 -112.890625 C 142.238281 -106.265625 141.566406 -99.125 141.171875 -91.46875 C 140.773438 -83.820312 140.851562 -75.773438 141.40625 -67.328125 C 141.957031 -58.890625 143.0625 -50.132812 144.71875 -41.0625 C 146.375 -31.988281 148.78125 -22.71875 151.9375 -13.25 L 143.421875 0.46875 C 141.054688 0 138.453125 -0.390625 135.609375 -0.703125 C 133.085938 -1.023438 130.128906 -1.300781 126.734375 -1.53125 C 123.347656 -1.769531 119.523438 -1.890625 115.265625 -1.890625 C 111.472656 -1.890625 107.40625 -1.769531 103.0625 -1.53125 C 98.726562 -1.300781 94.273438 -0.789062 89.703125 0 C 83.859375 0.945312 77.863281 1.421875 71.71875 1.421875 C 62.875 1.421875 54.234375 0.28125 45.796875 -2 C 37.359375 -4.289062 29.863281 -7.921875 23.3125 -12.890625 C 16.757812 -17.867188 11.472656 -24.335938 7.453125 -32.296875 C 3.429688 -40.265625 1.5 -49.851562 1.65625 -61.0625 C 1.65625 -70.207031 3.429688 -78.332031 6.984375 -85.4375 C 10.535156 -92.539062 15.148438 -98.535156 20.828125 -103.421875 C 26.503906 -108.316406 32.851562 -112.023438 39.875 -114.546875 C 46.894531 -117.078125 53.957031 -118.34375 61.0625 -118.34375 C 71.476562 -118.34375 80.707031 -115.738281 88.75 -110.53125 C 89.539062 -117.3125 90.09375 -123.78125 90.40625 -129.9375 C 90.71875 -134.976562 90.753906 -140.023438 90.515625 -145.078125 C 90.285156 -150.128906 89.539062 -153.835938 88.28125 -156.203125 L 92.78125 -164.953125 L 145.546875 -164.953125 Z M 48.984375 -66.265625 C 48.515625 -54.273438 50.367188 -44.726562 54.546875 -37.625 C 58.734375 -30.53125 63.429688 -25.164062 68.640625 -21.53125 C 74.785156 -17.113281 81.882812 -14.195312 89.9375 -12.78125 L 89.703125 -92.0625 C 88.597656 -94.59375 86.703125 -96.566406 84.015625 -97.984375 C 81.335938 -99.398438 78.421875 -100.109375 75.265625 -100.109375 C 72.421875 -100.109375 69.457031 -99.476562 66.375 -98.21875 C 63.300781 -96.957031 60.539062 -94.984375 58.09375 -92.296875 C 55.65625 -89.617188 53.609375 -86.148438 51.953125 -81.890625 C 50.296875 -77.628906 49.304688 -72.421875 48.984375 -66.265625 Z M 48.984375 -66.265625 "/></g></g></g><g fill="#8c1007" fill-opacity="1"><g transform="translate(157.555775, 214.086698)"><g><path d="M 110.046875 -21.0625 C 110.523438 -17.90625 111.273438 -15.257812 112.296875 -13.125 C 113.328125 -11 114.394531 -9.304688 115.5 -8.046875 C 116.757812 -6.628906 118.097656 -5.523438 119.515625 -4.734375 L 117.15625 0.703125 L 62.71875 0.703125 L 60.34375 -4.015625 C 62.394531 -6.546875 63.421875 -8.835938 63.421875 -10.890625 C 63.421875 -11.992188 63.265625 -12.941406 62.953125 -13.734375 C 61.847656 -12.617188 60.070312 -11 57.625 -8.875 C 55.1875 -6.75 52.304688 -4.660156 48.984375 -2.609375 C 45.671875 -0.554688 42.003906 1.21875 37.984375 2.71875 C 33.960938 4.21875 29.820312 4.96875 25.5625 4.96875 C 20.351562 4.96875 15.617188 3.785156 11.359375 1.421875 C 5.992188 -1.578125 2.320312 -5.242188 0.34375 -9.578125 C -1.625 -13.921875 -2.289062 -18.378906 -1.65625 -22.953125 C -1.019531 -27.535156 0.59375 -31.992188 3.1875 -36.328125 C 5.789062 -40.671875 8.988281 -44.335938 12.78125 -47.328125 C 16.5625 -50.328125 20.859375 -52.691406 25.671875 -54.421875 C 30.484375 -56.160156 35.21875 -57.816406 39.875 -59.390625 C 44.53125 -60.972656 48.867188 -62.59375 52.890625 -64.25 C 56.921875 -65.90625 60.039062 -68.15625 62.25 -71 C 64.457031 -73.6875 65.835938 -76.601562 66.390625 -79.75 C 66.941406 -82.90625 66.820312 -85.863281 66.03125 -88.625 C 65.238281 -91.394531 63.9375 -93.722656 62.125 -95.609375 C 60.3125 -97.503906 58.222656 -98.609375 55.859375 -98.921875 C 53.171875 -98.921875 50.523438 -98.445312 47.921875 -97.5 C 45.316406 -96.5625 43.625 -94.59375 42.84375 -91.59375 C 42.207031 -88.59375 42.164062 -86.222656 42.71875 -84.484375 C 43.269531 -82.753906 43.898438 -81.21875 44.609375 -79.875 C 45.316406 -78.53125 45.828125 -77.109375 46.140625 -75.609375 C 46.460938 -74.117188 45.992188 -71.953125 44.734375 -69.109375 C 43.472656 -66.265625 41.617188 -64.171875 39.171875 -62.828125 C 36.722656 -61.492188 34.078125 -60.828125 31.234375 -60.828125 C 28.554688 -60.828125 25.914062 -61.378906 23.3125 -62.484375 C 20.707031 -63.585938 18.378906 -65.164062 16.328125 -67.21875 C 14.273438 -69.269531 12.734375 -71.789062 11.703125 -74.78125 C 10.679688 -77.78125 10.488281 -81.175781 11.125 -84.96875 C 12.070312 -90.957031 14.125 -96.039062 17.28125 -100.21875 C 20.4375 -104.40625 24.179688 -107.800781 28.515625 -110.40625 C 32.859375 -113.007812 37.671875 -114.898438 42.953125 -116.078125 C 48.242188 -117.265625 53.488281 -117.859375 58.6875 -117.859375 C 65 -117.859375 71.113281 -117.066406 77.03125 -115.484375 C 82.945312 -113.910156 88.269531 -111.503906 93 -108.265625 C 97.738281 -105.035156 101.6875 -100.9375 104.84375 -95.96875 C 108 -91 110.050781 -85.125 111 -78.34375 C 111.46875 -75.03125 111.582031 -70.847656 111.34375 -65.796875 C 111.113281 -60.742188 110.800781 -55.535156 110.40625 -50.171875 C 110.007812 -44.804688 109.691406 -39.5625 109.453125 -34.4375 C 109.222656 -29.3125 109.421875 -24.851562 110.046875 -21.0625 Z M 60.109375 -24.84375 C 62.796875 -27.375 64.570312 -30.410156 65.4375 -33.953125 C 66.300781 -37.503906 66.734375 -40.9375 66.734375 -44.25 C 66.578125 -48.195312 66.023438 -52.222656 65.078125 -56.328125 C 63.660156 -53.328125 61.882812 -51.195312 59.75 -49.9375 C 57.625 -48.675781 55.378906 -47.570312 53.015625 -46.625 C 50.648438 -45.675781 48.363281 -44.488281 46.15625 -43.0625 C 43.945312 -41.644531 42.128906 -39.125 40.703125 -35.5 C 39.921875 -33.445312 39.765625 -31.59375 40.234375 -29.9375 C 40.703125 -28.28125 41.53125 -26.859375 42.71875 -25.671875 C 43.90625 -24.492188 45.363281 -23.585938 47.09375 -22.953125 C 48.832031 -22.328125 50.566406 -22.015625 52.296875 -22.015625 C 55.453125 -22.015625 58.054688 -22.957031 60.109375 -24.84375 Z M 60.109375 -24.84375 "/></g></g></g><g fill="#8c1007" fill-opacity="1"><g transform="translate(274.948411, 214.086698)"><g><path d="M 7.34375 -36.453125 C 8.445312 -45.441406 9.273438 -53.957031 9.828125 -62 C 10.378906 -70.050781 10.570312 -77.269531 10.40625 -83.65625 C 10.25 -90.050781 9.773438 -95.578125 8.984375 -100.234375 C 8.203125 -104.890625 6.941406 -108.242188 5.203125 -110.296875 L 11.59375 -116.671875 L 59.40625 -116.671875 L 65.5625 -108.875 C 63.195312 -100.820312 61.300781 -92.851562 59.875 -84.96875 C 58.613281 -78.175781 57.664062 -71.03125 57.03125 -63.53125 C 56.40625 -56.039062 56.722656 -49.378906 57.984375 -43.546875 C 58.929688 -39.285156 60.820312 -35.890625 63.65625 -33.359375 C 66.5 -30.835938 69.65625 -29.578125 73.125 -29.578125 C 75.8125 -29.578125 78.492188 -30.484375 81.171875 -32.296875 C 83.859375 -34.117188 86.148438 -37.082031 88.046875 -41.1875 C 88.359375 -49.070312 88.160156 -56.914062 87.453125 -64.71875 C 86.742188 -72.53125 85.753906 -79.59375 84.484375 -85.90625 C 83.222656 -93.320312 81.726562 -100.425781 80 -107.21875 L 86.625 -116.671875 L 142 -116.671875 L 147.203125 -105.796875 C 140.109375 -90.804688 136.085938 -77.429688 135.140625 -65.671875 C 134.191406 -53.921875 134.585938 -44.019531 136.328125 -35.96875 C 138.378906 -26.34375 141.847656 -17.984375 146.734375 -10.890625 L 139.640625 1.890625 L 84.96875 -0.46875 L 81.171875 -10.171875 C 82.910156 -13.484375 84.332031 -17.507812 85.4375 -22.25 C 80.707031 -15.144531 74.867188 -9.738281 67.921875 -6.03125 C 60.984375 -2.320312 53.253906 -0.46875 44.734375 -0.46875 C 39.523438 -0.46875 34.515625 -1.253906 29.703125 -2.828125 C 24.890625 -4.410156 20.707031 -6.703125 17.15625 -9.703125 C 13.601562 -12.703125 10.921875 -16.445312 9.109375 -20.9375 C 7.296875 -25.4375 6.707031 -30.609375 7.34375 -36.453125 Z M 7.34375 -36.453125 "/></g></g></g><g fill="#8c1007" fill-opacity="1"><g transform="translate(426.896147, 214.086698)"><g><path d="M 172.296875 7.8125 C 174.503906 7.019531 177.03125 6.625 179.875 6.625 C 184.132812 6.625 187.878906 7.847656 191.109375 10.296875 C 194.347656 12.742188 196.875 15.976562 198.6875 20 C 200.5 24.019531 201.523438 28.710938 201.765625 34.078125 C 202.003906 39.441406 201.332031 44.960938 199.75 50.640625 C 198.007812 56.796875 195.363281 62.125 191.8125 66.625 C 188.269531 71.125 184.128906 74.832031 179.390625 77.75 C 174.660156 80.664062 169.570312 82.875 164.125 84.375 C 158.6875 85.875 153.128906 86.625 147.453125 86.625 C 138.929688 86.625 130.84375 85.003906 123.1875 81.765625 C 115.53125 78.535156 109.414062 73.6875 104.84375 67.21875 C 100.269531 60.90625 96.914062 54.15625 94.78125 46.96875 C 92.65625 39.789062 91.117188 32.648438 90.171875 25.546875 C 89.222656 18.453125 88.550781 11.628906 88.15625 5.078125 C 87.757812 -1.460938 87.085938 -7.375 86.140625 -12.65625 C 85.203125 -17.945312 83.628906 -22.328125 81.421875 -25.796875 C 79.210938 -29.265625 75.738281 -31.394531 71 -32.1875 C 70.207031 -32.5 69.0625 -32.691406 67.5625 -32.765625 C 66.070312 -32.847656 65.164062 -33.050781 64.84375 -33.375 C 64.53125 -29.894531 64.375 -26.5 64.375 -23.1875 C 64.375 -20.351562 64.570312 -17.4375 64.96875 -14.4375 C 65.363281 -11.4375 66.113281 -8.910156 67.21875 -6.859375 L 63.671875 0.703125 L 13.484375 0.703125 L 6.625 -6.859375 C 11.039062 -14.429688 14.117188 -23.269531 15.859375 -33.375 C 17.273438 -41.894531 17.429688 -52.265625 16.328125 -64.484375 C 15.222656 -76.710938 11.117188 -90.5625 4.015625 -106.03125 L 11.125 -118.09375 C 13.96875 -117.46875 17.046875 -116.992188 20.359375 -116.671875 C 23.347656 -116.203125 26.734375 -115.804688 30.515625 -115.484375 C 34.304688 -115.171875 38.414062 -115.015625 42.84375 -115.015625 C 46.15625 -115.015625 49.546875 -115.132812 53.015625 -115.375 C 56.484375 -115.613281 60.035156 -116.046875 63.671875 -116.671875 C 69.191406 -117.617188 74.632812 -118.09375 80 -118.09375 C 87.09375 -118.09375 93.953125 -117.222656 100.578125 -115.484375 C 107.210938 -113.753906 113.09375 -111.113281 118.21875 -107.5625 C 123.34375 -104.019531 127.519531 -99.644531 130.75 -94.4375 C 133.988281 -89.226562 135.847656 -83.070312 136.328125 -75.96875 C 136.796875 -70.601562 136.238281 -65.550781 134.65625 -60.8125 C 133.082031 -56.082031 130.953125 -51.863281 128.265625 -48.15625 C 125.585938 -44.445312 122.429688 -41.410156 118.796875 -39.046875 C 115.171875 -36.679688 111.46875 -35.101562 107.6875 -34.3125 C 114.15625 -32.582031 118.570312 -27.890625 120.9375 -20.234375 C 123.300781 -12.578125 124.171875 -2.441406 123.546875 10.171875 C 123.066406 20.742188 123.335938 29.460938 124.359375 36.328125 C 125.390625 43.191406 127.046875 48.710938 129.328125 52.890625 C 131.617188 57.078125 134.34375 60.035156 137.5 61.765625 C 140.65625 63.503906 143.972656 64.609375 147.453125 65.078125 C 147.765625 65.078125 148.15625 65.117188 148.625 65.203125 C 149.101562 65.285156 149.5 65.328125 149.8125 65.328125 C 152.8125 65.328125 155.726562 64.691406 158.5625 63.421875 C 161.40625 62.160156 163.734375 60.460938 165.546875 58.328125 C 167.367188 56.203125 168.394531 53.71875 168.625 50.875 C 168.863281 48.039062 167.878906 45.125 165.671875 42.125 C 162.828125 38.34375 161.007812 34.597656 160.21875 30.890625 C 159.4375 27.179688 159.476562 23.785156 160.34375 20.703125 C 161.207031 17.628906 162.703125 14.945312 164.828125 12.65625 C 166.960938 10.375 169.453125 8.757812 172.296875 7.8125 Z M 99.875 -70.0625 C 99.71875 -78.570312 97.785156 -85.234375 94.078125 -90.046875 C 90.367188 -94.859375 86.226562 -98.453125 81.65625 -100.828125 C 76.289062 -103.503906 70.296875 -105.160156 63.671875 -105.796875 L 64.84375 -55.375 C 65.945312 -53.007812 67.921875 -51.117188 70.765625 -49.703125 C 73.609375 -48.285156 76.6875 -47.578125 80 -47.578125 C 82.363281 -47.578125 84.765625 -48.007812 87.203125 -48.875 C 89.648438 -49.738281 91.820312 -51.035156 93.71875 -52.765625 C 95.613281 -54.503906 97.113281 -56.832031 98.21875 -59.75 C 99.320312 -62.675781 99.875 -66.113281 99.875 -70.0625 Z M 99.875 -70.0625 "/></g></g></g><g fill="#8c1007" fill-opacity="1"><g transform="translate(561.802976, 214.086698)"><g><path d="M 65.796875 -108.875 C 61.222656 -98.457031 58.773438 -87.367188 58.453125 -75.609375 C 58.140625 -63.859375 58.769531 -52.9375 60.34375 -42.84375 C 62.238281 -31.164062 65.082031 -19.566406 68.875 -8.046875 L 62.953125 0.703125 L 11.359375 0.703125 L 6.15625 -9.234375 C 10.570312 -22.640625 12.976562 -35.140625 13.375 -46.734375 C 13.769531 -58.335938 13.332031 -68.554688 12.0625 -77.390625 C 10.644531 -87.484375 8.28125 -96.875 4.96875 -105.5625 L 11.125 -117.625 L 61.765625 -117.625 Z M 34.3125 -125.90625 C 30.375 -125.90625 26.585938 -126.578125 22.953125 -127.921875 C 19.328125 -129.265625 16.210938 -131.078125 13.609375 -133.359375 C 11.003906 -135.648438 8.910156 -138.332031 7.328125 -141.40625 C 5.753906 -144.488281 4.96875 -147.765625 4.96875 -151.234375 C 4.96875 -154.703125 5.753906 -157.972656 7.328125 -161.046875 C 8.910156 -164.128906 11.003906 -166.8125 13.609375 -169.09375 C 16.210938 -171.382812 19.328125 -173.203125 22.953125 -174.546875 C 26.585938 -175.890625 30.375 -176.5625 34.3125 -176.5625 C 38.414062 -176.5625 42.242188 -175.890625 45.796875 -174.546875 C 49.347656 -173.203125 52.460938 -171.382812 55.140625 -169.09375 C 57.828125 -166.8125 59.957031 -164.128906 61.53125 -161.046875 C 63.113281 -157.972656 63.90625 -154.703125 63.90625 -151.234375 C 63.90625 -147.765625 63.113281 -144.488281 61.53125 -141.40625 C 59.957031 -138.332031 57.828125 -135.648438 55.140625 -133.359375 C 52.460938 -131.078125 49.347656 -129.265625 45.796875 -127.921875 C 42.242188 -126.578125 38.414062 -125.90625 34.3125 -125.90625 Z M 34.3125 -125.90625 "/></g></g></g><g fill="#8c1007" fill-opacity="1"><g transform="translate(633.753302, 214.086698)"><g><path d="M 10.40625 -119.046875 L 64.84375 -119.046875 L 68.875 -109.578125 C 68.082031 -107.679688 67.367188 -105.707031 66.734375 -103.65625 C 66.109375 -101.601562 65.554688 -99.472656 65.078125 -97.265625 C 69.660156 -104.679688 75.539062 -110.398438 82.71875 -114.421875 C 89.894531 -118.453125 97.820312 -120.46875 106.5 -120.46875 C 111.550781 -120.46875 116.40625 -119.753906 121.0625 -118.328125 C 125.71875 -116.910156 129.738281 -114.78125 133.125 -111.9375 C 136.519531 -109.101562 139.160156 -105.554688 141.046875 -101.296875 C 142.941406 -97.035156 143.65625 -92.066406 143.1875 -86.390625 C 142.550781 -77.390625 142.113281 -68.585938 141.875 -59.984375 C 141.644531 -51.390625 141.726562 -43.503906 142.125 -36.328125 C 142.519531 -29.148438 143.226562 -22.992188 144.25 -17.859375 C 145.28125 -12.734375 146.660156 -9.144531 148.390625 -7.09375 L 142.234375 -0.703125 L 94.671875 -0.703125 L 88.28125 -8.046875 C 90.332031 -16.878906 91.910156 -25.554688 93.015625 -34.078125 C 93.960938 -41.335938 94.628906 -48.910156 95.015625 -56.796875 C 95.410156 -64.691406 94.820312 -71.476562 93.25 -77.15625 C 92.144531 -81.257812 90.171875 -84.53125 87.328125 -86.96875 C 84.492188 -89.414062 81.421875 -90.640625 78.109375 -90.640625 C 75.421875 -90.640625 72.734375 -89.65625 70.046875 -87.6875 C 67.367188 -85.71875 65.160156 -82.601562 63.421875 -78.34375 C 63.421875 -70.601562 63.972656 -62.707031 65.078125 -54.65625 C 66.179688 -46.613281 67.367188 -39.28125 68.640625 -32.65625 C 70.054688 -24.925781 71.789062 -17.429688 73.84375 -10.171875 L 67.6875 -0.703125 L 12.546875 -0.703125 L 7.09375 -11.359375 C 10.25 -18.929688 12.65625 -26.070312 14.3125 -32.78125 C 15.96875 -39.488281 17.03125 -45.800781 17.5 -51.71875 C 17.976562 -57.632812 17.941406 -63.078125 17.390625 -68.046875 C 16.835938 -73.015625 16.085938 -77.472656 15.140625 -81.421875 C 12.773438 -90.878906 9.066406 -99.082031 4.015625 -106.03125 Z M 10.40625 -119.046875 "/></g></g></g></g></g></svg>