<svg xmlns="http://www.w3.org/2000/svg" xmlns:xlink="http://www.w3.org/1999/xlink" width="1080" zoomAndPan="magnify" viewBox="0 0 810 809.999993" height="1080" preserveAspectRatio="xMidYMid meet" version="1.0"><defs><clipPath id="6de7b3cfbb"><path d="M 149.746094 395.320312 L 660.160156 395.320312 L 660.160156 702.148438 L 149.746094 702.148438 Z M 149.746094 395.320312 " clip-rule="nonzero"/></clipPath><clipPath id="64d2eaf5af"><path d="M 348.238281 500.304688 L 461.761719 500.304688 L 461.761719 613.824219 L 348.238281 613.824219 Z M 348.238281 500.304688 " clip-rule="nonzero"/></clipPath><clipPath id="f8c914ca01"><path d="M 405 500.304688 C 373.652344 500.304688 348.238281 525.714844 348.238281 557.0625 C 348.238281 588.410156 373.652344 613.824219 405 613.824219 C 436.347656 613.824219 461.761719 588.410156 461.761719 557.0625 C 461.761719 525.714844 436.347656 500.304688 405 500.304688 Z M 405 500.304688 " clip-rule="nonzero"/></clipPath><clipPath id="feee9e580e"><path d="M 0.238281 0.304688 L 113.761719 0.304688 L 113.761719 113.824219 L 0.238281 113.824219 Z M 0.238281 0.304688 " clip-rule="nonzero"/></clipPath><clipPath id="035b5ab950"><path d="M 57 0.304688 C 25.652344 0.304688 0.238281 25.714844 0.238281 57.0625 C 0.238281 88.410156 25.652344 113.824219 57 113.824219 C 88.347656 113.824219 113.761719 88.410156 113.761719 57.0625 C 113.761719 25.714844 88.347656 0.304688 57 0.304688 Z M 57 0.304688 " clip-rule="nonzero"/></clipPath><clipPath id="ec9ffc6728"><rect x="0" width="114" y="0" height="114"/></clipPath></defs><rect x="-81" width="972" fill="#ffffff" y="-80.999999" height="971.999992" fill-opacity="1"/><rect x="-81" width="972" fill="#8c1007" y="-80.999999" height="971.999992" fill-opacity="1"/><path fill="#ffffff" d="M 257.683594 255.066406 C 257.683594 173.730469 323.609375 107.796875 404.945312 107.796875 C 486.28125 107.796875 552.214844 173.730469 552.214844 255.066406 C 552.214844 336.390625 486.28125 402.335938 404.945312 402.335938 C 323.609375 402.335938 257.683594 336.390625 257.683594 255.066406 " fill-opacity="1" fill-rule="nonzero"/><g clip-path="url(#6de7b3cfbb)"><path fill="#ffffff" d="M 658.054688 621.621094 L 637.054688 540.683594 C 619.9375 474.710938 573.746094 422.394531 514.367188 395.992188 C 484.140625 419.492188 446.191406 433.523438 404.945312 433.523438 C 363.699219 433.523438 325.75 419.492188 295.53125 395.992188 C 236.152344 422.394531 189.960938 474.710938 172.84375 540.683594 L 151.84375 621.621094 C 141.269531 662.378906 172.03125 702.144531 214.140625 702.144531 L 595.757812 702.144531 C 637.867188 702.144531 668.628906 662.378906 658.054688 621.621094 " fill-opacity="1" fill-rule="nonzero"/></g><g clip-path="url(#64d2eaf5af)"><g clip-path="url(#f8c914ca01)"><g transform="matrix(1, 0, 0, 1, 348, 500)"><g clip-path="url(#ec9ffc6728)"><g clip-path="url(#feee9e580e)"><g clip-path="url(#035b5ab950)"><path fill="#ffffff" d="M 0.238281 0.304688 L 113.761719 0.304688 L 113.761719 113.824219 L 0.238281 113.824219 Z M 0.238281 0.304688 " fill-opacity="1" fill-rule="nonzero"/></g></g></g></g></g></g></svg>