<svg xmlns="http://www.w3.org/2000/svg" xmlns:xlink="http://www.w3.org/1999/xlink" width="480" zoomAndPan="magnify" viewBox="0 0 360 359.999987" height="480" preserveAspectRatio="xMidYMid meet" version="1.2"><defs><clipPath id="aea233282d"><path d="M 49.5 0 L 310.5 0 L 310.5 360 L 49.5 360 Z M 49.5 0 "/></clipPath><clipPath id="1d6c36eb91"><path d="M 78.824219 28.972656 L 281.175781 28.972656 L 281.175781 231.324219 L 78.824219 231.324219 Z M 78.824219 28.972656 "/></clipPath><clipPath id="678bcc2d44"><path d="M 180 28.972656 C 124.121094 28.972656 78.824219 74.269531 78.824219 130.148438 C 78.824219 186.027344 124.121094 231.324219 180 231.324219 C 235.878906 231.324219 281.175781 186.027344 281.175781 130.148438 C 281.175781 74.269531 235.878906 28.972656 180 28.972656 Z M 180 28.972656 "/></clipPath><clipPath id="17090befac"><path d="M 0.824219 0.972656 L 203.175781 0.972656 L 203.175781 203.324219 L 0.824219 203.324219 Z M 0.824219 0.972656 "/></clipPath><clipPath id="d07e5d6828"><path d="M 102 0.972656 C 46.121094 0.972656 0.824219 46.269531 0.824219 102.148438 C 0.824219 158.027344 46.121094 203.324219 102 203.324219 C 157.878906 203.324219 203.175781 158.027344 203.175781 102.148438 C 203.175781 46.269531 157.878906 0.972656 102 0.972656 Z M 102 0.972656 "/></clipPath><clipPath id="1e2cba79ea"><rect x="0" width="204" y="0" height="204"/></clipPath><clipPath id="c35df90dba"><path d="M 98 36 L 261.941406 36 L 261.941406 223.5 L 98 223.5 Z M 98 36 "/></clipPath></defs><g id="072dab5ab0"><g clip-rule="nonzero" clip-path="url(#aea233282d)"><path style=" stroke:none;fill-rule:nonzero;fill:#7b4019;fill-opacity:1;" d="M 159.128906 292.824219 C 154.027344 277.933594 144.679688 264.855469 132.242188 255.203125 L 101.671875 231.46875 C 70.28125 207.101562 51.21875 170.140625 49.566406 130.433594 C 49.566406 58.398438 107.964844 0 180 0 C 252.039062 0 310.433594 58.398438 310.433594 130.433594 C 308.78125 170.140625 289.71875 207.101562 258.328125 231.46875 L 227.757812 255.203125 C 215.320312 264.855469 205.976562 277.933594 200.871094 292.824219 L 197.273438 303.3125 C 194.742188 310.695312 187.804688 315.652344 180 315.652344 C 172.195312 315.652344 165.257812 310.695312 162.726562 303.3125 Z M 180 360 C 151.183594 360 127.828125 356.496094 127.828125 352.175781 C 127.828125 347.851562 151.183594 344.347656 180 344.347656 C 208.816406 344.347656 232.175781 347.851562 232.175781 352.175781 C 232.175781 356.496094 208.816406 360 180 360 Z M 242.222656 137.738281 L 256.753906 108.449219 C 258.984375 103.738281 258.726562 98.214844 256.058594 93.742188 C 253.347656 89 248.363281 86.046875 242.933594 85.957031 L 137.101562 85.957031 L 132.625 68.371094 C 131.695312 64.875 128.492188 62.488281 124.90625 62.613281 L 109.460938 62.613281 C 105.195312 62.613281 101.738281 66.097656 101.738281 70.394531 C 101.738281 74.691406 105.195312 78.175781 109.460938 78.175781 L 119.035156 78.175781 L 140.34375 158.019531 C 141.277344 161.515625 144.476562 163.902344 148.066406 163.777344 L 224.558594 163.777344 C 227.464844 163.769531 230.121094 162.113281 231.429688 159.496094 L 237.566406 147.128906 L 173.738281 147.128906 L 173.738281 137.738281 Z M 162.785156 206.609375 C 171.316406 206.609375 178.230469 199.640625 178.230469 191.042969 C 178.230469 182.449219 171.316406 175.480469 162.785156 175.480469 C 154.257812 175.480469 147.34375 182.449219 147.34375 191.042969 C 147.34375 199.640625 154.257812 206.609375 162.785156 206.609375 Z M 216.839844 206.609375 C 225.363281 206.609375 232.277344 199.640625 232.277344 191.042969 C 232.277344 182.449219 225.363281 175.480469 216.839844 175.480469 C 208.308594 175.480469 201.394531 182.449219 201.394531 191.042969 C 201.394531 199.640625 208.308594 206.609375 216.839844 206.609375 Z M 216.839844 206.609375 "/></g><g clip-rule="nonzero" clip-path="url(#1d6c36eb91)"><g clip-rule="nonzero" clip-path="url(#678bcc2d44)"><g transform="matrix(1,0,0,1,78,28)"><g clip-path="url(#1e2cba79ea)"><g clip-rule="nonzero" clip-path="url(#17090befac)"><g clip-rule="nonzero" clip-path="url(#d07e5d6828)"><path style=" stroke:none;fill-rule:nonzero;fill:#7b4019;fill-opacity:1;" d="M 0.824219 0.972656 L 203.175781 0.972656 L 203.175781 203.324219 L 0.824219 203.324219 Z M 0.824219 0.972656 "/></g></g></g></g></g></g><g clip-rule="nonzero" clip-path="url(#c35df90dba)"><path style=" stroke:none;fill-rule:nonzero;fill:#ffffff;fill-opacity:1;" d="M 187.851562 36.140625 C 187.398438 36.148438 186.941406 36.175781 186.480469 36.21875 L 176.277344 37.144531 L 166.074219 38.09375 C 156.28125 39 148.96875 47.816406 149.875 57.609375 L 150.550781 65.074219 C 150.550781 65.074219 150.550781 65.078125 150.550781 65.078125 L 110.179688 68.8125 C 109.347656 68.890625 108.527344 69.046875 107.722656 69.285156 C 106.921875 69.523438 106.148438 69.839844 105.40625 70.230469 C 104.664062 70.621094 103.96875 71.082031 103.316406 71.609375 C 102.667969 72.136719 102.074219 72.722656 101.539062 73.367188 C 101 74.011719 100.535156 74.703125 100.136719 75.4375 C 99.734375 76.175781 99.410156 76.941406 99.164062 77.742188 C 98.914062 78.542969 98.75 79.359375 98.660156 80.191406 C 98.574219 81.027344 98.570312 81.859375 98.644531 82.695312 L 99.726562 94.328125 L 262.023438 79.308594 L 260.941406 67.675781 C 260.867188 66.839844 260.707031 66.023438 260.46875 65.21875 C 260.230469 64.417969 259.917969 63.644531 259.527344 62.90625 C 259.136719 62.164062 258.675781 61.46875 258.148438 60.816406 C 257.621094 60.167969 257.035156 59.574219 256.390625 59.039062 C 255.746094 58.503906 255.054688 58.035156 254.316406 57.636719 C 253.582031 57.238281 252.8125 56.914062 252.011719 56.667969 C 251.210938 56.417969 250.394531 56.25 249.558594 56.164062 C 248.726562 56.078125 247.890625 56.074219 247.058594 56.148438 L 206.671875 59.882812 L 205.996094 52.414062 C 205.132812 43.082031 197.085938 36 187.851562 36.144531 Z M 188.207031 47.59375 C 191.535156 47.609375 194.261719 50.070312 194.574219 53.460938 L 195.269531 60.941406 L 178.621094 62.480469 L 161.976562 64.019531 L 161.28125 56.542969 C 160.945312 52.925781 163.492188 49.851562 167.121094 49.515625 C 167.128906 49.515625 167.136719 49.515625 167.144531 49.515625 L 177.332031 48.574219 L 187.535156 47.625 C 187.761719 47.601562 187.988281 47.589844 188.210938 47.59375 Z M 114.335938 99.460938 L 125.503906 208.453125 C 125.605469 209.460938 125.800781 210.457031 126.089844 211.429688 C 126.375 212.40625 126.75 213.347656 127.207031 214.253906 C 127.667969 215.160156 128.207031 216.015625 128.824219 216.824219 C 129.441406 217.632812 130.128906 218.375 130.882812 219.058594 C 131.636719 219.738281 132.449219 220.34375 133.3125 220.875 C 134.179688 221.410156 135.089844 221.855469 136.039062 222.222656 C 136.988281 222.585938 137.960938 222.863281 138.960938 223.046875 C 139.960938 223.234375 140.96875 223.328125 141.988281 223.328125 L 216.496094 223.328125 C 217.515625 223.328125 218.523438 223.234375 219.523438 223.046875 C 220.523438 222.863281 221.496094 222.585938 222.445312 222.222656 C 223.394531 221.855469 224.300781 221.410156 225.167969 220.875 C 226.035156 220.34375 226.847656 219.738281 227.601562 219.058594 C 228.355469 218.375 229.042969 217.632812 229.660156 216.824219 C 230.277344 216.015625 230.816406 215.160156 231.277344 214.253906 C 231.734375 213.347656 232.109375 212.40625 232.394531 211.429688 C 232.679688 210.457031 232.875 209.460938 232.980469 208.453125 L 244.148438 99.460938 Z M 179.242188 120.058594 C 179.617188 120.058594 179.992188 120.097656 180.359375 120.167969 C 180.730469 120.242188 181.089844 120.351562 181.4375 120.496094 C 181.785156 120.640625 182.117188 120.816406 182.429688 121.027344 C 182.742188 121.234375 183.03125 121.472656 183.300781 121.738281 C 183.566406 122.003906 183.804688 122.296875 184.011719 122.609375 C 184.222656 122.921875 184.398438 123.253906 184.542969 123.601562 C 184.6875 123.949219 184.796875 124.308594 184.867188 124.675781 C 184.941406 125.046875 184.976562 125.417969 184.976562 125.796875 L 184.976562 193.679688 C 184.976562 194.054688 184.941406 194.429688 184.867188 194.796875 C 184.792969 195.164062 184.683594 195.523438 184.539062 195.871094 C 184.394531 196.21875 184.21875 196.546875 184.007812 196.859375 C 183.796875 197.171875 183.5625 197.460938 183.292969 197.726562 C 183.027344 197.992188 182.738281 198.230469 182.425781 198.441406 C 182.113281 198.648438 181.78125 198.824219 181.433594 198.96875 C 181.085938 199.113281 180.726562 199.21875 180.359375 199.292969 C 179.992188 199.367188 179.617188 199.402344 179.242188 199.402344 C 178.867188 199.402344 178.492188 199.367188 178.125 199.292969 C 177.753906 199.21875 177.398438 199.113281 177.050781 198.96875 C 176.703125 198.824219 176.371094 198.648438 176.058594 198.441406 C 175.746094 198.230469 175.457031 197.992188 175.1875 197.726562 C 174.921875 197.460938 174.683594 197.171875 174.476562 196.859375 C 174.265625 196.546875 174.089844 196.21875 173.945312 195.871094 C 173.800781 195.523438 173.691406 195.164062 173.617188 194.796875 C 173.542969 194.429688 173.507812 194.054688 173.503906 193.679688 L 173.503906 125.796875 C 173.503906 125.417969 173.542969 125.046875 173.613281 124.675781 C 173.6875 124.308594 173.796875 123.949219 173.941406 123.601562 C 174.085938 123.253906 174.261719 122.921875 174.472656 122.609375 C 174.679688 122.296875 174.917969 122.003906 175.183594 121.738281 C 175.449219 121.472656 175.742188 121.234375 176.054688 121.027344 C 176.367188 120.816406 176.699219 120.640625 177.046875 120.496094 C 177.394531 120.351562 177.753906 120.242188 178.121094 120.167969 C 178.492188 120.097656 178.863281 120.058594 179.242188 120.058594 Z M 211.09375 120.078125 C 211.390625 120.0625 211.691406 120.066406 211.988281 120.097656 C 212.363281 120.132812 212.726562 120.203125 213.085938 120.3125 C 213.449219 120.417969 213.792969 120.5625 214.125 120.738281 C 214.457031 120.914062 214.769531 121.121094 215.058594 121.355469 C 215.351562 121.59375 215.617188 121.855469 215.855469 122.144531 C 216.09375 122.433594 216.304688 122.742188 216.484375 123.074219 C 216.660156 123.402344 216.808594 123.75 216.917969 124.105469 C 217.027344 124.464844 217.105469 124.832031 217.144531 125.203125 C 217.183594 125.578125 217.183594 125.953125 217.152344 126.324219 L 210.804688 194.203125 C 210.769531 194.578125 210.699219 194.945312 210.59375 195.304688 C 210.484375 195.667969 210.34375 196.011719 210.167969 196.34375 C 209.992188 196.679688 209.789062 196.992188 209.550781 197.28125 C 209.3125 197.574219 209.050781 197.839844 208.761719 198.082031 C 208.472656 198.320312 208.164062 198.53125 207.832031 198.710938 C 207.503906 198.890625 207.15625 199.035156 206.796875 199.144531 C 206.441406 199.257812 206.074219 199.332031 205.699219 199.371094 C 205.324219 199.414062 204.953125 199.414062 204.578125 199.378906 C 204.203125 199.347656 203.832031 199.273438 203.472656 199.167969 C 203.113281 199.0625 202.765625 198.917969 202.429688 198.742188 C 202.097656 198.566406 201.785156 198.363281 201.492188 198.125 C 201.199219 197.886719 200.933594 197.625 200.691406 197.332031 C 200.453125 197.042969 200.242188 196.734375 200.0625 196.402344 C 199.882812 196.070312 199.738281 195.726562 199.625 195.367188 C 199.515625 195.003906 199.441406 194.636719 199.402344 194.261719 C 199.363281 193.886719 199.359375 193.515625 199.394531 193.140625 L 205.746094 125.253906 C 205.808594 124.578125 205.992188 123.929688 206.285156 123.316406 C 206.582031 122.699219 206.972656 122.15625 207.464844 121.679688 C 207.953125 121.207031 208.511719 120.832031 209.136719 120.554688 C 209.757812 120.28125 210.410156 120.121094 211.09375 120.078125 Z M 147.496094 120.089844 C 148.164062 120.140625 148.804688 120.308594 149.417969 120.589844 C 150.03125 120.871094 150.574219 121.246094 151.054688 121.71875 C 151.535156 122.191406 151.917969 122.730469 152.207031 123.339844 C 152.496094 123.945312 152.671875 124.585938 152.738281 125.253906 L 159.085938 193.136719 C 159.121094 193.515625 159.121094 193.890625 159.082031 194.265625 C 159.042969 194.640625 158.96875 195.007812 158.859375 195.367188 C 158.746094 195.726562 158.601562 196.074219 158.421875 196.402344 C 158.242188 196.734375 158.035156 197.046875 157.792969 197.335938 C 157.550781 197.625 157.285156 197.890625 156.992188 198.128906 C 156.699219 198.367188 156.386719 198.570312 156.054688 198.746094 C 155.71875 198.921875 155.371094 199.066406 155.011719 199.171875 C 154.648438 199.28125 154.28125 199.351562 153.90625 199.386719 C 153.53125 199.417969 153.15625 199.417969 152.785156 199.378906 C 152.410156 199.335938 152.042969 199.261719 151.683594 199.152344 C 151.324219 199.039062 150.980469 198.894531 150.648438 198.714844 C 150.320312 198.535156 150.007812 198.324219 149.71875 198.082031 C 149.429688 197.84375 149.167969 197.578125 148.929688 197.285156 C 148.695312 196.992188 148.488281 196.679688 148.3125 196.347656 C 148.136719 196.015625 147.996094 195.667969 147.890625 195.308594 C 147.785156 194.945312 147.710938 194.578125 147.679688 194.203125 L 141.332031 126.320312 C 141.300781 125.949219 141.300781 125.574219 141.339844 125.199219 C 141.378906 124.828125 141.457031 124.460938 141.566406 124.105469 C 141.679688 123.746094 141.824219 123.402344 142.003906 123.070312 C 142.179688 122.742188 142.390625 122.433594 142.628906 122.144531 C 142.867188 121.855469 143.132812 121.589844 143.425781 121.355469 C 143.714844 121.117188 144.027344 120.914062 144.359375 120.738281 C 144.691406 120.5625 145.035156 120.417969 145.394531 120.3125 C 145.753906 120.203125 146.121094 120.132812 146.496094 120.097656 C 146.828125 120.066406 147.160156 120.0625 147.496094 120.085938 Z M 147.496094 120.089844 "/></g></g></svg>