<svg xmlns="http://www.w3.org/2000/svg" xmlns:xlink="http://www.w3.org/1999/xlink" width="480" zoomAndPan="magnify" viewBox="0 0 360 359.999987" height="480" preserveAspectRatio="xMidYMid meet" version="1.2"><defs><clipPath id="9e731b9c95"><path d="M 49.5 0 L 310.5 0 L 310.5 360 L 49.5 360 Z M 49.5 0 "/></clipPath><clipPath id="3e0cc29acc"><path d="M 78.824219 28.972656 L 281.175781 28.972656 L 281.175781 231.324219 L 78.824219 231.324219 Z M 78.824219 28.972656 "/></clipPath><clipPath id="69afd0d3d7"><path d="M 180 28.972656 C 124.121094 28.972656 78.824219 74.269531 78.824219 130.148438 C 78.824219 186.027344 124.121094 231.324219 180 231.324219 C 235.878906 231.324219 281.175781 186.027344 281.175781 130.148438 C 281.175781 74.269531 235.878906 28.972656 180 28.972656 Z M 180 28.972656 "/></clipPath><clipPath id="da5ce96b09"><path d="M 0.824219 0.972656 L 203.175781 0.972656 L 203.175781 203.324219 L 0.824219 203.324219 Z M 0.824219 0.972656 "/></clipPath><clipPath id="8e1f5d9c28"><path d="M 102 0.972656 C 46.121094 0.972656 0.824219 46.269531 0.824219 102.148438 C 0.824219 158.027344 46.121094 203.324219 102 203.324219 C 157.878906 203.324219 203.175781 158.027344 203.175781 102.148438 C 203.175781 46.269531 157.878906 0.972656 102 0.972656 Z M 102 0.972656 "/></clipPath><clipPath id="2a6ec483a4"><rect x="0" width="204" y="0" height="204"/></clipPath><clipPath id="6fffbdf502"><path d="M 108.335938 59 L 251.585938 59 L 251.585938 201 L 108.335938 201 Z M 108.335938 59 "/></clipPath></defs><g id="a116173126"><g clip-rule="nonzero" clip-path="url(#9e731b9c95)"><path style=" stroke:none;fill-rule:nonzero;fill:#471396;fill-opacity:1;" d="M 159.128906 292.824219 C 154.027344 277.933594 144.679688 264.855469 132.242188 255.203125 L 101.671875 231.46875 C 70.28125 207.101562 51.21875 170.140625 49.566406 130.433594 C 49.566406 58.398438 107.964844 0 180 0 C 252.039062 0 310.433594 58.398438 310.433594 130.433594 C 308.78125 170.140625 289.71875 207.101562 258.328125 231.46875 L 227.757812 255.203125 C 215.320312 264.855469 205.976562 277.933594 200.871094 292.824219 L 197.273438 303.3125 C 194.742188 310.695312 187.804688 315.652344 180 315.652344 C 172.195312 315.652344 165.257812 310.695312 162.726562 303.3125 Z M 180 360 C 151.183594 360 127.828125 356.496094 127.828125 352.175781 C 127.828125 347.851562 151.183594 344.347656 180 344.347656 C 208.816406 344.347656 232.175781 347.851562 232.175781 352.175781 C 232.175781 356.496094 208.816406 360 180 360 Z M 242.222656 137.738281 L 256.753906 108.449219 C 258.984375 103.738281 258.726562 98.214844 256.058594 93.742188 C 253.347656 89 248.363281 86.046875 242.933594 85.957031 L 137.101562 85.957031 L 132.625 68.371094 C 131.695312 64.875 128.492188 62.488281 124.90625 62.613281 L 109.460938 62.613281 C 105.195312 62.613281 101.738281 66.097656 101.738281 70.394531 C 101.738281 74.691406 105.195312 78.175781 109.460938 78.175781 L 119.035156 78.175781 L 140.34375 158.019531 C 141.277344 161.515625 144.476562 163.902344 148.066406 163.777344 L 224.558594 163.777344 C 227.464844 163.769531 230.121094 162.113281 231.429688 159.496094 L 237.566406 147.128906 L 173.738281 147.128906 L 173.738281 137.738281 Z M 162.785156 206.609375 C 171.316406 206.609375 178.230469 199.640625 178.230469 191.042969 C 178.230469 182.449219 171.316406 175.480469 162.785156 175.480469 C 154.257812 175.480469 147.34375 182.449219 147.34375 191.042969 C 147.34375 199.640625 154.257812 206.609375 162.785156 206.609375 Z M 216.839844 206.609375 C 225.363281 206.609375 232.277344 199.640625 232.277344 191.042969 C 232.277344 182.449219 225.363281 175.480469 216.839844 175.480469 C 208.308594 175.480469 201.394531 182.449219 201.394531 191.042969 C 201.394531 199.640625 208.308594 206.609375 216.839844 206.609375 Z M 216.839844 206.609375 "/></g><g clip-rule="nonzero" clip-path="url(#3e0cc29acc)"><g clip-rule="nonzero" clip-path="url(#69afd0d3d7)"><g transform="matrix(1,0,0,1,78,28)"><g clip-path="url(#2a6ec483a4)"><g clip-rule="nonzero" clip-path="url(#da5ce96b09)"><g clip-rule="nonzero" clip-path="url(#8e1f5d9c28)"><path style=" stroke:none;fill-rule:nonzero;fill:#471396;fill-opacity:1;" d="M 0.824219 0.972656 L 203.175781 0.972656 L 203.175781 203.324219 L 0.824219 203.324219 Z M 0.824219 0.972656 "/></g></g></g></g></g></g><g clip-rule="nonzero" clip-path="url(#6fffbdf502)"><path style=" stroke:none;fill-rule:nonzero;fill:#ffffff;fill-opacity:1;" d="M 199.324219 59.363281 L 112.042969 59.363281 C 109.898438 59.363281 108.335938 60.925781 108.335938 63.070312 L 108.335938 197.214844 C 108.335938 199.363281 109.898438 200.925781 112.042969 200.925781 L 142.894531 200.925781 L 142.894531 172.808594 C 142.894531 169.292969 145.824219 166.363281 149.339844 166.363281 L 164.765625 166.363281 C 168.277344 166.363281 171.207031 169.292969 171.207031 172.808594 L 171.207031 200.925781 L 199.324219 200.925781 C 201.472656 200.925781 203.035156 199.363281 203.035156 197.214844 L 203.035156 63.070312 C 203.035156 61.121094 201.472656 59.363281 199.324219 59.363281 Z M 137.234375 159.921875 L 124.152344 159.921875 L 124.152344 147.230469 L 137.234375 147.230469 Z M 137.234375 135.511719 L 124.152344 135.511719 L 124.152344 122.820312 L 137.234375 122.820312 Z M 137.234375 111.105469 L 124.152344 111.105469 L 124.152344 98.414062 L 137.234375 98.414062 Z M 137.234375 86.699219 L 124.152344 86.699219 L 124.152344 74.007812 L 137.234375 74.007812 Z M 163.789062 159.921875 L 150.707031 159.921875 L 150.707031 147.230469 L 163.789062 147.230469 Z M 163.789062 135.511719 L 150.707031 135.511719 L 150.707031 122.820312 L 163.789062 122.820312 Z M 163.789062 111.105469 L 150.707031 111.105469 L 150.707031 98.414062 L 163.789062 98.414062 Z M 163.789062 86.699219 L 150.707031 86.699219 L 150.707031 74.007812 L 163.789062 74.007812 Z M 190.148438 159.921875 L 177.066406 159.921875 L 177.066406 147.230469 L 190.148438 147.230469 Z M 190.148438 135.511719 L 177.066406 135.511719 L 177.066406 122.820312 L 190.148438 122.820312 Z M 190.148438 111.105469 L 177.066406 111.105469 L 177.066406 98.414062 L 190.148438 98.414062 Z M 190.148438 86.699219 L 177.066406 86.699219 L 177.066406 74.007812 L 190.148438 74.007812 Z M 247.945312 84.355469 L 205.574219 84.355469 L 205.574219 197.019531 C 205.574219 198.386719 205.183594 199.753906 204.402344 200.730469 L 247.75 200.730469 C 249.898438 200.730469 251.460938 199.167969 251.460938 197.019531 L 251.460938 88.066406 C 251.65625 85.917969 250.09375 84.355469 247.945312 84.355469 Z M 235.449219 186.28125 L 222.171875 186.28125 L 222.171875 173.589844 L 235.449219 173.589844 Z M 235.449219 161.289062 L 222.171875 161.289062 L 222.171875 148.59375 L 235.449219 148.59375 Z M 235.449219 136.097656 L 222.171875 136.097656 L 222.171875 123.40625 L 235.449219 123.40625 Z M 235.449219 111.105469 L 222.171875 111.105469 L 222.171875 98.414062 L 235.449219 98.414062 Z M 235.449219 111.105469 "/></g></g></svg>