<svg xmlns="http://www.w3.org/2000/svg" xmlns:xlink="http://www.w3.org/1999/xlink" width="1080" zoomAndPan="magnify" viewBox="0 0 810 809.999993" height="1080" preserveAspectRatio="xMidYMid meet" version="1.2"><defs><clipPath id="7fb6c677bb"><path d="M 264.003906 120.4375 L 558.402344 120.4375 L 558.402344 526.5 L 264.003906 526.5 Z M 264.003906 120.4375 "/></clipPath><clipPath id="d3917a9e84"><path d="M 116.351562 6.863281 L 693.851562 6.863281 L 693.851562 803.363281 L 116.351562 803.363281 Z M 116.351562 6.863281 "/></clipPath></defs><g id="146fadbda3"><g clip-rule="nonzero" clip-path="url(#7fb6c677bb)"><path style=" stroke:none;fill-rule:nonzero;fill:#ffffff;fill-opacity:1;" d="M 264.003906 120.4375 L 558.402344 120.4375 L 558.402344 526.386719 L 264.003906 526.386719 Z M 264.003906 120.4375 "/></g><g clip-rule="nonzero" clip-path="url(#d3917a9e84)"><path style=" stroke:none;fill-rule:nonzero;fill:#00bf63;fill-opacity:1;" d="M 358.832031 654.550781 C 347.542969 621.609375 326.867188 592.6875 299.363281 571.332031 L 231.746094 518.839844 C 162.3125 464.9375 120.148438 383.1875 116.492188 295.367188 C 116.492188 136.03125 245.660156 6.863281 404.996094 6.863281 C 564.328125 6.863281 693.496094 136.03125 693.496094 295.367188 C 689.839844 383.1875 647.675781 464.9375 578.242188 518.839844 L 510.625 571.332031 C 483.121094 592.6875 462.445312 621.609375 451.15625 654.550781 L 443.203125 677.746094 C 437.601562 694.074219 422.253906 705.039062 404.996094 705.039062 C 387.734375 705.039062 372.386719 694.074219 366.785156 677.746094 Z M 404.996094 803.128906 C 341.257812 803.128906 289.59375 795.378906 289.59375 785.820312 C 289.59375 776.257812 341.257812 768.507812 404.996094 768.507812 C 468.730469 768.507812 520.394531 776.257812 520.394531 785.820312 C 520.394531 795.378906 468.730469 803.128906 404.996094 803.128906 Z M 310.601562 313.769531 C 295.84375 313.769531 283.824219 326.046875 283.824219 340.789062 L 283.824219 430.503906 C 283.824219 445.261719 295.84375 456.917969 310.582031 456.917969 L 341.488281 456.917969 C 356.246094 456.917969 368.113281 445.261719 368.113281 430.503906 L 368.113281 340.78125 C 368.113281 326.035156 356.246094 313.757812 341.488281 313.757812 L 341.179688 313.757812 L 341.179688 222.472656 L 343.472656 222.472656 C 351.660156 222.472656 358.136719 216.023438 358.136719 207.835938 L 346.59375 154.722656 C 346.59375 146.527344 340.125 140.167969 331.933594 140.167969 L 320.167969 140.167969 C 311.976562 140.167969 305.324219 146.527344 305.324219 154.722656 L 293.785156 207.84375 C 293.785156 216.027344 300.433594 222.480469 308.628906 222.480469 L 310.757812 222.480469 L 310.757812 313.769531 Z M 505.417969 264.609375 C 529.851562 252.789062 546.203125 227.980469 546.203125 199.28125 C 546.203125 175.351562 532.621094 154.179688 515.742188 140.9375 C 513.808594 139.433594 511.199219 139.144531 509.007812 140.214844 C 506.796875 141.292969 505.417969 143.523438 505.417969 145.980469 L 505.417969 181.429688 C 505.417969 192.753906 496.210938 201.539062 484.875 201.539062 L 462.070312 201.539062 C 450.738281 201.539062 441.574219 192.746094 441.574219 181.429688 L 441.574219 146 C 441.574219 143.550781 440.179688 141.320312 437.96875 140.242188 C 435.777344 139.175781 433.15625 139.453125 431.234375 140.964844 C 414.40625 154.199219 400.796875 175.375 400.796875 199.289062 C 400.796875 227.988281 417.632812 252.796875 441.574219 264.617188 L 441.574219 436.0625 C 441.574219 447.65625 450.855469 456.925781 462.453125 456.925781 L 484.53125 456.925781 C 496.125 456.925781 505.417969 447.65625 505.417969 436.0625 Z M 505.417969 264.609375 "/></g></g></svg>