<svg xmlns="http://www.w3.org/2000/svg" xmlns:xlink="http://www.w3.org/1999/xlink" width="1080" zoomAndPan="magnify" viewBox="0 0 810 809.999993" height="1080" preserveAspectRatio="xMidYMid meet" version="1.2"><defs><clipPath id="04555a6ffb"><path d="M 204.339844 140.234375 L 600.320312 140.234375 L 600.320312 475.941406 L 204.339844 475.941406 Z M 204.339844 140.234375 "/></clipPath><clipPath id="b67fa74d84"><path d="M 111.375 10.246094 L 683.625 10.246094 L 683.625 799.996094 L 111.375 799.996094 Z M 111.375 10.246094 "/></clipPath></defs><g id="8c30830a99"><g clip-rule="nonzero" clip-path="url(#04555a6ffb)"><path style=" stroke:none;fill-rule:nonzero;fill:#ffffff;fill-opacity:1;" d="M 204.339844 140.234375 L 600.367188 140.234375 L 600.367188 475.941406 L 204.339844 475.941406 Z M 204.339844 140.234375 "/></g><g clip-rule="nonzero" clip-path="url(#b67fa74d84)"><path style=" stroke:none;fill-rule:nonzero;fill:#ff3131;fill-opacity:1;" d="M 351.742188 652.273438 C 340.546875 619.621094 320.054688 590.953125 292.792969 569.78125 L 225.765625 517.75 C 156.9375 464.316406 115.140625 383.28125 111.515625 296.226562 C 111.515625 138.28125 239.554688 10.246094 397.5 10.246094 C 555.441406 10.246094 683.480469 138.28125 683.480469 296.226562 C 679.855469 383.28125 638.058594 464.316406 569.234375 517.75 L 502.207031 569.78125 C 474.941406 590.953125 454.449219 619.621094 443.253906 652.273438 L 435.375 675.269531 C 429.820312 691.453125 414.605469 702.320312 397.5 702.320312 C 380.390625 702.320312 365.175781 691.453125 359.621094 675.269531 Z M 397.5 799.554688 C 334.320312 799.554688 283.105469 791.871094 283.105469 782.394531 C 283.105469 772.921875 334.320312 765.238281 397.5 765.238281 C 460.675781 765.238281 511.890625 772.921875 511.890625 782.394531 C 511.890625 791.871094 460.675781 799.554688 397.5 799.554688 Z M 533.925781 312.242188 L 565.785156 248.019531 C 570.671875 237.695312 570.105469 225.585938 564.261719 215.773438 C 558.3125 205.382812 547.386719 198.90625 535.484375 198.710938 L 303.441406 198.710938 L 293.628906 160.152344 C 291.585938 152.488281 284.570312 147.253906 276.699219 147.527344 L 242.839844 147.527344 C 233.488281 147.527344 225.910156 155.164062 225.910156 164.589844 C 225.910156 174.011719 233.488281 181.648438 242.839844 181.648438 L 263.828125 181.648438 L 310.554688 356.703125 C 312.597656 364.367188 319.613281 369.601562 327.484375 369.328125 L 495.191406 369.328125 C 501.570312 369.308594 507.390625 365.683594 510.257812 359.945312 L 523.710938 332.832031 L 383.769531 332.832031 L 383.769531 312.242188 Z M 359.757812 463.238281 C 378.457031 463.238281 393.617188 447.960938 393.617188 429.117188 C 393.617188 410.269531 378.457031 394.992188 359.757812 394.992188 C 341.0625 394.992188 325.902344 410.269531 325.902344 429.117188 C 325.902344 447.960938 341.0625 463.238281 359.757812 463.238281 Z M 478.265625 463.238281 C 496.960938 463.238281 512.121094 447.960938 512.121094 429.117188 C 512.121094 410.269531 496.960938 394.992188 478.265625 394.992188 C 459.566406 394.992188 444.40625 410.269531 444.40625 429.117188 C 444.40625 447.960938 459.566406 463.238281 478.265625 463.238281 Z M 478.265625 463.238281 "/></g></g></svg>