<svg xmlns="http://www.w3.org/2000/svg" xmlns:xlink="http://www.w3.org/1999/xlink" width="1080" zoomAndPan="magnify" viewBox="0 0 810 809.999993" height="1080" preserveAspectRatio="xMidYMid meet" version="1.2"><defs><clipPath id="e37d5d74b8"><path d="M 264.003906 120.4375 L 558.402344 120.4375 L 558.402344 526.5 L 264.003906 526.5 Z M 264.003906 120.4375 "/></clipPath><clipPath id="a84e45435d"><path d="M 119.472656 11.167969 L 690.222656 11.167969 L 690.222656 798.667969 L 119.472656 798.667969 Z M 119.472656 11.167969 "/></clipPath><clipPath id="01b02bab4b"><path d="M 180.476562 65.046875 L 641.929688 65.046875 L 641.929688 526.5 L 180.476562 526.5 Z M 180.476562 65.046875 "/></clipPath><clipPath id="c56a01efd5"><path d="M 411.203125 65.046875 C 283.777344 65.046875 180.476562 168.347656 180.476562 295.773438 C 180.476562 423.199219 283.777344 526.5 411.203125 526.5 C 538.628906 526.5 641.929688 423.199219 641.929688 295.773438 C 641.929688 168.347656 538.628906 65.046875 411.203125 65.046875 Z M 411.203125 65.046875 "/></clipPath><clipPath id="c65300d31d"><path d="M 341 81 L 579 81 L 579 218 L 341 218 Z M 341 81 "/></clipPath></defs><g id="2b8aae9c26"><g clip-rule="nonzero" clip-path="url(#e37d5d74b8)"><path style=" stroke:none;fill-rule:nonzero;fill:#ffffff;fill-opacity:1;" d="M 264.003906 120.4375 L 558.402344 120.4375 L 558.402344 526.386719 L 264.003906 526.386719 Z M 264.003906 120.4375 "/></g><g clip-rule="nonzero" clip-path="url(#a84e45435d)"><path style=" stroke:none;fill-rule:nonzero;fill:#38b6ff;fill-opacity:1;" d="M 359.195312 651.476562 C 348.03125 618.914062 327.59375 590.320312 300.402344 569.207031 L 233.554688 517.3125 C 164.914062 464.023438 123.230469 383.207031 119.613281 296.382812 C 119.613281 138.863281 247.308594 11.167969 404.832031 11.167969 C 562.351562 11.167969 690.046875 138.863281 690.046875 296.382812 C 686.429688 383.207031 644.746094 464.023438 576.105469 517.3125 L 509.257812 569.207031 C 482.066406 590.320312 461.628906 618.914062 450.464844 651.476562 L 442.605469 674.410156 C 437.066406 690.550781 421.894531 701.390625 404.832031 701.390625 C 387.769531 701.390625 372.59375 690.550781 367.054688 674.410156 Z M 404.832031 798.363281 C 341.820312 798.363281 290.746094 790.699219 290.746094 781.25 C 290.746094 771.800781 341.820312 764.136719 404.832031 764.136719 C 467.839844 764.136719 518.917969 771.800781 518.917969 781.25 C 518.917969 790.699219 467.839844 798.363281 404.832031 798.363281 Z M 540.894531 312.355469 L 572.667969 248.304688 C 577.542969 238.007812 576.972656 225.933594 571.148438 216.144531 C 565.214844 205.78125 554.316406 199.320312 542.445312 199.128906 L 311.027344 199.128906 L 301.238281 160.671875 C 299.199219 153.027344 292.203125 147.808594 284.355469 148.082031 L 250.585938 148.082031 C 241.261719 148.082031 233.699219 155.699219 233.699219 165.097656 C 233.699219 174.496094 241.261719 182.113281 250.585938 182.113281 L 271.519531 182.113281 L 318.117188 356.699219 C 320.15625 364.34375 327.152344 369.5625 335.003906 369.289062 L 502.261719 369.289062 C 508.621094 369.269531 514.425781 365.652344 517.289062 359.933594 L 530.703125 332.890625 L 391.136719 332.890625 L 391.136719 312.355469 Z M 367.191406 462.949219 C 385.839844 462.949219 400.957031 447.710938 400.957031 428.917969 C 400.957031 410.121094 385.839844 394.882812 367.191406 394.882812 C 348.542969 394.882812 333.425781 410.121094 333.425781 428.917969 C 333.425781 447.710938 348.542969 462.949219 367.191406 462.949219 Z M 485.382812 462.949219 C 504.027344 462.949219 519.144531 447.710938 519.144531 428.917969 C 519.144531 410.121094 504.027344 394.882812 485.382812 394.882812 C 466.730469 394.882812 451.613281 410.121094 451.613281 428.917969 C 451.613281 447.710938 466.730469 462.949219 485.382812 462.949219 Z M 485.382812 462.949219 "/></g><g clip-rule="nonzero" clip-path="url(#01b02bab4b)"><g clip-rule="nonzero" clip-path="url(#c56a01efd5)"><path style=" stroke:none;fill-rule:nonzero;fill:#38b6ff;fill-opacity:1;" d="M 180.476562 65.046875 L 641.929688 65.046875 L 641.929688 526.5 L 180.476562 526.5 Z M 180.476562 65.046875 "/></g></g><path style=" stroke:none;fill-rule:nonzero;fill:#ffffff;fill-opacity:1;" d="M 485.746094 230.441406 L 318.3125 133.769531 L 243.765625 176.8125 L 411.203125 273.480469 Z M 485.746094 230.441406 "/><path style=" stroke:none;fill-rule:nonzero;fill:#ffffff;fill-opacity:1;" d="M 228.703125 396.238281 L 399.796875 495.019531 L 399.796875 293.234375 L 228.703125 194.457031 Z M 228.703125 396.238281 "/><g clip-rule="nonzero" clip-path="url(#c65300d31d)"><path style=" stroke:none;fill-rule:nonzero;fill:#ffffff;fill-opacity:1;" d="M 578.636719 176.8125 L 411.203125 80.140625 L 341.128906 120.597656 L 508.152344 217.035156 L 507.746094 217.742188 Z M 578.636719 176.8125 "/></g><path style=" stroke:none;fill-rule:nonzero;fill:#ffffff;fill-opacity:1;" d="M 422.609375 495.019531 L 593.699219 396.238281 L 593.699219 194.457031 L 422.609375 293.234375 Z M 479.636719 359.308594 L 548.074219 319.796875 L 548.074219 365.417969 L 479.636719 404.933594 Z M 479.636719 359.308594 "/></g></svg>