<svg xmlns="http://www.w3.org/2000/svg" xmlns:xlink="http://www.w3.org/1999/xlink" width="480" zoomAndPan="magnify" viewBox="0 0 360 359.999987" height="480" preserveAspectRatio="xMidYMid meet" version="1.2"><defs><clipPath id="0212075da8"><path d="M 49.5 0 L 310.5 0 L 310.5 360 L 49.5 360 Z M 49.5 0 "/></clipPath><clipPath id="e76e6a8200"><path d="M 78.824219 28.972656 L 281.175781 28.972656 L 281.175781 231.324219 L 78.824219 231.324219 Z M 78.824219 28.972656 "/></clipPath><clipPath id="b9de15e8b6"><path d="M 180 28.972656 C 124.121094 28.972656 78.824219 74.269531 78.824219 130.148438 C 78.824219 186.027344 124.121094 231.324219 180 231.324219 C 235.878906 231.324219 281.175781 186.027344 281.175781 130.148438 C 281.175781 74.269531 235.878906 28.972656 180 28.972656 Z M 180 28.972656 "/></clipPath><clipPath id="934dfe4418"><path d="M 0.824219 0.972656 L 203.175781 0.972656 L 203.175781 203.324219 L 0.824219 203.324219 Z M 0.824219 0.972656 "/></clipPath><clipPath id="70569779a5"><path d="M 102 0.972656 C 46.121094 0.972656 0.824219 46.269531 0.824219 102.148438 C 0.824219 158.027344 46.121094 203.324219 102 203.324219 C 157.878906 203.324219 203.175781 158.027344 203.175781 102.148438 C 203.175781 46.269531 157.878906 0.972656 102 0.972656 Z M 102 0.972656 "/></clipPath><clipPath id="18db27519a"><rect x="0" width="204" y="0" height="204"/></clipPath><clipPath id="b5a8e93e79"><path d="M 93.414062 83 L 162 83 L 162 99 L 93.414062 99 Z M 93.414062 83 "/></clipPath><clipPath id="aed51e7cad"><path d="M 94 121 L 266.664062 121 L 266.664062 202.5 L 94 202.5 Z M 94 121 "/></clipPath><clipPath id="445525fe10"><path d="M 232 36 L 240 36 L 240 83 L 232 83 Z M 232 36 "/></clipPath><clipPath id="cc0b8494e5"><path d="M 204 36 L 212 36 L 212 83 L 204 83 Z M 204 36 "/></clipPath><clipPath id="b526be5c1a"><path d="M 177 36 L 185 36 L 185 83 L 177 83 Z M 177 36 "/></clipPath></defs><g id="83f9f648b3"><g clip-rule="nonzero" clip-path="url(#0212075da8)"><path style=" stroke:none;fill-rule:nonzero;fill:#4c585b;fill-opacity:1;" d="M 159.128906 292.824219 C 154.027344 277.933594 144.679688 264.855469 132.242188 255.203125 L 101.671875 231.46875 C 70.28125 207.101562 51.21875 170.140625 49.566406 130.433594 C 49.566406 58.398438 107.964844 0 180 0 C 252.039062 0 310.433594 58.398438 310.433594 130.433594 C 308.78125 170.140625 289.71875 207.101562 258.328125 231.46875 L 227.757812 255.203125 C 215.320312 264.855469 205.976562 277.933594 200.871094 292.824219 L 197.273438 303.3125 C 194.742188 310.695312 187.804688 315.652344 180 315.652344 C 172.195312 315.652344 165.257812 310.695312 162.726562 303.3125 Z M 180 360 C 151.183594 360 127.828125 356.496094 127.828125 352.175781 C 127.828125 347.851562 151.183594 344.347656 180 344.347656 C 208.816406 344.347656 232.175781 347.851562 232.175781 352.175781 C 232.175781 356.496094 208.816406 360 180 360 Z M 242.222656 137.738281 L 256.753906 108.449219 C 258.984375 103.738281 258.726562 98.214844 256.058594 93.742188 C 253.347656 89 248.363281 86.046875 242.933594 85.957031 L 137.101562 85.957031 L 132.625 68.371094 C 131.695312 64.875 128.492188 62.488281 124.90625 62.613281 L 109.460938 62.613281 C 105.195312 62.613281 101.738281 66.097656 101.738281 70.394531 C 101.738281 74.691406 105.195312 78.175781 109.460938 78.175781 L 119.035156 78.175781 L 140.34375 158.019531 C 141.277344 161.515625 144.476562 163.902344 148.066406 163.777344 L 224.558594 163.777344 C 227.464844 163.769531 230.121094 162.113281 231.429688 159.496094 L 237.566406 147.128906 L 173.738281 147.128906 L 173.738281 137.738281 Z M 162.785156 206.609375 C 171.316406 206.609375 178.230469 199.640625 178.230469 191.042969 C 178.230469 182.449219 171.316406 175.480469 162.785156 175.480469 C 154.257812 175.480469 147.34375 182.449219 147.34375 191.042969 C 147.34375 199.640625 154.257812 206.609375 162.785156 206.609375 Z M 216.839844 206.609375 C 225.363281 206.609375 232.277344 199.640625 232.277344 191.042969 C 232.277344 182.449219 225.363281 175.480469 216.839844 175.480469 C 208.308594 175.480469 201.394531 182.449219 201.394531 191.042969 C 201.394531 199.640625 208.308594 206.609375 216.839844 206.609375 Z M 216.839844 206.609375 "/></g><g clip-rule="nonzero" clip-path="url(#e76e6a8200)"><g clip-rule="nonzero" clip-path="url(#b9de15e8b6)"><g transform="matrix(1,0,0,1,78,28)"><g clip-path="url(#18db27519a)"><g clip-rule="nonzero" clip-path="url(#934dfe4418)"><g clip-rule="nonzero" clip-path="url(#70569779a5)"><path style=" stroke:none;fill-rule:nonzero;fill:#4c585b;fill-opacity:1;" d="M 0.824219 0.972656 L 203.175781 0.972656 L 203.175781 203.324219 L 0.824219 203.324219 Z M 0.824219 0.972656 "/></g></g></g></g></g></g><g clip-rule="nonzero" clip-path="url(#b5a8e93e79)"><path style=" stroke:none;fill-rule:nonzero;fill:#ffffff;fill-opacity:1;" d="M 94.21875 97.785156 C 94.558594 98.023438 94.933594 98.113281 95.34375 98.058594 L 160.105469 86.34375 C 160.308594 86.296875 160.496094 86.210938 160.667969 86.089844 C 160.839844 85.972656 160.984375 85.820312 161.097656 85.644531 C 161.210938 85.46875 161.285156 85.277344 161.324219 85.070312 C 161.363281 84.863281 161.363281 84.65625 161.320312 84.453125 C 161.277344 84.246094 161.199219 84.054688 161.082031 83.878906 C 160.964844 83.707031 160.820312 83.558594 160.644531 83.441406 C 160.472656 83.324219 160.28125 83.242188 160.078125 83.199219 C 159.871094 83.15625 159.664062 83.152344 159.457031 83.191406 L 94.851562 94.875 C 94.53125 94.933594 94.25 95.078125 94.015625 95.300781 C 93.78125 95.527344 93.632812 95.800781 93.5625 96.121094 C 93.492188 96.4375 93.519531 96.75 93.636719 97.050781 C 93.757812 97.355469 93.949219 97.601562 94.21875 97.785156 Z M 94.21875 97.785156 "/></g><path style=" stroke:none;fill-rule:nonzero;fill:#ffffff;fill-opacity:1;" d="M 114.792969 83.683594 L 136.855469 79.695312 L 137.5625 83.609375 L 115.503906 87.597656 Z M 114.792969 83.683594 "/><path style=" stroke:none;fill-rule:nonzero;fill:#ffffff;fill-opacity:1;" d="M 192.339844 131.847656 C 192.554688 131.730469 192.769531 131.617188 192.988281 131.503906 C 193.042969 131.472656 193.101562 131.441406 193.15625 131.414062 C 193.273438 131.351562 193.390625 131.296875 193.507812 131.238281 C 193.667969 131.160156 193.828125 131.078125 193.988281 131.003906 C 193.996094 131 194.003906 130.996094 194.011719 130.992188 C 197.972656 129.128906 202.144531 128.199219 206.519531 128.203125 C 206.816406 128.203125 207.113281 128.210938 207.40625 128.21875 C 207.492188 128.222656 207.578125 128.222656 207.664062 128.226562 C 207.921875 128.238281 208.175781 128.25 208.429688 128.265625 C 208.5625 128.273438 208.695312 128.285156 208.828125 128.296875 C 208.980469 128.308594 209.132812 128.320312 209.285156 128.335938 C 209.453125 128.351562 209.621094 128.367188 209.785156 128.386719 C 209.816406 128.390625 209.84375 128.390625 209.871094 128.394531 C 213.941406 128.855469 217.746094 130.117188 221.28125 132.179688 C 221.378906 132.238281 221.476562 132.292969 221.574219 132.351562 C 221.648438 132.394531 221.726562 132.4375 221.800781 132.484375 L 230.277344 118.324219 C 230.789062 117.464844 230.691406 116.421875 230.0625 116.042969 L 228.0625 114.847656 C 227.75 114.679688 227.425781 114.660156 227.089844 114.785156 C 226.597656 114.964844 226.21875 115.28125 225.957031 115.738281 L 221.847656 122.605469 C 221.074219 123.921875 219.96875 124.824219 218.523438 125.320312 C 217.828125 125.558594 217.109375 125.644531 216.378906 125.570312 C 215.644531 125.5 214.957031 125.277344 214.320312 124.90625 L 198.265625 115.296875 C 197.636719 114.910156 197.117188 114.410156 196.707031 113.796875 C 196.296875 113.1875 196.03125 112.515625 195.914062 111.789062 C 195.667969 110.28125 195.941406 108.878906 196.734375 107.578125 L 200.847656 100.710938 C 201.359375 99.851562 201.261719 98.808594 200.636719 98.429688 L 198.636719 97.234375 C 198.007812 96.859375 197.042969 97.265625 196.527344 98.125 L 182.226562 122.019531 C 184.308594 123.191406 186.207031 124.613281 187.917969 126.277344 C 189.632812 127.945312 191.105469 129.800781 192.339844 131.847656 Z M 192.339844 131.847656 "/><g clip-rule="nonzero" clip-path="url(#aed51e7cad)"><path style=" stroke:none;fill-rule:nonzero;fill:#ffffff;fill-opacity:1;" d="M 242.84375 155.007812 L 233.828125 155.007812 C 233.621094 155.007812 233.417969 154.972656 233.222656 154.898438 C 233.027344 154.828125 232.851562 154.722656 232.695312 154.589844 C 232.535156 154.453125 232.40625 154.296875 232.304688 154.113281 C 232.203125 153.933594 232.136719 153.738281 232.105469 153.535156 C 231.832031 151.8125 231.386719 150.132812 230.773438 148.496094 C 230.160156 146.863281 229.390625 145.304688 228.460938 143.828125 C 227.535156 142.347656 226.46875 140.980469 225.261719 139.714844 C 224.058594 138.453125 222.738281 137.324219 221.304688 136.328125 C 221.070312 136.164062 220.835938 136.007812 220.597656 135.851562 C 220.53125 135.808594 220.464844 135.765625 220.398438 135.726562 C 220.230469 135.617188 220.058594 135.511719 219.890625 135.410156 C 219.726562 135.3125 219.558594 135.214844 219.394531 135.117188 C 219.296875 135.0625 219.199219 135.007812 219.101562 134.953125 C 216.285156 133.386719 213.28125 132.382812 210.085938 131.941406 C 210.007812 131.929688 209.933594 131.917969 209.855469 131.910156 C 209.648438 131.882812 209.445312 131.859375 209.238281 131.835938 C 209.054688 131.816406 208.875 131.800781 208.691406 131.785156 C 208.585938 131.773438 208.480469 131.765625 208.375 131.757812 C 208.117188 131.742188 207.855469 131.726562 207.59375 131.714844 C 207.53125 131.710938 207.46875 131.710938 207.40625 131.707031 C 207.109375 131.699219 206.816406 131.691406 206.519531 131.691406 C 204.058594 131.6875 201.648438 132.03125 199.285156 132.714844 C 196.921875 133.402344 194.703125 134.40625 192.628906 135.726562 C 192.421875 135.859375 192.199219 135.945312 191.957031 135.980469 C 191.714844 136.019531 191.476562 136.003906 191.238281 135.941406 C 191.003906 135.878906 190.789062 135.769531 190.597656 135.617188 C 190.40625 135.460938 190.257812 135.277344 190.144531 135.058594 C 189.996094 134.777344 189.84375 134.5 189.6875 134.222656 C 189.664062 134.183594 189.640625 134.144531 189.617188 134.105469 C 189.472656 133.855469 189.324219 133.605469 189.171875 133.359375 L 189.15625 133.332031 C 187.925781 131.378906 186.449219 129.632812 184.726562 128.097656 C 183.003906 126.5625 181.101562 125.292969 179.023438 124.292969 C 178.980469 124.273438 178.941406 124.25 178.902344 124.226562 C 177.167969 123.414062 175.359375 122.816406 173.484375 122.429688 C 171.605469 122.046875 169.707031 121.882812 167.792969 121.945312 C 165.878906 122.007812 163.996094 122.292969 162.148438 122.800781 C 160.300781 123.308594 158.535156 124.027344 156.855469 124.949219 L 156.847656 124.953125 C 156.050781 125.394531 155.277344 125.882812 154.53125 126.410156 C 154.496094 126.4375 154.457031 126.464844 154.421875 126.488281 C 154.230469 126.628906 154.039062 126.765625 153.851562 126.910156 C 153.78125 126.964844 153.707031 127.023438 153.636719 127.078125 C 153.488281 127.195312 153.339844 127.3125 153.195312 127.429688 C 153.109375 127.503906 153.019531 127.574219 152.933594 127.644531 C 152.8125 127.75 152.691406 127.855469 152.570312 127.960938 C 152.46875 128.050781 152.367188 128.136719 152.269531 128.226562 C 152.203125 128.285156 152.140625 128.347656 152.078125 128.40625 C 151.769531 128.691406 151.464844 128.984375 151.171875 129.285156 L 151.160156 129.296875 C 150.992188 129.472656 150.824219 129.648438 150.664062 129.828125 L 150.628906 129.863281 C 148.972656 131.683594 147.621094 133.710938 146.574219 135.941406 C 146.527344 136.042969 146.480469 136.144531 146.4375 136.246094 C 146.375 136.382812 146.316406 136.519531 146.257812 136.65625 C 146.191406 136.804688 146.128906 136.953125 146.070312 137.105469 C 146.023438 137.214844 145.980469 137.320312 145.9375 137.429688 C 145.839844 137.683594 145.746094 137.941406 145.65625 138.199219 C 145.648438 138.210938 145.644531 138.222656 145.640625 138.238281 C 145.570312 138.445312 145.460938 138.632812 145.320312 138.796875 C 145.175781 138.964844 145.007812 139.097656 144.8125 139.203125 C 144.621094 139.304688 144.414062 139.371094 144.195312 139.394531 C 143.980469 139.421875 143.765625 139.40625 143.550781 139.351562 C 141.980469 138.941406 140.386719 138.738281 138.761719 138.738281 C 136.621094 138.730469 134.539062 139.078125 132.515625 139.789062 C 130.496094 140.496094 128.652344 141.523438 126.984375 142.867188 C 125.34375 144.183594 123.960938 145.730469 122.835938 147.503906 C 121.710938 149.28125 120.902344 151.1875 120.414062 153.234375 C 120.402344 153.277344 120.390625 153.324219 120.378906 153.367188 C 120.273438 153.695312 120.085938 153.964844 119.820312 154.183594 C 119.554688 154.402344 119.25 154.527344 118.90625 154.566406 C 118.707031 154.585938 118.511719 154.613281 118.316406 154.640625 L 118.207031 154.65625 C 116.703125 154.882812 115.25 155.296875 113.851562 155.902344 C 113.804688 155.921875 113.757812 155.9375 113.710938 155.953125 C 112.925781 156.296875 112.171875 156.695312 111.441406 157.152344 C 110.714844 157.605469 110.023438 158.113281 109.371094 158.667969 C 108.714844 159.222656 108.105469 159.820312 107.535156 160.464844 C 106.96875 161.109375 106.453125 161.789062 105.984375 162.507812 C 105.515625 163.226562 105.101562 163.976562 104.738281 164.757812 C 104.378906 165.535156 104.078125 166.335938 103.835938 167.160156 C 103.589844 167.980469 103.40625 168.816406 103.285156 169.667969 C 103.164062 170.515625 103.101562 171.371094 103.101562 172.226562 C 103.105469 173.089844 103.164062 173.945312 103.289062 174.796875 C 103.339844 175.164062 103.285156 175.511719 103.113281 175.839844 C 102.945312 176.171875 102.695312 176.421875 102.367188 176.589844 C 101.691406 176.941406 101.046875 177.347656 100.4375 177.804688 C 99.828125 178.265625 99.261719 178.769531 98.738281 179.320312 C 98.214844 179.875 97.738281 180.46875 97.3125 181.097656 C 96.886719 181.730469 96.515625 182.394531 96.199219 183.089844 C 95.886719 183.78125 95.628906 184.496094 95.433594 185.234375 C 95.238281 185.96875 95.105469 186.71875 95.03125 187.476562 C 94.960938 188.234375 94.953125 188.996094 95.007812 189.753906 C 95.0625 190.515625 95.183594 191.265625 95.363281 192.007812 C 95.542969 192.746094 95.785156 193.46875 96.085938 194.167969 C 96.386719 194.867188 96.742188 195.539062 97.15625 196.179688 C 97.566406 196.820312 98.03125 197.421875 98.542969 197.984375 C 99.054688 198.550781 99.613281 199.066406 100.210938 199.539062 C 100.8125 200.007812 101.445312 200.425781 102.113281 200.792969 C 102.785156 201.15625 103.480469 201.464844 104.199219 201.710938 C 104.917969 201.960938 105.65625 202.148438 106.40625 202.277344 C 107.160156 202.402344 107.914062 202.464844 108.675781 202.464844 L 242.84375 202.464844 C 255.929688 202.464844 266.574219 191.820312 266.574219 178.734375 C 266.574219 165.648438 255.925781 155.007812 242.84375 155.007812 Z M 150.570312 157.996094 C 149.089844 158.519531 147.695312 159.21875 146.390625 160.097656 C 145.085938 160.972656 143.910156 161.996094 142.863281 163.164062 C 141.8125 164.335938 140.925781 165.617188 140.199219 167.011719 C 139.472656 168.40625 138.929688 169.867188 138.570312 171.394531 C 138.488281 171.753906 138.308594 172.054688 138.03125 172.300781 C 137.753906 172.546875 137.433594 172.6875 137.066406 172.726562 C 136.1875 172.824219 135.320312 172.988281 134.46875 173.214844 C 133.613281 173.441406 132.78125 173.730469 131.96875 174.082031 C 131.160156 174.433594 130.378906 174.84375 129.628906 175.3125 C 128.878906 175.777344 128.167969 176.300781 127.496094 176.871094 C 126.824219 177.445312 126.195312 178.066406 125.617188 178.734375 C 125.039062 179.398438 124.511719 180.105469 124.035156 180.851562 C 123.5625 181.597656 123.144531 182.375 122.785156 183.179688 C 122.425781 183.988281 122.128906 184.816406 121.894531 185.667969 C 121.832031 185.890625 121.730469 186.09375 121.589844 186.277344 C 121.445312 186.460938 121.277344 186.609375 121.074219 186.722656 C 120.875 186.835938 120.660156 186.910156 120.429688 186.9375 C 120.199219 186.964844 119.972656 186.949219 119.75 186.890625 C 119.527344 186.828125 119.324219 186.726562 119.140625 186.585938 C 118.960938 186.441406 118.8125 186.269531 118.695312 186.070312 C 118.582031 185.867188 118.511719 185.652344 118.480469 185.425781 C 118.453125 185.195312 118.46875 184.96875 118.53125 184.746094 C 118.796875 183.773438 119.132812 182.828125 119.535156 181.90625 C 119.9375 180.980469 120.402344 180.09375 120.933594 179.234375 C 121.460938 178.378906 122.046875 177.5625 122.691406 176.789062 C 123.335938 176.015625 124.03125 175.292969 124.777344 174.617188 C 125.527344 173.941406 126.316406 173.324219 127.152344 172.761719 C 127.988281 172.199219 128.855469 171.695312 129.761719 171.257812 C 130.667969 170.820312 131.601562 170.445312 132.558594 170.140625 C 133.519531 169.832031 134.496094 169.59375 135.488281 169.425781 C 135.988281 167.738281 136.675781 166.132812 137.554688 164.609375 C 138.433594 163.085938 139.476562 161.683594 140.683594 160.40625 C 141.890625 159.128906 143.230469 158.007812 144.703125 157.046875 C 146.175781 156.082031 147.738281 155.304688 149.394531 154.710938 C 149.613281 154.632812 149.835938 154.597656 150.066406 154.609375 C 150.296875 154.621094 150.519531 154.675781 150.726562 154.777344 C 150.9375 154.875 151.117188 155.011719 151.273438 155.179688 C 151.429688 155.351562 151.546875 155.546875 151.625 155.765625 C 151.703125 155.984375 151.734375 156.207031 151.722656 156.4375 C 151.710938 156.667969 151.65625 156.890625 151.558594 157.097656 C 151.460938 157.308594 151.324219 157.488281 151.152344 157.644531 C 150.980469 157.800781 150.785156 157.917969 150.570312 157.996094 Z M 215.25 197.957031 C 215.15625 197.972656 215.066406 197.980469 214.976562 197.980469 C 214.765625 197.980469 214.566406 197.941406 214.371094 197.871094 C 214.175781 197.800781 214 197.695312 213.84375 197.558594 C 213.683594 197.425781 213.554688 197.265625 213.453125 197.085938 C 213.355469 196.90625 213.285156 196.710938 213.253906 196.507812 C 213.164062 195.941406 213.042969 195.386719 212.882812 194.839844 C 212.722656 194.292969 212.53125 193.753906 212.308594 193.230469 C 212.082031 192.707031 211.828125 192.199219 211.539062 191.703125 C 211.25 191.210938 210.933594 190.738281 210.585938 190.285156 C 210.242188 189.832031 209.867188 189.402344 209.46875 188.996094 C 209.070312 188.589844 208.644531 188.207031 208.199219 187.851562 C 207.753906 187.496094 207.285156 187.171875 206.796875 186.875 C 206.3125 186.578125 205.808594 186.3125 205.289062 186.078125 C 204.765625 185.84375 204.234375 185.640625 203.691406 185.472656 C 203.144531 185.304688 202.589844 185.167969 202.03125 185.070312 C 201.46875 184.96875 200.902344 184.90625 200.332031 184.875 C 199.761719 184.84375 199.191406 184.847656 198.625 184.890625 C 198.054688 184.929688 197.492188 185.003906 196.929688 185.117188 C 196.371094 185.226562 195.820312 185.371094 195.277344 185.550781 C 194.738281 185.726562 194.207031 185.941406 193.691406 186.183594 C 193.175781 186.425781 192.679688 186.703125 192.195312 187.007812 C 191.988281 187.140625 191.765625 187.222656 191.523438 187.261719 C 191.28125 187.296875 191.042969 187.285156 190.804688 187.222656 C 190.570312 187.15625 190.355469 187.050781 190.167969 186.894531 C 189.976562 186.742188 189.824219 186.558594 189.710938 186.339844 C 189.132812 185.21875 188.402344 184.207031 187.527344 183.296875 C 186.648438 182.390625 185.660156 181.628906 184.558594 181.011719 C 183.460938 180.394531 182.292969 179.949219 181.0625 179.671875 C 179.832031 179.398438 178.585938 179.304688 177.328125 179.394531 C 176.070312 179.484375 174.851562 179.753906 173.671875 180.203125 C 172.492188 180.648438 171.402344 181.253906 170.398438 182.023438 C 169.398438 182.789062 168.527344 183.683594 167.789062 184.707031 C 167.050781 185.730469 166.472656 186.835938 166.058594 188.027344 C 165.980469 188.246094 165.867188 188.441406 165.714844 188.613281 C 165.558594 188.789062 165.378906 188.925781 165.171875 189.027344 C 164.960938 189.125 164.742188 189.183594 164.511719 189.195312 C 164.28125 189.210938 164.054688 189.179688 163.835938 189.101562 C 163.621094 189.027344 163.421875 188.914062 163.25 188.757812 C 163.078125 188.605469 162.941406 188.425781 162.839844 188.214844 C 162.738281 188.007812 162.683594 187.789062 162.667969 187.558594 C 162.65625 187.328125 162.6875 187.101562 162.761719 186.882812 C 163.039062 186.085938 163.378906 185.316406 163.773438 184.570312 C 164.171875 183.828125 164.621094 183.117188 165.128906 182.441406 C 165.632812 181.765625 166.1875 181.132812 166.792969 180.546875 C 167.394531 179.957031 168.039062 179.417969 168.726562 178.925781 C 169.414062 178.4375 170.132812 178 170.886719 177.621094 C 171.640625 177.246094 172.417969 176.925781 173.222656 176.667969 C 174.027344 176.40625 174.84375 176.210938 175.675781 176.078125 C 176.507812 175.949219 177.347656 175.878906 178.191406 175.875 L 181.046875 167.820312 C 181.207031 167.367188 181.503906 167.035156 181.9375 166.828125 L 182.128906 166.738281 L 182.039062 166.546875 C 181.832031 166.113281 181.808594 165.667969 181.96875 165.214844 L 184.28125 158.683594 C 184.476562 158.132812 184.746094 157.621094 185.085938 157.148438 C 185.429688 156.675781 185.828125 156.261719 186.289062 155.902344 C 186.75 155.546875 187.25 155.257812 187.792969 155.042969 C 188.335938 154.828125 188.898438 154.695312 189.476562 154.640625 L 190.496094 154.546875 C 191.003906 154.5 191.460938 154.320312 191.863281 154.007812 C 192.265625 153.691406 192.554688 153.296875 192.722656 152.816406 L 193.847656 149.648438 C 193.773438 149.527344 193.707031 149.40625 193.644531 149.28125 C 193.476562 148.925781 193.363281 148.558594 193.304688 148.171875 C 193.246094 147.789062 193.246094 147.402344 193.300781 147.015625 C 193.359375 146.628906 193.46875 146.257812 193.632812 145.90625 C 193.800781 145.554688 194.011719 145.230469 194.273438 144.941406 C 194.535156 144.652344 194.832031 144.40625 195.167969 144.203125 C 195.5 144.003906 195.855469 143.855469 196.234375 143.757812 C 196.613281 143.664062 196.996094 143.625 197.386719 143.640625 C 197.777344 143.660156 198.15625 143.734375 198.523438 143.863281 L 205.21875 146.234375 C 205.585938 146.363281 205.929688 146.546875 206.242188 146.777344 C 206.554688 147.007812 206.832031 147.28125 207.0625 147.59375 C 207.296875 147.90625 207.480469 148.246094 207.613281 148.613281 C 207.746094 148.980469 207.820312 149.355469 207.84375 149.746094 C 207.863281 150.136719 207.824219 150.519531 207.730469 150.898438 C 207.636719 151.277344 207.492188 151.632812 207.292969 151.96875 C 207.09375 152.304688 206.847656 152.605469 206.5625 152.867188 C 206.273438 153.128906 205.953125 153.34375 205.601562 153.511719 C 205.472656 153.574219 205.34375 153.625 205.214844 153.671875 L 204.089844 156.839844 C 203.921875 157.320312 203.894531 157.8125 204.011719 158.308594 C 204.125 158.804688 204.367188 159.230469 204.730469 159.589844 L 205.464844 160.300781 C 205.882812 160.710938 206.234375 161.167969 206.519531 161.675781 C 206.804688 162.183594 207.015625 162.722656 207.148438 163.289062 C 207.28125 163.859375 207.328125 164.433594 207.296875 165.015625 C 207.265625 165.597656 207.152344 166.164062 206.960938 166.714844 L 204.644531 173.246094 C 204.484375 173.699219 204.1875 174.03125 203.753906 174.238281 L 203.5625 174.328125 L 203.652344 174.519531 C 203.855469 174.945312 203.882812 175.378906 203.730469 175.828125 L 201.816406 181.511719 C 202.738281 181.628906 203.644531 181.820312 204.535156 182.085938 C 205.425781 182.351562 206.289062 182.683594 207.125 183.089844 C 207.964844 183.492188 208.761719 183.960938 209.523438 184.492188 C 210.285156 185.023438 211 185.613281 211.664062 186.261719 C 212.332031 186.90625 212.941406 187.605469 213.496094 188.351562 C 214.050781 189.09375 214.542969 189.878906 214.96875 190.703125 C 215.398438 191.53125 215.757812 192.382812 216.046875 193.265625 C 216.335938 194.148438 216.554688 195.046875 216.699219 195.964844 C 216.734375 196.195312 216.726562 196.421875 216.671875 196.644531 C 216.617188 196.871094 216.523438 197.074219 216.386719 197.261719 C 216.25 197.449219 216.085938 197.601562 215.886719 197.722656 C 215.691406 197.84375 215.476562 197.921875 215.25 197.957031 Z M 256.234375 177.433594 C 256.042969 177.566406 255.835938 177.652344 255.609375 177.699219 C 255.382812 177.746094 255.15625 177.746094 254.929688 177.703125 C 254.699219 177.660156 254.492188 177.574219 254.296875 177.445312 C 254.105469 177.316406 253.945312 177.160156 253.8125 176.96875 C 252.726562 175.355469 251.464844 173.898438 250.019531 172.597656 C 248.574219 171.300781 246.996094 170.191406 245.28125 169.28125 C 243.5625 168.367188 241.765625 167.675781 239.878906 167.207031 C 237.992188 166.738281 236.078125 166.503906 234.136719 166.503906 L 225.121094 166.503906 C 224.914062 166.503906 224.710938 166.46875 224.515625 166.394531 C 224.320312 166.324219 224.144531 166.21875 223.988281 166.085938 C 223.828125 165.949219 223.699219 165.792969 223.597656 165.609375 C 223.496094 165.429688 223.429688 165.234375 223.398438 165.03125 C 223.105469 163.183594 222.621094 161.390625 221.9375 159.648438 C 221.257812 157.90625 220.398438 156.257812 219.359375 154.703125 C 218.320312 153.148438 217.128906 151.722656 215.78125 150.425781 C 214.433594 149.128906 212.960938 147.992188 211.367188 147.011719 C 211.171875 146.890625 211.007812 146.738281 210.871094 146.550781 C 210.738281 146.363281 210.644531 146.15625 210.589844 145.933594 C 210.535156 145.707031 210.527344 145.480469 210.566406 145.253906 C 210.601562 145.027344 210.679688 144.8125 210.800781 144.617188 C 210.921875 144.421875 211.078125 144.253906 211.261719 144.121094 C 211.449219 143.984375 211.65625 143.890625 211.878906 143.835938 C 212.105469 143.78125 212.332031 143.773438 212.558594 143.808594 C 212.785156 143.84375 213 143.921875 213.195312 144.042969 C 214.898438 145.085938 216.476562 146.292969 217.929688 147.65625 C 219.386719 149.023438 220.691406 150.519531 221.839844 152.152344 C 222.988281 153.78125 223.964844 155.511719 224.761719 157.34375 C 225.558594 159.171875 226.160156 161.0625 226.574219 163.015625 L 234.136719 163.015625 C 236.363281 163.015625 238.558594 163.285156 240.722656 163.824219 C 242.882812 164.363281 244.949219 165.15625 246.917969 166.199219 C 248.882812 167.246094 250.695312 168.515625 252.351562 170.007812 C 254.007812 171.5 255.457031 173.167969 256.703125 175.015625 C 256.832031 175.207031 256.921875 175.417969 256.96875 175.644531 C 257.011719 175.867188 257.015625 176.097656 256.96875 176.324219 C 256.925781 176.550781 256.839844 176.757812 256.714844 176.953125 C 256.585938 177.144531 256.425781 177.304688 256.234375 177.433594 Z M 256.234375 177.433594 "/></g><path style=" stroke:none;fill-rule:nonzero;fill:#ffffff;fill-opacity:1;" d="M 197.054688 148.011719 L 200.402344 149.199219 L 203.75 150.382812 C 203.867188 150.425781 203.984375 150.417969 204.097656 150.363281 C 204.210938 150.3125 204.289062 150.222656 204.332031 150.105469 C 204.375 149.988281 204.367188 149.871094 204.3125 149.757812 C 204.261719 149.640625 204.171875 149.5625 204.054688 149.523438 L 197.359375 147.152344 C 197.238281 147.105469 197.121094 147.113281 197.007812 147.167969 C 196.824219 147.257812 196.738281 147.402344 196.75 147.605469 C 196.761719 147.808594 196.859375 147.945312 197.054688 148.011719 Z M 197.054688 148.011719 "/><path style=" stroke:none;fill-rule:nonzero;fill:#ffffff;fill-opacity:1;" d="M 200.199219 175.382812 L 199.664062 174.257812 C 199.566406 174.046875 199.507812 173.828125 199.496094 173.597656 C 199.484375 173.367188 199.515625 173.140625 199.59375 172.925781 C 199.671875 172.707031 199.789062 172.511719 199.941406 172.339844 C 200.097656 172.167969 200.277344 172.03125 200.488281 171.933594 L 201.597656 171.402344 L 203.671875 165.550781 C 203.839844 165.070312 203.867188 164.582031 203.753906 164.082031 C 203.636719 163.585938 203.394531 163.160156 203.03125 162.800781 L 202.296875 162.089844 C 201.882812 161.679688 201.53125 161.222656 201.242188 160.714844 C 200.957031 160.207031 200.75 159.667969 200.617188 159.101562 C 200.484375 158.53125 200.433594 157.957031 200.464844 157.375 C 200.496094 156.792969 200.609375 156.226562 200.804688 155.675781 L 201.632812 153.335938 L 200.371094 152.886719 L 196.839844 151.636719 L 196.011719 153.980469 C 195.816406 154.527344 195.546875 155.039062 195.207031 155.511719 C 194.863281 155.984375 194.464844 156.398438 194.003906 156.757812 C 193.542969 157.117188 193.042969 157.402344 192.5 157.617188 C 191.957031 157.832031 191.394531 157.964844 190.816406 158.019531 L 189.796875 158.113281 C 189.289062 158.160156 188.832031 158.34375 188.429688 158.65625 C 188.027344 158.96875 187.738281 159.367188 187.570312 159.847656 L 185.496094 165.699219 L 186.027344 166.808594 C 186.125 167.019531 186.183594 167.238281 186.195312 167.46875 C 186.207031 167.699219 186.171875 167.925781 186.097656 168.144531 C 186.019531 168.363281 185.902344 168.554688 185.75 168.726562 C 185.59375 168.898438 185.410156 169.035156 185.203125 169.136719 L 184.089844 169.664062 L 181.757812 176.253906 C 183.832031 176.703125 185.746094 177.527344 187.5 178.726562 C 189.253906 179.925781 190.71875 181.410156 191.890625 183.179688 C 193.871094 182.191406 195.960938 181.609375 198.164062 181.429688 Z M 200.199219 175.382812 "/><path style=" stroke:none;fill-rule:nonzero;fill:#ffffff;fill-opacity:1;" d="M 118.117188 149.050781 C 118.539062 148.035156 119.03125 147.054688 119.597656 146.113281 C 120.160156 145.167969 120.792969 144.273438 121.488281 143.421875 C 122.183594 142.574219 122.941406 141.777344 123.753906 141.039062 C 124.570312 140.304688 125.433594 139.628906 126.347656 139.019531 C 127.261719 138.40625 128.214844 137.867188 129.207031 137.398438 C 130.199219 136.925781 131.222656 136.53125 132.273438 136.214844 C 133.324219 135.894531 134.394531 135.652344 135.480469 135.492188 C 136.570312 135.332031 137.664062 135.25 138.761719 135.25 C 139.015625 135.25 139.269531 135.257812 139.523438 135.265625 C 140.28125 135.292969 141.035156 135.355469 141.789062 135.457031 C 141.816406 135.460938 141.847656 135.464844 141.875 135.46875 C 141.921875 135.472656 141.972656 135.484375 142.019531 135.488281 C 142.3125 135.53125 142.605469 135.582031 142.898438 135.636719 C 144.582031 131.550781 147.097656 128.066406 150.449219 125.183594 L 150.546875 125.097656 C 150.722656 124.949219 150.898438 124.804688 151.074219 124.660156 C 151.113281 124.628906 151.152344 124.597656 151.1875 124.570312 C 151.320312 124.460938 151.457031 124.355469 151.59375 124.25 C 151.664062 124.195312 151.738281 124.140625 151.808594 124.082031 C 151.949219 123.976562 152.09375 123.871094 152.234375 123.765625 C 152.335938 123.691406 152.441406 123.621094 152.542969 123.546875 C 152.625 123.492188 152.703125 123.433594 152.78125 123.378906 C 153.148438 123.125 153.519531 122.882812 153.898438 122.648438 L 154 122.582031 C 156.101562 121.285156 158.335938 120.285156 160.703125 119.582031 L 159.832031 93.304688 C 159.824219 93.09375 159.855469 92.890625 159.921875 92.691406 C 159.988281 92.492188 160.085938 92.3125 160.21875 92.148438 C 160.351562 91.988281 160.507812 91.851562 160.6875 91.746094 C 160.867188 91.640625 161.058594 91.566406 161.265625 91.53125 L 162.558594 91.296875 L 162.234375 89.503906 L 160.796875 89.761719 C 160.75 89.773438 160.699219 89.785156 160.652344 89.792969 L 96.042969 101.480469 C 95.988281 101.488281 95.929688 101.496094 95.875 101.503906 L 94.457031 101.761719 L 94.78125 103.554688 L 96.25 103.289062 C 96.457031 103.25 96.660156 103.25 96.867188 103.289062 C 97.074219 103.324219 97.265625 103.394531 97.445312 103.503906 C 97.628906 103.609375 97.78125 103.742188 97.914062 103.90625 C 98.046875 104.070312 98.144531 104.25 98.210938 104.449219 L 114.234375 152.027344 C 115.246094 151.695312 116.277344 151.441406 117.328125 151.265625 C 117.554688 150.511719 117.816406 149.773438 118.117188 149.050781 Z M 118.117188 149.050781 "/><g clip-rule="nonzero" clip-path="url(#445525fe10)"><path style=" stroke:none;fill-rule:nonzero;fill:#ffffff;fill-opacity:1;" d="M 234.375 82.226562 C 234.140625 82.226562 233.917969 82.179688 233.707031 82.09375 C 233.492188 82.003906 233.304688 81.878906 233.140625 81.714844 C 232.976562 81.550781 232.851562 81.363281 232.761719 81.148438 C 232.671875 80.9375 232.628906 80.714844 232.628906 80.480469 C 232.628906 76.515625 233.648438 74.429688 234.550781 72.589844 C 235.390625 70.875 236.117188 69.394531 236.117188 66.234375 C 236.117188 63.078125 235.390625 61.59375 234.550781 59.878906 C 233.648438 58.039062 232.628906 55.953125 232.628906 51.988281 C 232.628906 48.019531 233.648438 45.9375 234.550781 44.097656 C 235.390625 42.382812 236.117188 40.898438 236.117188 37.742188 C 236.117188 37.511719 236.160156 37.289062 236.25 37.074219 C 236.339844 36.859375 236.464844 36.671875 236.628906 36.507812 C 236.792969 36.34375 236.980469 36.21875 237.195312 36.128906 C 237.40625 36.042969 237.628906 35.996094 237.859375 35.996094 C 238.09375 35.996094 238.316406 36.042969 238.527344 36.128906 C 238.742188 36.21875 238.929688 36.34375 239.09375 36.507812 C 239.257812 36.671875 239.382812 36.859375 239.472656 37.074219 C 239.5625 37.289062 239.605469 37.511719 239.605469 37.742188 C 239.605469 41.707031 238.585938 43.792969 237.683594 45.632812 C 236.84375 47.347656 236.117188 48.832031 236.117188 51.988281 C 236.117188 55.144531 236.84375 56.628906 237.683594 58.34375 C 238.585938 60.183594 239.605469 62.269531 239.605469 66.234375 C 239.605469 70.199219 238.585938 72.285156 237.683594 74.125 C 236.84375 75.84375 236.117188 77.324219 236.117188 80.480469 C 236.117188 80.714844 236.074219 80.9375 235.984375 81.148438 C 235.894531 81.363281 235.769531 81.550781 235.605469 81.714844 C 235.441406 81.878906 235.253906 82.003906 235.039062 82.09375 C 234.828125 82.179688 234.605469 82.226562 234.375 82.226562 Z M 234.375 82.226562 "/></g><g clip-rule="nonzero" clip-path="url(#cc0b8494e5)"><path style=" stroke:none;fill-rule:nonzero;fill:#ffffff;fill-opacity:1;" d="M 206.613281 82.226562 C 206.382812 82.226562 206.160156 82.179688 205.945312 82.09375 C 205.730469 82.003906 205.542969 81.878906 205.378906 81.714844 C 205.214844 81.550781 205.089844 81.363281 205.003906 81.148438 C 204.914062 80.9375 204.871094 80.714844 204.871094 80.480469 C 204.871094 76.515625 205.890625 74.429688 206.789062 72.589844 C 207.632812 70.875 208.355469 69.394531 208.355469 66.234375 C 208.355469 63.078125 207.632812 61.59375 206.789062 59.878906 C 205.890625 58.039062 204.871094 55.953125 204.871094 51.988281 C 204.871094 48.019531 205.890625 45.9375 206.789062 44.097656 C 207.632812 42.382812 208.355469 40.898438 208.355469 37.742188 C 208.355469 37.511719 208.402344 37.289062 208.488281 37.074219 C 208.578125 36.859375 208.703125 36.671875 208.867188 36.507812 C 209.03125 36.34375 209.21875 36.21875 209.433594 36.128906 C 209.648438 36.042969 209.871094 35.996094 210.101562 35.996094 C 210.332031 35.996094 210.554688 36.042969 210.769531 36.128906 C 210.980469 36.21875 211.171875 36.34375 211.335938 36.507812 C 211.496094 36.671875 211.625 36.859375 211.710938 37.074219 C 211.800781 37.289062 211.84375 37.511719 211.84375 37.742188 C 211.84375 41.707031 210.824219 43.792969 209.921875 45.632812 C 209.082031 47.347656 208.355469 48.832031 208.355469 51.988281 C 208.355469 55.144531 209.082031 56.628906 209.921875 58.34375 C 210.824219 60.183594 211.84375 62.269531 211.84375 66.234375 C 211.84375 70.199219 210.824219 72.285156 209.921875 74.125 C 209.082031 75.84375 208.355469 77.324219 208.355469 80.480469 C 208.355469 80.714844 208.3125 80.9375 208.222656 81.148438 C 208.136719 81.363281 208.011719 81.550781 207.847656 81.714844 C 207.683594 81.878906 207.496094 82.003906 207.28125 82.09375 C 207.066406 82.179688 206.84375 82.226562 206.613281 82.226562 Z M 206.613281 82.226562 "/></g><g clip-rule="nonzero" clip-path="url(#b526be5c1a)"><path style=" stroke:none;fill-rule:nonzero;fill:#ffffff;fill-opacity:1;" d="M 178.851562 82.226562 C 178.621094 82.226562 178.398438 82.179688 178.1875 82.09375 C 177.972656 82.003906 177.785156 81.878906 177.621094 81.714844 C 177.457031 81.550781 177.332031 81.363281 177.242188 81.148438 C 177.152344 80.9375 177.109375 80.714844 177.109375 80.480469 C 177.109375 76.515625 178.128906 74.429688 179.03125 72.589844 C 179.871094 70.875 180.597656 69.394531 180.597656 66.234375 C 180.597656 63.078125 179.871094 61.59375 179.03125 59.878906 C 178.128906 58.039062 177.109375 55.953125 177.109375 51.988281 C 177.109375 48.019531 178.128906 45.9375 179.03125 44.097656 C 179.871094 42.382812 180.597656 40.898438 180.597656 37.742188 C 180.597656 37.511719 180.640625 37.289062 180.730469 37.074219 C 180.820312 36.859375 180.945312 36.671875 181.109375 36.507812 C 181.273438 36.34375 181.460938 36.21875 181.675781 36.128906 C 181.886719 36.042969 182.109375 35.996094 182.339844 35.996094 C 182.574219 35.996094 182.796875 36.042969 183.007812 36.128906 C 183.222656 36.21875 183.410156 36.34375 183.574219 36.507812 C 183.738281 36.671875 183.863281 36.859375 183.953125 37.074219 C 184.039062 37.289062 184.085938 37.511719 184.085938 37.742188 C 184.085938 41.707031 183.0625 43.792969 182.164062 45.632812 C 181.324219 47.347656 180.597656 48.832031 180.597656 51.988281 C 180.597656 55.144531 181.324219 56.628906 182.164062 58.34375 C 183.0625 60.183594 184.085938 62.269531 184.085938 66.234375 C 184.085938 70.199219 183.0625 72.285156 182.164062 74.125 C 181.324219 75.84375 180.597656 77.324219 180.597656 80.480469 C 180.597656 80.714844 180.554688 80.9375 180.464844 81.148438 C 180.375 81.363281 180.25 81.550781 180.085938 81.714844 C 179.921875 81.878906 179.734375 82.003906 179.519531 82.09375 C 179.308594 82.179688 179.085938 82.226562 178.851562 82.226562 Z M 178.851562 82.226562 "/></g></g></svg>