<svg xmlns="http://www.w3.org/2000/svg" xmlns:xlink="http://www.w3.org/1999/xlink" width="480" zoomAndPan="magnify" viewBox="0 0 360 359.999987" height="480" preserveAspectRatio="xMidYMid meet" version="1.2"><defs><clipPath id="804415237c"><path d="M 49.5 0 L 310.5 0 L 310.5 360 L 49.5 360 Z M 49.5 0 "/></clipPath><clipPath id="1b9b665077"><path d="M 78.824219 28.972656 L 281.175781 28.972656 L 281.175781 231.324219 L 78.824219 231.324219 Z M 78.824219 28.972656 "/></clipPath><clipPath id="cd987f2d8f"><path d="M 180 28.972656 C 124.121094 28.972656 78.824219 74.269531 78.824219 130.148438 C 78.824219 186.027344 124.121094 231.324219 180 231.324219 C 235.878906 231.324219 281.175781 186.027344 281.175781 130.148438 C 281.175781 74.269531 235.878906 28.972656 180 28.972656 Z M 180 28.972656 "/></clipPath><clipPath id="3c8f681ad6"><path d="M 0.824219 0.972656 L 203.175781 0.972656 L 203.175781 203.324219 L 0.824219 203.324219 Z M 0.824219 0.972656 "/></clipPath><clipPath id="94e8995c64"><path d="M 102 0.972656 C 46.121094 0.972656 0.824219 46.269531 0.824219 102.148438 C 0.824219 158.027344 46.121094 203.324219 102 203.324219 C 157.878906 203.324219 203.175781 158.027344 203.175781 102.148438 C 203.175781 46.269531 157.878906 0.972656 102 0.972656 Z M 102 0.972656 "/></clipPath><clipPath id="1cd6bbe56e"><rect x="0" width="204" y="0" height="204"/></clipPath><clipPath id="4e384c5cea"><path d="M 184 150 L 269 150 L 269 225.269531 L 184 225.269531 Z M 184 150 "/></clipPath></defs><g id="8c5e70d732"><g clip-rule="nonzero" clip-path="url(#804415237c)"><path style=" stroke:none;fill-rule:nonzero;fill:#eb5b00;fill-opacity:1;" d="M 159.128906 292.824219 C 154.027344 277.933594 144.679688 264.855469 132.242188 255.203125 L 101.671875 231.46875 C 70.28125 207.101562 51.21875 170.140625 49.566406 130.433594 C 49.566406 58.398438 107.964844 0 180 0 C 252.039062 0 310.433594 58.398438 310.433594 130.433594 C 308.78125 170.140625 289.71875 207.101562 258.328125 231.46875 L 227.757812 255.203125 C 215.320312 264.855469 205.976562 277.933594 200.871094 292.824219 L 197.273438 303.3125 C 194.742188 310.695312 187.804688 315.652344 180 315.652344 C 172.195312 315.652344 165.257812 310.695312 162.726562 303.3125 Z M 180 360 C 151.183594 360 127.828125 356.496094 127.828125 352.175781 C 127.828125 347.851562 151.183594 344.347656 180 344.347656 C 208.816406 344.347656 232.175781 347.851562 232.175781 352.175781 C 232.175781 356.496094 208.816406 360 180 360 Z M 242.222656 137.738281 L 256.753906 108.449219 C 258.984375 103.738281 258.726562 98.214844 256.058594 93.742188 C 253.347656 89 248.363281 86.046875 242.933594 85.957031 L 137.101562 85.957031 L 132.625 68.371094 C 131.695312 64.875 128.492188 62.488281 124.90625 62.613281 L 109.460938 62.613281 C 105.195312 62.613281 101.738281 66.097656 101.738281 70.394531 C 101.738281 74.691406 105.195312 78.175781 109.460938 78.175781 L 119.035156 78.175781 L 140.34375 158.019531 C 141.277344 161.515625 144.476562 163.902344 148.066406 163.777344 L 224.558594 163.777344 C 227.464844 163.769531 230.121094 162.113281 231.429688 159.496094 L 237.566406 147.128906 L 173.738281 147.128906 L 173.738281 137.738281 Z M 162.785156 206.609375 C 171.316406 206.609375 178.230469 199.640625 178.230469 191.042969 C 178.230469 182.449219 171.316406 175.480469 162.785156 175.480469 C 154.257812 175.480469 147.34375 182.449219 147.34375 191.042969 C 147.34375 199.640625 154.257812 206.609375 162.785156 206.609375 Z M 216.839844 206.609375 C 225.363281 206.609375 232.277344 199.640625 232.277344 191.042969 C 232.277344 182.449219 225.363281 175.480469 216.839844 175.480469 C 208.308594 175.480469 201.394531 182.449219 201.394531 191.042969 C 201.394531 199.640625 208.308594 206.609375 216.839844 206.609375 Z M 216.839844 206.609375 "/></g><g clip-rule="nonzero" clip-path="url(#1b9b665077)"><g clip-rule="nonzero" clip-path="url(#cd987f2d8f)"><g transform="matrix(1,0,0,1,78,28)"><g clip-path="url(#1cd6bbe56e)"><g clip-rule="nonzero" clip-path="url(#3c8f681ad6)"><g clip-rule="nonzero" clip-path="url(#94e8995c64)"><path style=" stroke:none;fill-rule:nonzero;fill:#eb5b00;fill-opacity:1;" d="M 0.824219 0.972656 L 203.175781 0.972656 L 203.175781 203.324219 L 0.824219 203.324219 Z M 0.824219 0.972656 "/></g></g></g></g></g></g><path style=" stroke:none;fill-rule:evenodd;fill:#ffffff;fill-opacity:1;" d="M 214.671875 125.195312 L 254.109375 101.121094 L 271.777344 135.921875 C 276.046875 154.9375 252.65625 161.914062 233.875 160.78125 L 214.667969 125.195312 Z M 214.671875 125.195312 "/><g clip-rule="nonzero" clip-path="url(#4e384c5cea)"><path style=" stroke:none;fill-rule:evenodd;fill:#ffffff;fill-opacity:1;" d="M 205.707031 150.050781 L 184.960938 187.46875 L 205.707031 225.410156 L 206.21875 210.234375 L 225.167969 210.234375 C 232.085938 210.84375 241.046875 206.222656 244.378906 199.503906 L 268.707031 153.976562 C 260.683594 162.085938 250.363281 164.179688 238.488281 164.179688 L 206.476562 164.179688 Z M 205.707031 150.050781 "/></g><path style=" stroke:none;fill-rule:evenodd;fill:#ffffff;fill-opacity:1;" d="M 159.359375 103.921875 L 119.617188 80.375 L 140.820312 47.699219 C 155.019531 34.65625 172.34375 52.164062 180.488281 69.492188 Z M 159.359375 103.921875 "/><path style=" stroke:none;fill-rule:evenodd;fill:#ffffff;fill-opacity:1;" d="M 184.984375 99.863281 L 227.070312 100.230469 L 249.46875 63.285156 L 236.230469 70.195312 L 227.03125 53.265625 C 224.199219 46.792969 215.894531 41.027344 208.53125 41.316406 L 157.761719 41.679688 C 168.597656 44.910156 175.394531 53.113281 181.160156 63.722656 L 196.699219 92.316406 L 184.980469 99.863281 Z M 184.984375 99.863281 "/><path style=" stroke:none;fill-rule:evenodd;fill:#ffffff;fill-opacity:1;" d="M 89.207031 101.972656 L 101.519531 111.59375 L 89.929688 133.792969 C 84.136719 144.03125 94.089844 154.007812 100.433594 157.476562 C 106.679688 160.894531 116.371094 161.300781 125.425781 161.175781 L 141.722656 134.535156 L 154.035156 141.195312 L 132.667969 101.601562 Z M 89.207031 101.972656 "/><path style=" stroke:none;fill-rule:evenodd;fill:#ffffff;fill-opacity:1;" d="M 91.015625 153.40625 L 117.453125 202.253906 C 122.765625 209.039062 132.785156 210.640625 143.167969 210.394531 L 171.058594 210.394531 L 171.058594 164.140625 L 118.179688 163.769531 C 109.96875 164.265625 99.226562 162.535156 91.015625 153.410156 Z M 91.015625 153.40625 "/></g></svg>