<?xml version="1.0" encoding="UTF-8"?>
<svg version="1.1" xmlns="http://www.w3.org/2000/svg" width="500" height="500">
<path d="M0 0 C1.41539062 1.07121094 1.41539062 1.07121094 2.859375 2.1640625 C3.91898437 3.07285156 3.91898437 3.07285156 5 4 C5 4.66 5 5.32 5 6 C5.56203125 6.2371875 6.1240625 6.474375 6.703125 6.71875 C9.51894042 8.28947697 11.47955416 10.21471464 13.75 12.5 C14.54921875 13.2940625 15.3484375 14.088125 16.171875 14.90625 C18 17 18 17 18 19 C18.66 19 19.32 19 20 19 C21.57753491 20.77511266 23.01224646 22.54431435 24.4375 24.4375 C24.87489502 25.01516113 25.31229004 25.59282227 25.76293945 26.18798828 C42.85569416 49.10554669 55.54596624 75.30985245 59 104 C59.10538086 104.86979492 59.21076172 105.73958984 59.31933594 106.63574219 C61.43557977 125.00373391 61.06439853 141.92711494 57 160 C56.8457959 160.71849121 56.6915918 161.43698242 56.53271484 162.17724609 C51.60192258 184.73697259 41.61857914 206.22149907 27.74609375 224.6640625 C26.34891394 226.53322027 25.05770817 228.4046706 23.8125 230.375 C21.80878425 233.27693316 19.52148985 235.54154739 17 238 C16.401875 238.78375 15.80375 239.5675 15.1875 240.375 C12.67496292 243.3900445 9.88921781 245.81759257 6.90234375 248.3515625 C4.99167551 249.95270861 4.99167551 249.95270861 3.37890625 251.7109375 C2 253 2 253 0 253 C0 253.66 0 254.32 0 255 C-0.66 255 -1.32 255 -2 255 C-2 255.66 -2 256.32 -2 257 C-3.4609375 258.2890625 -3.4609375 258.2890625 -5.375 259.625 C-6.00148438 260.07101562 -6.62796875 260.51703125 -7.2734375 260.9765625 C-9 262 -9 262 -11 262 C-11 262.66 -11 263.32 -11 264 C-12.9140625 265.55859375 -12.9140625 265.55859375 -15.625 267.4375 C-20.31027494 270.75724792 -24.86992599 274.18961548 -29.375 277.75 C-29.95717285 278.20947021 -30.5393457 278.66894043 -31.13916016 279.14233398 C-31.69909668 279.58520752 -32.2590332 280.02808105 -32.8359375 280.484375 C-33.37186523 280.90783203 -33.90779297 281.33128906 -34.45996094 281.76757812 C-35.91876377 282.93499041 -37.35469841 284.13081268 -38.7890625 285.328125 C-41 287 -41 287 -43 287 C-43 287.66 -43 288.32 -43 289 C-44.32 289.33 -45.64 289.66 -47 290 C-47 290.66 -47 291.32 -47 292 C-48.57421875 293.515625 -48.57421875 293.515625 -50.6875 295.25 C-53.35349133 297.50075728 -55.71010091 299.70049545 -57.875 302.4375 C-58.57625 303.283125 -59.2775 304.12875 -60 305 C-60.66 305 -61.32 305 -62 305 C-62 305.66 -62 306.32 -62 307 C-62.66 307 -63.32 307 -64 307 C-64.27457031 307.74636719 -64.54914063 308.49273437 -64.83203125 309.26171875 C-65.91068161 311.79059469 -67.05829508 313.62088462 -68.6875 315.8125 C-75.27978064 325.51646541 -79.27759688 337.02178388 -82.78320312 348.15234375 C-85.08216557 355.1238287 -88.78367803 360.90632456 -95 365 C-101.00113969 367.92738522 -108.66727907 368.02134121 -115.12109375 366.5 C-122.25501026 363.70363184 -126.76986022 358.76413106 -130 352 C-131.41693138 348.29029363 -132.64293585 344.52445756 -133.875 340.75 C-137.60445784 329.7003325 -142.17210335 320.31494063 -148.8984375 310.77734375 C-150 309 -150 309 -150 307 C-150.66 307 -151.32 307 -152 307 C-152 306.34 -152 305.68 -152 305 C-152.66 305 -153.32 305 -154 305 C-155.515625 303.42578125 -155.515625 303.42578125 -157.25 301.3125 C-159.50075728 298.64650867 -161.70049545 296.28989909 -164.4375 294.125 C-165.283125 293.42375 -166.12875 292.7225 -167 292 C-167 291.34 -167 290.68 -167 290 C-168.32 289.67 -169.64 289.34 -171 289 C-171 288.34 -171 287.68 -171 287 C-171.70253906 286.773125 -172.40507812 286.54625 -173.12890625 286.3125 C-176.58838524 284.73102389 -179.13521173 282.5104462 -181.9375 280 C-187.27103272 275.32975291 -192.80915053 271.14440227 -198.68139648 267.17382812 C-200.15354732 266.16176376 -201.58186364 265.08645829 -203 264 C-203 263.34 -203 262.68 -203 262 C-203.7425 261.731875 -204.485 261.46375 -205.25 261.1875 C-207.89061949 260.04723249 -209.85552844 258.90619694 -212 257 C-212 256.34 -212 255.68 -212 255 C-212.84304687 254.63068359 -212.84304687 254.63068359 -213.703125 254.25390625 C-221.52511673 249.9837373 -228.65730957 242.05891781 -234 235 C-234 234.34 -234 233.68 -234 233 C-234.66 233 -235.32 233 -236 233 C-236.66 231.35 -237.32 229.7 -238 228 C-238.66 228 -239.32 228 -240 228 C-241.38525391 226.25024414 -241.38525391 226.25024414 -242.9765625 223.78515625 C-243.85344727 222.42716919 -243.85344727 222.42716919 -244.74804688 221.04174805 C-245.67713867 219.56702026 -245.67713867 219.56702026 -246.625 218.0625 C-247.25728516 217.06065674 -247.88957031 216.05881348 -248.54101562 215.02661133 C-256.64081271 201.98697645 -262.63095834 188.53113654 -267.36376953 173.94775391 C-267.93767386 172.19080505 -268.54313504 170.4442403 -269.15234375 168.69921875 C-280.09552747 134.87858679 -276.89677709 93.7044966 -261 62 C-260.41543824 60.70021375 -259.83647675 59.39790106 -259.26171875 58.09375 C-254.77016177 48.00930213 -249.46830752 38.94061451 -243 30 C-242.30003906 29.03191406 -241.60007813 28.06382813 -240.87890625 27.06640625 C-237.53131296 22.60526842 -237.53131296 22.60526842 -236 21 C-235.34 21 -234.68 21 -234 21 C-233.74041504 20.41589355 -233.48083008 19.83178711 -233.21337891 19.22998047 C-231.91315236 16.84038906 -230.50272864 15.24420474 -228.5859375 13.3203125 C-227.56693359 12.29744141 -227.56693359 12.29744141 -226.52734375 11.25390625 C-225.81707031 10.55136719 -225.10679687 9.84882812 -224.375 9.125 C-223.68792969 8.43019531 -223.00085938 7.73539063 -222.29296875 7.01953125 C-210.2281662 -5 -210.2281662 -5 -206 -5 C-206 -5.66 -206 -6.32 -206 -7 C-205.01 -7 -204.02 -7 -203 -7 C-203 -7.66 -203 -8.32 -203 -9 C-200.59283239 -10.63046308 -198.20216695 -12.11310444 -195.6875 -13.5625 C-194.92566406 -14.00360107 -194.16382813 -14.44470215 -193.37890625 -14.89916992 C-131.7720079 -49.99829554 -55.32836917 -45.05310061 0 0 Z " fill="#0049AB" transform="translate(357,57)"/>
<path d="M0 0 C20.51883297 4.13607972 38.27357361 15.55633253 50 33 C59.41489869 49.42880916 64.82069145 69.3461848 59.765625 88.23046875 C58.46797853 91.22962104 56.53750271 93.01951008 54 95 C44.78596745 98.07134418 33.58057313 95.99034954 24.34204102 93.9597168 C23.64170242 93.80622772 22.94136383 93.65273865 22.21980286 93.49459839 C20.76368067 93.17015711 19.30959322 92.8364144 17.85795593 92.49246216 C-0.69471286 88.18564466 -19.30152074 88.34939072 -38.23120117 88.42358398 C-41.86015905 88.43730513 -45.4880635 88.43044575 -49.11694336 88.40307617 C-71.00993077 88.23828956 -91.5788148 89.03011952 -113 94 C-114.6630174 94.38090661 -116.32647466 94.75990075 -117.99047852 95.13647461 C-119.00936913 95.37278847 -119.00936913 95.37278847 -120.04884338 95.61387634 C-126.43934311 96.87852271 -134.51501444 97.61802901 -140.515625 94.83203125 C-143.94893328 92.0262394 -145.75921489 89.2775925 -147 85 C-147.31584968 81.49718147 -147.33293447 78.01532068 -147.3125 74.5 C-147.30758545 73.51402832 -147.3026709 72.52805664 -147.29760742 71.51220703 C-146.96328462 50.63331914 -138.59563865 33.64168167 -124 19 C-113.82082223 9.52388856 -101.16772784 1.71259551 -87 0.4375 C-82.47367016 0.6101913 -79.29197202 2.99057052 -75.5859375 5.40234375 C-63.03556336 13.15627581 -46.22608486 14.17344865 -31.93359375 11.31640625 C-21.55435872 8.52155079 -10.53131489 -1.23218309 0 0 Z " fill="#FCFDFE" transform="translate(293,167)"/>
<path d="M0 0 C2.42323012 1.65837578 4.69834885 3.38054135 6.9609375 5.25 C7.79238281 5.88550781 8.62382812 6.52101563 9.48046875 7.17578125 C19.35578257 15.43372084 26.45136961 28.0862908 27.80078125 40.91796875 C28.98203624 58.11819391 25.19706724 73.54598535 13.7734375 86.78515625 C3.15636821 98.06579237 -9.74842438 104.703158 -25.22265625 105.33984375 C-27.50113549 105.37538329 -29.76191603 105.3323065 -32.0390625 105.25 C-32.73644531 105.23324219 -33.43382812 105.21648437 -34.15234375 105.19921875 C-44.18719674 104.55713492 -53.97746847 100.09860743 -62.0390625 94.25 C-62.0390625 93.59 -62.0390625 92.93 -62.0390625 92.25 C-62.60753906 92.0128125 -63.17601562 91.775625 -63.76171875 91.53125 C-74.17441482 85.67299217 -79.35192171 73.51000102 -82.4609375 62.57421875 C-86.69937487 45.534555 -82.5869915 31.0639956 -74.0390625 16.25 C-72.17168306 13.59322834 -70.37400433 11.53064085 -68.0390625 9.25 C-67.3790625 9.25 -66.7190625 9.25 -66.0390625 9.25 C-66.0390625 8.59 -66.0390625 7.93 -66.0390625 7.25 C-47.68128734 -8.55919032 -21.20608488 -12.21121597 0 0 Z " fill="#FCFDFE" transform="translate(275.0390625,66.75)"/>
<path d="M0 0 C3.60645351 0.01072624 7.21240909 0.00003963 10.81884766 -0.01269531 C27.13738642 -0.02318636 43.61050269 0.21184298 59.54931641 4.13574219 C60.24089844 4.28398437 60.93248047 4.43222656 61.64501953 4.58496094 C65.86440752 5.58589579 68.45152933 6.79080252 71.11181641 10.26074219 C71.11181641 10.92074219 71.11181641 11.58074219 71.11181641 12.26074219 C70.45181641 12.26074219 69.79181641 12.26074219 69.11181641 12.26074219 C69.11181641 12.92074219 69.11181641 13.58074219 69.11181641 14.26074219 C48.53732817 20.88315559 27.20217247 21.44414002 5.7487793 21.39111328 C3.18027835 21.38575463 0.61195273 21.39109661 -1.95654297 21.39746094 C-15.93350124 21.40423357 -30.00286289 21.22255244 -43.82568359 18.94824219 C-44.6170874 18.82143066 -45.40849121 18.69461914 -46.22387695 18.56396484 C-52.12352673 17.54885397 -57.5240511 15.97335588 -62.88818359 13.26074219 C-63.54818359 12.93074219 -64.20818359 12.60074219 -64.88818359 12.26074219 C-64.82568359 10.44824219 -64.82568359 10.44824219 -63.88818359 8.26074219 C-46.26213165 -1.98696243 -19.57912981 -0.06913722 0 0 Z " fill="#0247A4" transform="translate(246.88818359375,459.7392578125)"/>
<path d="M0 0 C0.99 0.495 0.99 0.495 2 1 C1.67 2.32 1.34 3.64 1 5 C1.99 5.495 1.99 5.495 3 6 C2.34 6 1.68 6 1 6 C0.67 7.32 0.34 8.64 0 10 C0.99 10.495 0.99 10.495 2 11 C-15.24708936 21.88646066 -34.25257805 26.36747286 -54.5 21.9375 C-61.12577102 19.96508839 -67.07024623 16.49090343 -73 13 C-73 12.01 -73 11.02 -73 10 C-70 11 -70 11 -69 13 C-66.69 13 -64.38 13 -62 13 C-62.33 13.99 -62.66 14.98 -63 16 C-62.34 15.34 -61.68 14.68 -61 14 C-61.99 13.01 -62.98 12.02 -64 11 C-63.67 10.01 -63.34 9.02 -63 8 C-62.16597656 8.34933594 -61.33195313 8.69867188 -60.47265625 9.05859375 C-53.91998989 11.70818278 -48.08407761 13.81599798 -41 14 C-40.27425781 14.03867188 -39.54851562 14.07734375 -38.80078125 14.1171875 C-24.69831766 14.56019683 -11.9896196 9.61531907 -1 1 C-0.67 0.67 -0.34 0.34 0 0 Z " fill="#0C4EAA" transform="translate(284,157)"/>
<path d="M0 0 C1.12784409 -0.01248528 1.12784409 -0.01248528 2.2784729 -0.02522278 C4.78563574 -0.04945842 7.29253671 -0.05812656 9.79980469 -0.06469727 C11.56353831 -0.07367826 13.32727122 -0.08280034 15.09100342 -0.09205627 C18.81361732 -0.10860232 22.536141 -0.11625223 26.25878906 -0.11914062 C30.01754808 -0.12338663 33.77560096 -0.14378275 37.53417969 -0.18066406 C61.99092271 -0.41660172 85.40484782 0.25283668 109.22851562 6.45654297 C112.1319996 7.16293294 114.48035973 7.54523942 117.44042969 7.50170898 C118.22675781 7.49526367 119.01308594 7.48881836 119.82324219 7.48217773 C120.61472656 7.46541992 121.40621094 7.44866211 122.22167969 7.43139648 C123.04410156 7.42237305 123.86652344 7.41334961 124.71386719 7.40405273 C126.71660051 7.38076514 128.71918122 7.34490607 130.72167969 7.30639648 C130.72167969 7.96639648 130.72167969 8.62639648 130.72167969 9.30639648 C127.41173256 10.96137005 123.73044968 10.40723984 120.09667969 10.36889648 C118.89398438 10.36212891 118.89398438 10.36212891 117.66699219 10.35522461 C115.68518963 10.34342817 113.70342535 10.32549253 111.72167969 10.30639648 C111.72167969 9.64639648 111.72167969 8.98639648 111.72167969 8.30639648 C110.64917969 8.32702148 109.57667969 8.34764648 108.47167969 8.36889648 C104.72167969 8.30639648 104.72167969 8.30639648 102.78417969 7.80639648 C100.44558172 7.23946364 98.37441388 7.20856216 95.97167969 7.24389648 C94.77285156 7.25743164 94.77285156 7.25743164 93.54980469 7.27124023 C92.64488281 7.28864258 92.64488281 7.28864258 91.72167969 7.30639648 C91.22667969 6.31639648 91.22667969 6.31639648 90.72167969 5.30639648 C80.93944467 1.91191528 69.38702929 2.95365949 59.17871094 2.89233398 C57.19902259 2.87359576 55.21934201 2.85402043 53.2396698 2.83364868 C48.06294357 2.78260174 42.88619151 2.74283018 37.70935059 2.70550537 C32.41326658 2.66529252 27.11728742 2.61427952 21.82128906 2.56420898 C11.45482655 2.4677751 1.08830445 2.38326749 -9.27832031 2.30639648 C-6.46026077 -0.51166306 -3.77346933 0.00352048 0 0 Z " fill="#245AA1" transform="translate(215.2783203125,254.693603515625)"/>
<path d="M0 0 C0.33 0 0.66 0 1 0 C7.58974482 30.26889456 6.38657668 57.37026717 -2 87 C-2.33 87 -2.66 87 -3 87 C-3.48570361 80.03824819 -1.63945658 73.72659392 0 67 C2.59210776 55.61798834 3.15124283 44.46511683 3.0625 32.8125 C3.05798828 31.66974609 3.05347656 30.52699219 3.04882812 29.34960938 C3.03718268 26.5663489 3.02082997 23.78320428 3 21 C2.34 21 1.68 21 1 21 C0.07907719 16.34462644 -0.12205997 11.85314567 -0.0625 7.125 C-0.05798828 6.43664062 -0.05347656 5.74828125 -0.04882812 5.0390625 C-0.03716336 3.35933665 -0.01923271 1.67965625 0 0 Z " fill="#082E66" transform="translate(412,145)"/>
<path d="M0 0 C1.35931641 0.52400391 1.35931641 0.52400391 2.74609375 1.05859375 C9.47378319 3.57168832 15.75308966 5.8222456 23 6 C24.08667969 6.04060547 24.08667969 6.04060547 25.1953125 6.08203125 C30.84328495 6.19026766 36.39498096 5.65528406 42 5 C41.67 5.66 41.34 6.32 41 7 C35.93684937 8.37653382 30.83138057 8.18388446 25.625 8.1875 C24.70460937 8.19974609 23.78421875 8.21199219 22.8359375 8.22460938 C17.48596454 8.2360736 13.05854092 7.76282486 8 6 C7.67 7.32 7.34 8.64 7 10 C-0.0528764 10.9199404 -4.26938677 7.8742174 -10 4 C-9.67 3.34 -9.34 2.68 -9 2 C-6 3 -6 3 -5 5 C-2.69 5 -0.38 5 2 5 C1.67 5.99 1.34 6.98 1 8 C1.66 7.34 2.32 6.68 3 6 C2.505 5.566875 2.01 5.13375 1.5 4.6875 C0 3 0 3 0 0 Z " fill="#1652A1" transform="translate(220,165)"/>
<path d="M0 0 C7.25314756 -0.5031085 13.9420813 0.15072099 21 1.75 C21.72952881 1.90694336 22.45905762 2.06388672 23.21069336 2.22558594 C27.53263379 3.27180778 30.2885381 4.41296186 33 8 C33 8.66 33 9.32 33 10 C32.34 10 31.68 10 31 10 C31 10.66 31 11.32 31 12 C20.84638035 15.4109816 11.63757264 16.72369941 1 17 C3 15 3 15 5.3828125 14.8046875 C6.28773438 14.82789063 7.19265625 14.85109375 8.125 14.875 C9.49011719 14.90207031 9.49011719 14.90207031 10.8828125 14.9296875 C11.58148438 14.95289063 12.28015625 14.97609375 13 15 C13 14.34 13 13.68 13 13 C13.71027344 12.93941406 14.42054688 12.87882812 15.15234375 12.81640625 C16.07144531 12.73261719 16.99054688 12.64882813 17.9375 12.5625 C18.85402344 12.48128906 19.77054687 12.40007812 20.71484375 12.31640625 C22.96159732 12.23955024 22.96159732 12.23955024 24 11 C25.99958364 10.95919217 28.00045254 10.95745644 30 11 C29.84379674 9.03221181 29.84379674 9.03221181 29 7 C23.0001514 3.86068528 15.6556595 3.41066835 9 3 C9 2.34 9 1.68 9 1 C6.03 1 3.06 1 0 1 C0 0.67 0 0.34 0 0 Z " fill="#082B5F" transform="translate(285,462)"/>
<path d="M0 0 C0.66 0 1.32 0 2 0 C3.01241247 1.88923398 4.00947425 3.78669944 5 5.6875 C5.556875 6.74324219 6.11375 7.79898438 6.6875 8.88671875 C7.9672274 11.92226262 8.28851043 13.76026826 8 17 C8.66 17 9.32 17 10 17 C10.4021875 18.1446875 10.4021875 18.1446875 10.8125 19.3125 C11.79264168 21.99106782 11.79264168 21.99106782 13.5625 23.5 C15.48593335 25.50706089 15.63468585 27.29667526 16 30 C16.66 30 17.32 30 18 30 C18.33 31.32 18.66 32.64 19 34 C19.99 33.505 19.99 33.505 21 33 C21 34.32 21 35.64 21 37 C21.66 37.33 22.32 37.66 23 38 C23.625 40.5625 23.625 40.5625 24 43 C25.32 43.33 26.64 43.66 28 44 C28.33 45.65 28.66 47.3 29 49 C28.34 49 27.68 49 27 49 C26.34 47.35 25.68 45.7 25 44 C24.34 44 23.68 44 23 44 C20.52865075 40.87836445 18.49640458 37.42863865 16.375 34.0625 C15.74634033 33.06935791 15.11768066 32.07621582 14.4699707 31.05297852 C1.51353304 10.24091838 1.51353304 10.24091838 0 0 Z " fill="#083273" transform="translate(94,241)"/>
<path d="M0 0 C0.66 0 1.32 0 2 0 C3.7026416 7.00819443 4.56360244 13.77802455 4 21 C3.67 21.33 3.34 21.66 3 22 C2.79300437 23.49496842 2.63320741 24.9966592 2.5 26.5 C2.11111111 30.88888889 2.11111111 30.88888889 1 32 C1.0825 33.258125 1.165 34.51625 1.25 35.8125 C1.296875 37.98828125 1.296875 37.98828125 1 40 C-1.5 42.5 -1.5 42.5 -4 44 C-4.66 43.67 -5.32 43.34 -6 43 C-2 33 -2 33 -0.90625 30.359375 C2.67374836 21.03903444 1.29233641 9.69252308 0 0 Z " fill="#14509F" transform="translate(301,101)"/>
<path d="M0 0 C0 0.66 0 1.32 0 2 C-0.99 2.66 -1.98 3.32 -3 4 C-3.309375 5.010625 -3.61875 6.02125 -3.9375 7.0625 C-5 10 -5 10 -6.75 11.0625 C-9.99493252 10.97236299 -12.21594725 9.58184815 -15 8 C-14.9375 6.1875 -14.9375 6.1875 -14 4 C-9.29866992 1.64933496 -5.27078878 0 0 0 Z " fill="#053D88" transform="translate(197,464)"/>
<path d="M0 0 C0.33 0 0.66 0 1 0 C1.51042132 14.38631946 -0.43978913 27.25468354 -5 41 C-5.33 41 -5.66 41 -6 41 C-6.48570361 34.03824819 -4.63945658 27.72659392 -3 21 C-1.41077327 14.02166468 -0.51570551 7.13844992 0 0 Z " fill="#09387C" transform="translate(415,191)"/>
<path d="M0 0 C0 0.66 0 1.32 0 2 C0.63808594 2.06058594 1.27617187 2.12117188 1.93359375 2.18359375 C3.17302734 2.30927734 3.17302734 2.30927734 4.4375 2.4375 C5.67306641 2.55931641 5.67306641 2.55931641 6.93359375 2.68359375 C9 3 9 3 10 4 C12.18292774 4.23481693 14.37203174 4.41363323 16.5625 4.5625 C17.76003906 4.64628906 18.95757812 4.73007812 20.19140625 4.81640625 C21.11824219 4.87699219 22.04507813 4.93757813 23 5 C23 5.33 23 5.66 23 6 C13.75293712 6.31968079 4.84140678 6.07857895 -4.3125 4.625 C-5.11792236 4.49891357 -5.92334473 4.37282715 -6.75317383 4.24291992 C-10.47192743 3.60949499 -13.73795663 3.01144766 -17 1 C-15.73542969 1.01740234 -15.73542969 1.01740234 -14.4453125 1.03515625 C-13.34960938 1.04417969 -12.25390625 1.05320312 -11.125 1.0625 C-9.48917969 1.07990234 -9.48917969 1.07990234 -7.8203125 1.09765625 C-4.79973768 0.99306571 -3.04879226 0 0 0 Z " fill="#073373" transform="translate(207,474)"/>
<path d="M0 0 C0.66 0.33 1.32 0.66 2 1 C1.21625 2.010625 0.4325 3.02125 -0.375 4.0625 C-2.89937113 7.55560739 -3.82678234 10.85463094 -5 15 C-7 17.1875 -7 17.1875 -9 19 C-10.23512079 21.13309192 -10.23512079 21.13309192 -11 23 C-12.32 23 -13.64 23 -15 23 C-13.66722489 19.32180203 -12.02767387 16.36290569 -9.75 13.1875 C-8.82767578 11.89779297 -8.82767578 11.89779297 -7.88671875 10.58203125 C-5.29075232 7.02937326 -2.66809763 3.498824 0 0 Z " fill="#063780" transform="translate(121,78)"/>
<path d="M0 0 C0.66 0.33 1.32 0.66 2 1 C-0.75975845 5.44627751 -4.40821729 6.93279536 -9.125 8.875 C-12.73541508 11.04124905 -14.69090282 14.07270847 -16 18 C-16.66 18 -17.32 18 -18 18 C-18 17.34 -18 16.68 -18 16 C-18.99 15.67 -19.98 15.34 -21 15 C-15.25 10 -15.25 10 -13 10 C-13 9.34 -13 8.68 -13 8 C-12.01 8 -11.02 8 -10 8 C-10 7.34 -10 6.68 -10 6 C-7.8828125 4.45703125 -7.8828125 4.45703125 -5.125 2.8125 C-4.22007812 2.26207031 -3.31515625 1.71164063 -2.3828125 1.14453125 C-1.59648437 0.76683594 -0.81015625 0.38914063 0 0 Z " fill="#062E69" transform="translate(164,42)"/>
<path d="M0 0 C0.99 0 1.98 0 3 0 C0.4621689 8.88240886 -3.77769651 16.82618207 -8 25 C-9.53445094 21.93109813 -8.54984289 19.29905734 -8 16 C-6.68 15.67 -5.36 15.34 -4 15 C-4 13.35 -4 11.7 -4 10 C-3.34 10 -2.68 10 -2 10 C-2 8.68 -2 7.36 -2 6 C-1.34 6 -0.68 6 0 6 C0 4.02 0 2.04 0 0 Z " fill="#073476" transform="translate(403,241)"/>
<path d="M0 0 C0.66 0.99 1.32 1.98 2 3 C0.75780817 6.98808957 -0.73074789 10.47185162 -2.625 14.1875 C-3.92676659 16.85020439 -4.57110002 19.08348014 -5 22 C-5.66 22 -6.32 22 -7 22 C-7 23.65 -7 25.3 -7 27 C-7.66 27.33 -8.32 27.66 -9 28 C-7.7697772 19.86584031 -5.10466095 12.59248816 -2 5 C-1.33255586 3.33364453 -0.66560395 1.66709136 0 0 Z " fill="#063373" transform="translate(97,116)"/>
<path d="M0 0 C1.2065625 0.0309375 1.2065625 0.0309375 2.4375 0.0625 C-4.76694404 6.6665737 -16.38185165 5.63912059 -25.5625 6.0625 C-23.5625 4.0625 -23.5625 4.0625 -21.1796875 3.8671875 C-20.27476562 3.89039063 -19.36984375 3.91359375 -18.4375 3.9375 C-17.07238281 3.96457031 -17.07238281 3.96457031 -15.6796875 3.9921875 C-14.98101562 4.01539063 -14.28234375 4.03859375 -13.5625 4.0625 C-13.5625 3.4025 -13.5625 2.7425 -13.5625 2.0625 C-12.85222656 2.00191406 -12.14195312 1.94132812 -11.41015625 1.87890625 C-10.03150391 1.75322266 -10.03150391 1.75322266 -8.625 1.625 C-7.70847656 1.54378906 -6.79195313 1.46257812 -5.84765625 1.37890625 C-3.0392385 0.99004841 -2.92897185 0.07143834 0 0 Z " fill="#083676" transform="translate(311.5625,472.9375)"/>
<path d="M0 0 C0.66 0 1.32 0 2 0 C2.33 0.99 2.66 1.98 3 3 C1.02 3.99 1.02 3.99 -1 5 C-1 5.66 -1 6.32 -1 7 C-1.66 7 -2.32 7 -3 7 C-3.33 7.99 -3.66 8.98 -4 10 C-4.66 10 -5.32 10 -6 10 C-6.66 11.32 -7.32 12.64 -8 14 C-9.60031344 10.79937313 -8.03173691 8.27728194 -7 5 C-3.535 4.505 -3.535 4.505 0 4 C0 2.68 0 1.36 0 0 Z " fill="#1650A5" transform="translate(210,69)"/>
<path d="M0 0 C2 2 2 2 2.125 4.625 C2.08375 5.40875 2.0425 6.1925 2 7 C2.66 7 3.32 7 4 7 C5.19287411 10.87684087 6 13.91621923 6 18 C6.66 18.33 7.32 18.66 8 19 C7.67 20.65 7.34 22.3 7 24 C4.69642724 20.54464086 3.59113887 17.04916904 2.375 13.125 C2.14554687 12.41730469 1.91609375 11.70960938 1.6796875 10.98046875 C0.50091867 7.21261837 -0.29785007 3.99746145 0 0 Z " fill="#073372" transform="translate(87,217)"/>
<path d="M0 0 C5.61 0.33 11.22 0.66 17 1 C17 1.66 17 2.32 17 3 C18.051875 3.185625 18.051875 3.185625 19.125 3.375 C22.17656387 4.03838345 25.05340938 4.97211955 28 6 C28 6.66 28 7.32 28 8 C27.40574219 7.81824219 26.81148438 7.63648438 26.19921875 7.44921875 C13.28031669 3.41522273 13.28031669 3.41522273 0 1 C0 0.67 0 0.34 0 0 Z " fill="#3165A7" transform="translate(286,166)"/>
<path d="M0 0 C0.99 0.33 1.98 0.66 3 1 C-0.47918155 4.7191251 -2.36809386 5.93949312 -7.58203125 6.1328125 C-8.99218741 6.13546566 -10.40236221 6.13267074 -11.8125 6.125 C-12.86147461 6.13080078 -12.86147461 6.13080078 -13.93164062 6.13671875 C-18.05965562 6.12899562 -21.95127695 5.80084632 -26 5 C-26 4.67 -26 4.34 -26 4 C-18.08 4 -10.16 4 -2 4 C-1.34 2.68 -0.68 1.36 0 0 Z " fill="#DBF0FC" transform="translate(348,257)"/>
<path d="M0 0 C0 5.37854697 -4.14871137 9.08931914 -7.6875 12.875 C-10 15 -10 15 -12 16 C-12 15.34 -12 14.68 -12 14 C-12.66 13.67 -13.32 13.34 -14 13 C-12.35 12.67 -10.7 12.34 -9 12 C-9 10.68 -9 9.36 -9 8 C-8.34 8 -7.68 8 -7 8 C-6.67 7.34 -6.34 6.68 -6 6 C-5.34 6 -4.68 6 -4 6 C-3.896875 5.38125 -3.79375 4.7625 -3.6875 4.125 C-3 2 -3 2 0 0 Z " fill="#073B85" transform="translate(384,280)"/>
<path d="M0 0 C0.99 0.495 0.99 0.495 2 1 C2 1.66 2 2.32 2 3 C2.56203125 3.2371875 3.1240625 3.474375 3.703125 3.71875 C6.51894042 5.28947697 8.47955416 7.21471464 10.75 9.5 C11.54921875 10.2940625 12.3484375 11.088125 13.171875 11.90625 C15 14 15 14 15 16 C15.66 16 16.32 16 17 16 C16.67 16.66 16.34 17.32 16 18 C11 13 11 13 8.9375 10.8125 C7.03988788 9.03731447 5.37501016 8.0178615 3 7 C3 6.01 3 5.02 3 4 C2.34 4 1.68 4 1 4 C0.67 2.68 0.34 1.36 0 0 Z " fill="#092C62" transform="translate(360,60)"/>
<path d="M0 0 C7.244298 2.13766171 13.46718285 5.22684019 20 9 C19.01 9.66 18.02 10.32 17 11 C17 10.34 17 9.68 17 9 C15.35 8.67 13.7 8.34 12 8 C12 7.34 12 6.68 12 6 C9.03 5.505 9.03 5.505 6 5 C6 4.34 6 3.68 6 3 C3.03 2.505 3.03 2.505 0 2 C0 1.34 0 0.68 0 0 Z " fill="#08326D" transform="translate(314,32)"/>
<path d="M0 0 C4.98844309 0.6099126 9.60155346 1.63474435 14.4375 3.0625 C16.29181641 3.60583984 16.29181641 3.60583984 18.18359375 4.16015625 C19.11300781 4.43730469 20.04242188 4.71445312 21 5 C21 5.33 21 5.66 21 6 C15.555 5.505 15.555 5.505 10 5 C10 4.34 10 3.68 10 3 C7.98177083 3.09765625 5.96354167 3.1953125 3.9453125 3.29296875 C3.30335938 3.19628906 2.66140625 3.09960938 2 3 C1.34 2.01 0.68 1.02 0 0 Z " fill="#073676" transform="translate(288,24)"/>
<path d="M0 0 C0.66 0 1.32 0 2 0 C3.0098473 1.91149668 4.00754495 3.82941569 5 5.75 C5.8353125 7.35101563 5.8353125 7.35101563 6.6875 8.984375 C8 12 8 12 8 16 C7.34 16 6.68 16 6 16 C4.9955866 13.7101766 3.99632388 11.4183401 3 9.125 C2.71382813 8.47402344 2.42765625 7.82304687 2.1328125 7.15234375 C0 2.2265625 0 2.2265625 0 0 Z " fill="#0B3680" transform="translate(94,241)"/>
<path d="M0 0 C2.5 1.375 2.5 1.375 5 3 C5 3.66 5 4.32 5 5 C5.78375 5.28875 6.5675 5.5775 7.375 5.875 C10 7 10 7 12 9 C9 10 9 10 7 9.0625 C6.34 8.711875 5.68 8.36125 5 8 C4.01 8 3.02 8 2 8 C1.34 5.36 0.68 2.72 0 0 Z " fill="#1B56A4" transform="translate(208,156)"/>
<path d="M0 0 C3.28241129 1.64120565 4.19361696 5.11217741 5.6875 8.3125 C6.02072266 8.98990234 6.35394531 9.66730469 6.69726562 10.36523438 C8.4306187 14.05176286 9.2808127 16.12015811 8 20 C3.59225513 11.738041 3.59225513 11.738041 3 7 C2.34 7 1.68 7 1 7 C0.67 4.69 0.34 2.38 0 0 Z " fill="#072C62" transform="translate(396,105)"/>
<path d="M0 0 C3.12706098 0.44493967 6.25113136 0.90821503 9.375 1.375 C10.26445312 1.50132812 11.15390625 1.62765625 12.0703125 1.7578125 C12.92109375 1.88671875 13.771875 2.015625 14.6484375 2.1484375 C15.43395996 2.26364746 16.21948242 2.37885742 17.02880859 2.49755859 C19 3 19 3 21 5 C18.36 5.33 15.72 5.66 13 6 C12.67 5.34 12.34 4.68 12 4 C9.45123766 3.38438582 9.45123766 3.38438582 6.5 3 C3.46875 2.5625 3.46875 2.5625 1 2 C0.67 1.34 0.34 0.68 0 0 Z " fill="#144E9B" transform="translate(294,256)"/>
<path d="M0 0 C-0.33 0.99 -0.66 1.98 -1 3 C-2.91635217 3.05423638 -4.83314925 3.09289963 -6.75 3.125 C-8.35101563 3.15980469 -8.35101563 3.15980469 -9.984375 3.1953125 C-12.92470106 3.00487687 -14.52361878 2.52670104 -17 1 C-15.73542969 1.01740234 -15.73542969 1.01740234 -14.4453125 1.03515625 C-13.34960938 1.04417969 -12.25390625 1.05320312 -11.125 1.0625 C-9.48917969 1.07990234 -9.48917969 1.07990234 -7.8203125 1.09765625 C-4.79973768 0.99306571 -3.04879226 0 0 0 Z " fill="#093C8D" transform="translate(207,474)"/>
<path d="M0 0 C6.70518586 -0.19818283 12.65176798 -0.30844801 19 2 C19 2.33 19 2.66 19 3 C15.7 3 12.4 3 9 3 C9 2.34 9 1.68 9 1 C6.03 1 3.06 1 0 1 C0 0.67 0 0.34 0 0 Z " fill="#093473" transform="translate(285,462)"/>
<path d="M0 0 C0 4.13122742 -1.4277594 5.81854452 -4 9 C-7.25 10.375 -7.25 10.375 -10 11 C-6.79239749 7.19364503 -3.59253891 3.45436433 0 0 Z " fill="#062F71" transform="translate(141,58)"/>
<path d="M0 0 C0.99 0.33 1.98 0.66 3 1 C0.45528982 4.11020134 -2.15896252 5.00133026 -6 6 C-8.875 6.125 -8.875 6.125 -11 6 C-10.67 5.34 -10.34 4.68 -10 4 C-7.71484375 3.3671875 -7.71484375 3.3671875 -4.9375 2.875 C-4.01839844 2.70742188 -3.09929687 2.53984375 -2.15234375 2.3671875 C-1.44207031 2.24601562 -0.73179687 2.12484375 0 2 C0 1.34 0 0.68 0 0 Z " fill="#093473" transform="translate(262,418)"/>
<path d="M0 0 C5.4611399 0.88082902 5.4611399 0.88082902 8 2 C9.5 5.125 9.5 5.125 10 8 C6.05205855 6.32971708 3.18203882 3.8204435 0 1 C0 0.67 0 0.34 0 0 Z " fill="#07367D" transform="translate(168,330)"/>
<path d="M0 0 C2 4 2 4 2 6 C0.37373596 7.38232443 -1.2925002 8.71937515 -3 10 C-3.66 9.67 -4.32 9.34 -5 9 C-3.35 6.03 -1.7 3.06 0 0 Z " fill="#114FA1" transform="translate(300,135)"/>
<path d="M0 0 C2.875 0.25 2.875 0.25 6 1 C7.4375 2.875 7.4375 2.875 8 5 C7.67 5.99 7.34 6.98 7 8 C5.8274869 7.04882866 4.66212985 6.08882991 3.5 5.125 C2.8503125 4.59132813 2.200625 4.05765625 1.53125 3.5078125 C1.0259375 3.01023437 0.520625 2.51265625 0 2 C0 1.34 0 0.68 0 0 Z " fill="#093678" transform="translate(190,347)"/>
<path d="M0 0 C0.66 0.33 1.32 0.66 2 1 C1.01 2.485 1.01 2.485 0 4 C-0.99 4 -1.98 4 -3 4 C-3.226875 4.639375 -3.45375 5.27875 -3.6875 5.9375 C-5 8 -5 8 -7.625 8.75 C-8.40875 8.8325 -9.1925 8.915 -10 9 C-6.83047153 5.73991357 -3.60062011 2.77762123 0 0 Z " fill="#DAEFFB" transform="translate(180,177)"/>
<path d="M0 0 C1 2 1 2 0.44140625 4.1640625 C0.15136719 4.97617188 -0.13867188 5.78828125 -0.4375 6.625 C-0.72496094 7.44226563 -1.01242188 8.25953125 -1.30859375 9.1015625 C-1.53675781 9.72804688 -1.76492187 10.35453125 -2 11 C-2.99 11 -3.98 11 -5 11 C-3.77472971 6.94718288 -2.30119506 3.55639236 0 0 Z " fill="#072D69" transform="translate(105,101)"/>
<path d="M0 0 C0.6875 1.8125 0.6875 1.8125 1 4 C-0.25 5.75 -0.25 5.75 -2 7 C-2.99 7 -3.98 7 -5 7 C-5 7.66 -5 8.32 -5 9 C-5.66 9 -6.32 9 -7 9 C-5.44499019 5.18315774 -2.96404505 2.80804268 0 0 Z " fill="#08377C" transform="translate(130,69)"/>
<path d="M0 0 C-2.68092691 2.68092691 -4.39167363 2.38670257 -8.125 2.625 C-9.22070312 2.69976563 -10.31640625 2.77453125 -11.4453125 2.8515625 C-12.28835937 2.90054687 -13.13140625 2.94953125 -14 3 C-11.87033995 0.87033995 -10.95931796 0.52375338 -8.125 -0.1875 C-7.44695312 -0.36667969 -6.76890625 -0.54585937 -6.0703125 -0.73046875 C-3.77181444 -1.02970718 -2.19449036 -0.69377386 0 0 Z " fill="#05326D" transform="translate(211,25)"/>
<path d="M0 0 C0.66 0 1.32 0 2 0 C2 0.66 2 1.32 2 2 C3.32 2.33 4.64 2.66 6 3 C6.33 5.31 6.66 7.62 7 10 C3.66442368 7.0094833 1.84916079 4.06815373 0 0 Z " fill="#072C6C" transform="translate(209,368)"/>
<path d="M0 0 C-4.75 4 -4.75 4 -7 4 C-7 4.66 -7 5.32 -7 6 C-7.66 5.67 -8.32 5.34 -9 5 C-8.8125 3.125 -8.8125 3.125 -8 1 C-4.70594381 -0.82039948 -3.63772813 -1.21257604 0 0 Z " fill="#073172" transform="translate(353,315)"/>
<path d="M0 0 C0.66 0.33 1.32 0.66 2 1 C-0.51830747 4.12270126 -1.7261549 4.94523098 -5.75 5.75 C-7.35875 5.87375 -7.35875 5.87375 -9 6 C-6.45368965 3.02930459 -3.57769851 1.5224249 0 0 Z " fill="#DBEFFB" transform="translate(225,64)"/>
<path d="M0 0 C5.27749285 0.53851968 9.25645564 1.77343836 14 4 C13.67 4.66 13.34 5.32 13 6 C12.34 5.731875 11.68 5.46375 11 5.1875 C7.35060933 3.74294953 3.67754567 2.37128822 0 1 C0 0.67 0 0.34 0 0 Z " fill="#DDF0FB" transform="translate(259,62)"/>
<path d="M0 0 C2.1875 0.3125 2.1875 0.3125 4 1 C3.34 2.65 2.68 4.3 2 6 C1.34 6 0.68 6 0 6 C0 5.34 0 4.68 0 4 C-0.99 3.67 -1.98 3.34 -3 3 C-1.75 1.4375 -1.75 1.4375 0 0 Z " fill="#073886" transform="translate(146,54)"/>
<path d="M0 0 C0.99 0 1.98 0 3 0 C3.53190541 1.43344 4.05015258 2.87195367 4.5625 4.3125 C4.85253906 5.11300781 5.14257812 5.91351563 5.44140625 6.73828125 C6 9 6 9 5 12 C4.16180842 10.37750059 3.3295884 8.75191503 2.5 7.125 C2.0359375 6.22007812 1.571875 5.31515625 1.09375 4.3828125 C0 2 0 2 0 0 Z " fill="#0A326F" transform="translate(216,379)"/>
<path d="M0 0 C4.75207471 -0.43200679 7.78210698 1.01510917 12 3 C12 3.66 12 4.32 12 5 C10.37276701 4.54965877 8.74826336 4.08944646 7.125 3.625 C5.76761719 3.24214844 5.76761719 3.24214844 4.3828125 2.8515625 C2 2 2 2 0 0 Z " fill="#285CA5" transform="translate(302,169)"/>
<path d="M0 0 C0.66 0.33 1.32 0.66 2 1 C0.29374499 3.78388975 -0.47626739 4.85384206 -3.6875 5.75 C-4.8321875 5.87375 -4.8321875 5.87375 -6 6 C-4.98545548 3.4636387 -4.3146444 2.20648539 -2 0.6875 C-1.34 0.460625 -0.68 0.23375 0 0 Z " fill="#083674" transform="translate(164,42)"/>
<path d="M0 0 C1.2065625 0.0309375 1.2065625 0.0309375 2.4375 0.0625 C0.79580472 2.08304804 -0.87161778 4.08293058 -2.5625 6.0625 C-2.8925 6.0625 -3.2225 6.0625 -3.5625 6.0625 C-3.605221 4.39638095 -3.60313832 2.72867115 -3.5625 1.0625 C-2.5625 0.0625 -2.5625 0.0625 0 0 Z " fill="#063476" transform="translate(302.5625,351.9375)"/>
<path d="M0 0 C0.33 0 0.66 0 1 0 C1.10867302 1.58179615 1.18589827 3.16577153 1.25 4.75 C1.29640625 5.63171875 1.3428125 6.5134375 1.390625 7.421875 C1 10 1 10 -3 14 C-2.01 9.38 -1.02 4.76 0 0 Z " fill="#3367A9" transform="translate(302,122)"/>
<path d="M0 0 C0.33 1.32 0.66 2.64 1 4 C0.01 4.33 -0.98 4.66 -2 5 C-2 6.32 -2 7.64 -2 9 C-2.99 9 -3.98 9 -5 9 C-3.7508258 5.54074837 -2.32472205 2.85306797 0 0 Z " fill="#083170" transform="translate(111,92)"/>
<path d="M0 0 C0 3.39593478 -0.52165948 4.06619881 -2.5 6.6875 C-2.9640625 7.31011719 -3.428125 7.93273437 -3.90625 8.57421875 C-4.2671875 9.04472656 -4.628125 9.51523437 -5 10 C-5.33 8.68 -5.66 7.36 -6 6 C-5.34 6 -4.68 6 -4 6 C-3.896875 5.38125 -3.79375 4.7625 -3.6875 4.125 C-3 2 -3 2 0 0 Z " fill="#072B64" transform="translate(384,280)"/>
<path d="M0 0 C1.670625 0.061875 1.670625 0.061875 3.375 0.125 C0.98926621 2.01713369 -0.69675348 3.14891783 -3.625 4.125 C-4.285 3.465 -4.945 2.805 -5.625 2.125 C-3.625 0.125 -3.625 0.125 0 0 Z " fill="#1751A6" transform="translate(184.625,172.875)"/>
<path d="M0 0 C2.96175123 0.61277612 4.38058783 1.25372522 7 3 C7.6875 5.125 7.6875 5.125 8 7 C7.34 7 6.68 7 6 7 C6 6.34 6 5.68 6 5 C5.38125 4.731875 4.7625 4.46375 4.125 4.1875 C2 3 2 3 0 0 Z " fill="#DFF4FC" transform="translate(207,154)"/>
<path d="M0 0 C1.27875 -0.061875 2.5575 -0.12375 3.875 -0.1875 C4.95394531 -0.23970703 4.95394531 -0.23970703 6.0546875 -0.29296875 C6.69664062 -0.19628906 7.33859375 -0.09960938 8 0 C8.66 0.99 9.32 1.98 10 3 C3.375 2.25 3.375 2.25 0 0 Z " fill="#0A336E" transform="translate(238,421)"/>
<path d="M0 0 C-4.75 4 -4.75 4 -7 4 C-7 2.68 -7 1.36 -7 0 C-3.98968256 -0.93423645 -3.13349732 -1.04449911 0 0 Z " fill="#2155A2" transform="translate(179,179)"/>
<path d="M0 0 C3 1 3 1 4 3 C6.01669827 4.13350534 6.01669827 4.13350534 8 5 C7.01 5.33 6.02 5.66 5 6 C1.8125 4.0625 1.8125 4.0625 -1 2 C-0.67 1.34 -0.34 0.68 0 0 Z " fill="#1E58A5" transform="translate(211,167)"/>
<path d="M0 0 C0.185625 0.9590625 0.185625 0.9590625 0.375 1.9375 C0.684375 2.9584375 0.684375 2.9584375 1 4 C1.66 4.33 2.32 4.66 3 5 C1.02 5.33 -0.96 5.66 -3 6 C-1.125 1.125 -1.125 1.125 0 0 Z " fill="#004AA7" transform="translate(272,166)"/>
<path d="M0 0 C2.0625 0.4375 2.0625 0.4375 4 1 C1.03 3.475 1.03 3.475 -2 6 C-1.125 1.125 -1.125 1.125 0 0 Z " fill="#0C3880" transform="translate(364,300)"/>
<path d="M0 0 C1.32 0.33 2.64 0.66 4 1 C4 1.66 4 2.32 4 3 C4.99 3 5.98 3 7 3 C7.33 3.99 7.66 4.98 8 6 C4.08597051 4.73058503 2.20927127 3.48832306 0 0 Z " fill="#D3EBFB" transform="translate(149,257)"/>
<path d="M0 0 C-1.15173355 2.46800047 -2.04783565 4.04783565 -4 6 C-4 5.01 -4 4.02 -4 3 C-4.66 3 -5.32 3 -6 3 C-6 2.34 -6 1.68 -6 1 C-3.92446352 0.4465236 -2.15634036 0 0 0 Z " fill="#1D55A7" transform="translate(162,193)"/>
<path d="M0 0 C0.33 0.99 0.66 1.98 1 3 C-0.25 4.5625 -0.25 4.5625 -2 6 C-4.1875 5.6875 -4.1875 5.6875 -6 5 C-4.02 3.35 -2.04 1.7 0 0 Z " fill="#1E54A5" transform="translate(284,157)"/>
<path d="M0 0 C0.66 0.33 1.32 0.66 2 1 C0.1875 3.5 0.1875 3.5 -2 6 C-2.99 6 -3.98 6 -5 6 C-5 5.34 -5 4.68 -5 4 C-3.37373596 2.61767557 -1.7074998 1.28062485 0 0 Z " fill="#D6EAF8" transform="translate(214,70)"/>
<path d="M0 0 C0.66 0 1.32 0 2 0 C2.33 0.99 2.66 1.98 3 3 C1.02 3.99 1.02 3.99 -1 5 C-1 5.66 -1 6.32 -1 7 C-1.66 7 -2.32 7 -3 7 C-3 6.01 -3 5.02 -3 4 C-2.01 4 -1.02 4 0 4 C0 2.68 0 1.36 0 0 Z " fill="#2059A8" transform="translate(210,69)"/>
<path d="M0 0 C3.45925163 1.2491742 6.14693203 2.67527795 9 5 C6.69 4.67 4.38 4.34 2 4 C2 3.34 2 2.68 2 2 C1.34 2 0.68 2 0 2 C0 1.34 0 0.68 0 0 Z " fill="#05285F" transform="translate(334,42)"/>
</svg>
