<svg xmlns="http://www.w3.org/2000/svg" xmlns:xlink="http://www.w3.org/1999/xlink" width="1080" zoomAndPan="magnify" viewBox="0 0 810 809.999993" height="1080" preserveAspectRatio="xMidYMid meet" version="1.0"><defs><clipPath id="f53104109d"><path d="M 134.296875 31.617188 L 675.703125 31.617188 L 675.703125 778.382812 L 134.296875 778.382812 Z M 134.296875 31.617188 " clip-rule="nonzero"/></clipPath><clipPath id="ad29d4cc47"><path d="M 195.125 91.714844 L 614.875 91.714844 L 614.875 511.464844 L 195.125 511.464844 Z M 195.125 91.714844 " clip-rule="nonzero"/></clipPath><clipPath id="1519baf302"><path d="M 405 91.714844 C 289.085938 91.714844 195.125 185.679688 195.125 301.589844 C 195.125 417.503906 289.085938 511.464844 405 511.464844 C 520.914062 511.464844 614.875 417.503906 614.875 301.589844 C 614.875 185.679688 520.914062 91.714844 405 91.714844 Z M 405 91.714844 " clip-rule="nonzero"/></clipPath><clipPath id="8ade51e751"><path d="M 405 91.714844 C 289.085938 91.714844 195.125 185.679688 195.125 301.589844 C 195.125 417.503906 289.085938 511.464844 405 511.464844 C 520.914062 511.464844 614.875 417.503906 614.875 301.589844 C 614.875 185.679688 520.914062 91.714844 405 91.714844 Z M 405 91.714844 " clip-rule="nonzero"/></clipPath><clipPath id="4dc94416c7"><path d="M 236 106.292969 L 574.976562 106.292969 L 574.976562 495 L 236 495 Z M 236 106.292969 " clip-rule="nonzero"/></clipPath><clipPath id="7c50a82c04"><path d="M 173.59375 81 L 636.40625 81 L 636.40625 543.8125 L 173.59375 543.8125 Z M 173.59375 81 " clip-rule="nonzero"/></clipPath><clipPath id="b49f03f6f5"><path d="M 405 81 C 277.199219 81 173.59375 184.605469 173.59375 312.40625 C 173.59375 440.210938 277.199219 543.8125 405 543.8125 C 532.800781 543.8125 636.40625 440.210938 636.40625 312.40625 C 636.40625 184.605469 532.800781 81 405 81 Z M 405 81 " clip-rule="nonzero"/></clipPath><clipPath id="2bf8d0d93a"><path d="M 0.59375 0 L 463.40625 0 L 463.40625 462.8125 L 0.59375 462.8125 Z M 0.59375 0 " clip-rule="nonzero"/></clipPath><clipPath id="7bd6085ffb"><path d="M 232 0 C 104.199219 0 0.59375 103.605469 0.59375 231.40625 C 0.59375 359.210938 104.199219 462.8125 232 462.8125 C 359.800781 462.8125 463.40625 359.210938 463.40625 231.40625 C 463.40625 103.605469 359.800781 0 232 0 Z M 232 0 " clip-rule="nonzero"/></clipPath><clipPath id="e4edde69a2"><rect x="0" width="464" y="0" height="463"/></clipPath><clipPath id="8bd171e0ef"><path d="M 235.917969 269 L 574.167969 269 L 574.167969 427 L 235.917969 427 Z M 235.917969 269 " clip-rule="nonzero"/></clipPath></defs><g clip-path="url(#f53104109d)"><path fill="#004aad" d="M 361.707031 639.035156 C 351.125 608.148438 331.734375 581.019531 305.933594 560.996094 L 242.519531 511.765625 C 177.40625 461.21875 137.863281 384.546875 134.433594 302.183594 C 134.433594 152.753906 255.574219 31.617188 405 31.617188 C 554.433594 31.617188 675.566406 152.753906 675.566406 302.183594 C 672.136719 384.546875 632.59375 461.21875 567.480469 511.765625 L 504.066406 560.996094 C 478.265625 581.019531 458.882812 608.148438 448.292969 639.035156 L 440.832031 660.792969 C 435.582031 676.109375 421.191406 686.390625 405 686.390625 C 388.808594 686.390625 374.417969 676.109375 369.167969 660.792969 Z M 405 778.382812 C 345.226562 778.382812 296.777344 771.113281 296.777344 762.152344 C 296.777344 753.183594 345.226562 745.914062 405 745.914062 C 464.773438 745.914062 513.230469 753.183594 513.230469 762.152344 C 513.230469 771.113281 464.773438 778.382812 405 778.382812 Z M 534.070312 317.335938 L 564.214844 256.578125 C 568.839844 246.804688 568.304688 235.347656 562.773438 226.070312 C 557.148438 216.234375 546.808594 210.109375 535.546875 209.921875 L 316.011719 209.921875 L 306.726562 173.441406 C 304.800781 166.191406 298.15625 161.238281 290.714844 161.5 L 258.675781 161.5 C 249.828125 161.5 242.65625 168.726562 242.65625 177.640625 C 242.65625 186.554688 249.828125 193.78125 258.675781 193.78125 L 278.539062 193.78125 L 322.738281 359.40625 C 324.675781 366.65625 331.3125 371.609375 338.757812 371.347656 L 497.429688 371.347656 C 503.457031 371.332031 508.96875 367.898438 511.683594 362.46875 L 524.414062 336.8125 L 392.011719 336.8125 L 392.011719 317.335938 Z M 369.289062 460.195312 C 386.988281 460.195312 401.328125 445.742188 401.328125 427.90625 C 401.328125 410.082031 386.988281 395.625 369.289062 395.625 C 351.601562 395.625 337.257812 410.082031 337.257812 427.90625 C 337.257812 445.742188 351.601562 460.195312 369.289062 460.195312 Z M 481.417969 460.195312 C 499.097656 460.195312 513.441406 445.742188 513.441406 427.90625 C 513.441406 410.082031 499.097656 395.625 481.417969 395.625 C 463.722656 395.625 449.378906 410.082031 449.378906 427.90625 C 449.378906 445.742188 463.722656 460.195312 481.417969 460.195312 Z M 481.417969 460.195312 " fill-opacity="1" fill-rule="nonzero"/></g><g clip-path="url(#ad29d4cc47)"><g clip-path="url(#1519baf302)"><g clip-path="url(#8ade51e751)"><path fill="#004aad" d="M 195.125 91.714844 L 614.875 91.714844 L 614.875 511.464844 L 195.125 511.464844 Z M 195.125 91.714844 " fill-opacity="1" fill-rule="nonzero"/></g></g></g><g clip-path="url(#4dc94416c7)"><path fill="#ffffff" d="M 421.285156 106.585938 C 420.347656 106.601562 419.398438 106.660156 418.441406 106.746094 L 397.277344 108.667969 L 376.113281 110.636719 C 355.800781 112.515625 340.628906 130.804688 342.511719 151.117188 L 343.910156 166.605469 C 343.910156 166.605469 343.910156 166.613281 343.910156 166.613281 L 260.167969 174.359375 C 258.441406 174.519531 256.742188 174.84375 255.070312 175.339844 C 253.410156 175.832031 251.804688 176.488281 250.265625 177.300781 C 248.726562 178.109375 247.285156 179.066406 245.929688 180.160156 C 244.585938 181.253906 243.355469 182.46875 242.246094 183.804688 C 241.125 185.144531 240.160156 186.578125 239.335938 188.101562 C 238.5 189.632812 237.828125 191.21875 237.316406 192.882812 C 236.800781 194.542969 236.460938 196.234375 236.273438 197.960938 C 236.09375 199.695312 236.085938 201.421875 236.242188 203.15625 L 238.484375 227.285156 L 575.144531 196.128906 L 572.902344 172 C 572.746094 170.265625 572.414062 168.574219 571.921875 166.902344 C 571.425781 165.242188 570.777344 163.636719 569.96875 162.105469 C 569.15625 160.566406 568.199219 159.125 567.105469 157.773438 C 566.011719 156.425781 564.796875 155.195312 563.460938 154.085938 C 562.125 152.976562 560.691406 152.003906 559.15625 151.175781 C 557.632812 150.347656 556.039062 149.675781 554.378906 149.167969 C 552.714844 148.648438 551.023438 148.300781 549.289062 148.121094 C 547.5625 147.941406 545.828125 147.933594 544.101562 148.089844 L 460.328125 155.835938 L 458.925781 140.34375 C 457.132812 120.984375 440.441406 106.292969 421.285156 106.59375 Z M 422.023438 130.34375 C 428.929688 130.375 434.582031 135.480469 435.230469 142.515625 L 436.675781 158.03125 L 402.140625 161.222656 L 367.613281 164.414062 L 366.171875 148.90625 C 365.472656 141.402344 370.757812 135.027344 378.285156 134.328125 C 378.300781 134.328125 378.316406 134.328125 378.332031 134.328125 L 399.464844 132.378906 L 420.628906 130.40625 C 421.101562 130.359375 421.570312 130.335938 422.03125 130.34375 Z M 268.789062 237.933594 L 291.957031 464.023438 C 292.167969 466.113281 292.570312 468.179688 293.171875 470.195312 C 293.761719 472.222656 294.539062 474.175781 295.488281 476.054688 C 296.445312 477.933594 297.5625 479.707031 298.84375 481.386719 C 300.125 483.0625 301.550781 484.601562 303.113281 486.019531 C 304.675781 487.429688 306.363281 488.6875 308.152344 489.789062 C 309.953125 490.898438 311.839844 491.824219 313.808594 492.585938 C 315.777344 493.339844 317.796875 493.914062 319.871094 494.292969 C 321.945312 494.683594 324.035156 494.878906 326.148438 494.878906 L 480.707031 494.878906 C 482.820312 494.878906 484.910156 494.683594 486.984375 494.292969 C 489.058594 493.914062 491.078125 493.339844 493.046875 492.585938 C 495.015625 491.824219 496.894531 490.898438 498.695312 489.789062 C 500.492188 488.6875 502.179688 487.429688 503.742188 486.019531 C 505.304688 484.601562 506.730469 483.0625 508.011719 481.386719 C 509.292969 479.707031 510.410156 477.933594 511.367188 476.054688 C 512.316406 474.175781 513.09375 472.222656 513.683594 470.195312 C 514.277344 468.179688 514.679688 466.113281 514.898438 464.023438 L 538.066406 237.933594 Z M 403.429688 280.660156 C 404.207031 280.660156 404.984375 280.742188 405.746094 280.886719 C 406.515625 281.042969 407.261719 281.269531 407.980469 281.566406 C 408.703125 281.867188 409.390625 282.234375 410.039062 282.671875 C 410.6875 283.097656 411.289062 283.59375 411.847656 284.144531 C 412.398438 284.695312 412.890625 285.304688 413.320312 285.953125 C 413.757812 286.601562 414.125 287.289062 414.421875 288.011719 C 414.722656 288.730469 414.949219 289.476562 415.097656 290.238281 C 415.25 291.007812 415.324219 291.777344 415.324219 292.5625 L 415.324219 433.375 C 415.324219 434.152344 415.25 434.933594 415.097656 435.695312 C 414.941406 436.457031 414.714844 437.199219 414.414062 437.921875 C 414.117188 438.644531 413.75 439.324219 413.3125 439.972656 C 412.875 440.621094 412.390625 441.21875 411.832031 441.769531 C 411.28125 442.320312 410.679688 442.816406 410.03125 443.253906 C 409.382812 443.683594 408.695312 444.046875 407.972656 444.347656 C 407.253906 444.648438 406.507812 444.867188 405.746094 445.019531 C 404.984375 445.175781 404.207031 445.246094 403.429688 445.246094 C 402.648438 445.246094 401.871094 445.175781 401.109375 445.019531 C 400.339844 444.867188 399.601562 444.648438 398.882812 444.347656 C 398.160156 444.046875 397.472656 443.683594 396.824219 443.253906 C 396.175781 442.816406 395.578125 442.320312 395.015625 441.769531 C 394.464844 441.21875 393.972656 440.621094 393.542969 439.972656 C 393.105469 439.324219 392.738281 438.644531 392.441406 437.921875 C 392.140625 437.199219 391.914062 436.457031 391.757812 435.695312 C 391.605469 434.933594 391.53125 434.152344 391.523438 433.375 L 391.523438 292.5625 C 391.523438 291.777344 391.605469 291.007812 391.75 290.238281 C 391.90625 289.476562 392.132812 288.730469 392.433594 288.011719 C 392.730469 287.289062 393.097656 286.601562 393.535156 285.953125 C 393.964844 285.304688 394.457031 284.695312 395.007812 284.144531 C 395.558594 283.59375 396.167969 283.097656 396.816406 282.671875 C 397.464844 282.234375 398.152344 281.867188 398.875 281.566406 C 399.59375 281.269531 400.339844 281.042969 401.101562 280.886719 C 401.871094 280.742188 402.640625 280.660156 403.429688 280.660156 Z M 469.5 280.699219 C 470.113281 280.667969 470.738281 280.675781 471.355469 280.742188 C 472.132812 280.816406 472.886719 280.960938 473.632812 281.1875 C 474.386719 281.40625 475.097656 281.707031 475.785156 282.070312 C 476.476562 282.433594 477.125 282.863281 477.722656 283.351562 C 478.332031 283.84375 478.882812 284.386719 479.375 284.988281 C 479.871094 285.585938 480.308594 286.226562 480.679688 286.914062 C 481.046875 287.597656 481.355469 288.316406 481.582031 289.054688 C 481.808594 289.800781 481.96875 290.5625 482.050781 291.332031 C 482.132812 292.109375 482.132812 292.886719 482.066406 293.65625 L 468.898438 434.460938 C 468.828125 435.238281 468.679688 436 468.460938 436.746094 C 468.234375 437.5 467.945312 438.214844 467.578125 438.902344 C 467.214844 439.597656 466.792969 440.246094 466.296875 440.847656 C 465.804688 441.453125 465.261719 442.007812 464.660156 442.507812 C 464.0625 443.003906 463.421875 443.441406 462.734375 443.8125 C 462.050781 444.1875 461.332031 444.484375 460.585938 444.710938 C 459.847656 444.949219 459.085938 445.101562 458.308594 445.183594 C 457.53125 445.269531 456.761719 445.269531 455.984375 445.199219 C 455.207031 445.132812 454.4375 444.980469 453.691406 444.761719 C 452.945312 444.542969 452.222656 444.242188 451.527344 443.878906 C 450.839844 443.511719 450.191406 443.089844 449.582031 442.597656 C 448.972656 442.101562 448.421875 441.558594 447.921875 440.953125 C 447.425781 440.351562 446.988281 439.710938 446.617188 439.023438 C 446.242188 438.335938 445.945312 437.621094 445.710938 436.875 C 445.480469 436.125 445.328125 435.363281 445.246094 434.582031 C 445.167969 433.804688 445.15625 433.035156 445.230469 432.257812 L 458.40625 291.4375 C 458.535156 290.035156 458.917969 288.691406 459.523438 287.417969 C 460.140625 286.136719 460.949219 285.011719 461.972656 284.023438 C 462.984375 283.042969 464.144531 282.265625 465.441406 281.691406 C 466.726562 281.121094 468.082031 280.789062 469.5 280.699219 Z M 337.574219 280.726562 C 338.960938 280.832031 340.289062 281.179688 341.5625 281.761719 C 342.835938 282.347656 343.960938 283.125 344.957031 284.105469 C 345.953125 285.085938 346.746094 286.203125 347.347656 287.46875 C 347.945312 288.722656 348.3125 290.050781 348.449219 291.4375 L 361.617188 432.25 C 361.691406 433.035156 361.691406 433.8125 361.609375 434.59375 C 361.527344 435.371094 361.375 436.132812 361.148438 436.875 C 360.910156 437.621094 360.613281 438.34375 360.238281 439.023438 C 359.867188 439.710938 359.4375 440.359375 358.933594 440.960938 C 358.433594 441.558594 357.882812 442.113281 357.273438 442.605469 C 356.664062 443.101562 356.019531 443.519531 355.328125 443.886719 C 354.632812 444.25 353.910156 444.550781 353.164062 444.769531 C 352.410156 444.996094 351.648438 445.140625 350.871094 445.214844 C 350.09375 445.28125 349.316406 445.28125 348.546875 445.199219 C 347.769531 445.109375 347.007812 444.957031 346.261719 444.730469 C 345.515625 444.492188 344.804688 444.195312 344.113281 443.820312 C 343.433594 443.449219 342.785156 443.011719 342.1875 442.507812 C 341.585938 442.015625 341.042969 441.464844 340.550781 440.855469 C 340.0625 440.246094 339.632812 439.597656 339.269531 438.910156 C 338.90625 438.222656 338.613281 437.5 338.394531 436.753906 C 338.175781 436 338.019531 435.238281 337.957031 434.460938 L 324.789062 293.648438 C 324.722656 292.878906 324.722656 292.101562 324.804688 291.324219 C 324.886719 290.554688 325.046875 289.792969 325.273438 289.054688 C 325.511719 288.308594 325.808594 287.597656 326.183594 286.90625 C 326.546875 286.226562 326.984375 285.585938 327.480469 284.988281 C 327.972656 284.386719 328.523438 283.835938 329.132812 283.351562 C 329.730469 282.855469 330.378906 282.433594 331.070312 282.070312 C 331.757812 281.707031 332.46875 281.40625 333.214844 281.1875 C 333.960938 280.960938 334.722656 280.816406 335.5 280.742188 C 336.191406 280.675781 336.878906 280.667969 337.574219 280.71875 Z M 337.574219 280.726562 " fill-opacity="1" fill-rule="nonzero"/></g><g clip-path="url(#7c50a82c04)"><g clip-path="url(#b49f03f6f5)"><g transform="matrix(1, 0, 0, 1, 173, 81)"><g clip-path="url(#e4edde69a2)"><g clip-path="url(#2bf8d0d93a)"><g clip-path="url(#7bd6085ffb)"><path fill="#004aad" d="M 0.59375 0 L 463.40625 0 L 463.40625 462.8125 L 0.59375 462.8125 Z M 0.59375 0 " fill-opacity="1" fill-rule="nonzero"/></g></g></g></g></g></g><g clip-path="url(#8bd171e0ef)"><path fill="#ffffff" d="M 464.75 269.859375 C 446.964844 283.855469 424.566406 292.234375 400.230469 292.234375 C 376.5 292.234375 354.59375 284.273438 337.03125 270.894531 C 279.703125 280.160156 235.917969 329.859375 235.917969 389.804688 C 235.917969 456.347656 289.855469 413.085938 356.394531 413.085938 L 453.589844 413.085938 C 520.128906 413.085938 574.074219 456.347656 574.074219 389.804688 C 574.074219 327.035156 526.054688 275.492188 464.75 269.859375 Z M 464.75 269.859375 " fill-opacity="1" fill-rule="nonzero"/></g><path fill="#ffffff" d="M 400.230469 278.210938 C 450.148438 278.210938 490.75 237.601562 490.75 187.679688 C 490.75 137.765625 450.148438 97.152344 400.230469 97.152344 C 350.316406 97.152344 309.707031 137.765625 309.707031 187.679688 C 309.710938 237.601562 350.320312 278.210938 400.230469 278.210938 Z M 400.230469 278.210938 " fill-opacity="1" fill-rule="nonzero"/></svg>